<svg width="24" height="25" viewBox="0 0 24 25" fill="none" xmlns="http://www.w3.org/2000/svg">
    <g clip-path="url(#clip0_350_7675)">
        <path
            d="M3.00781 12.1133C3.00781 13.2952 3.2406 14.4655 3.6929 15.5574C4.14519 16.6494 4.80812 17.6415 5.64385 18.4772C6.47958 19.313 7.47173 19.9759 8.56366 20.4282C9.65559 20.8805 10.8259 21.1133 12.0078 21.1133C13.1897 21.1133 14.36 20.8805 15.452 20.4282C16.5439 19.9759 17.536 19.313 18.3718 18.4772C19.2075 17.6415 19.8704 16.6494 20.3227 15.5574C20.775 14.4655 21.0078 13.2952 21.0078 12.1133C21.0078 10.9314 20.775 9.76106 20.3227 8.66913C19.8704 7.5772 19.2075 6.58505 18.3718 5.74932C17.536 4.91359 16.5439 4.25066 15.452 3.79837C14.36 3.34607 13.1897 3.11328 12.0078 3.11328C10.8259 3.11328 9.65559 3.34607 8.56366 3.79837C7.47173 4.25066 6.47958 4.91359 5.64385 5.74932C4.80812 6.58505 4.14519 7.5772 3.6929 8.66913C3.2406 9.76106 3.00781 10.9314 3.00781 12.1133Z"
            stroke="#02AFA7" stroke-width="1.5" stroke-linecap="round" stroke-linejoin="round" />
        <path
            d="M9.00781 10.1133C9.00781 10.9089 9.32388 11.672 9.88649 12.2346C10.4491 12.7972 11.2122 13.1133 12.0078 13.1133C12.8035 13.1133 13.5665 12.7972 14.1291 12.2346C14.6917 11.672 15.0078 10.9089 15.0078 10.1133C15.0078 9.31763 14.6917 8.55457 14.1291 7.99196C13.5665 7.42935 12.8035 7.11328 12.0078 7.11328C11.2122 7.11328 10.4491 7.42935 9.88649 7.99196C9.32388 8.55457 9.00781 9.31763 9.00781 10.1133Z"
            stroke="#02AFA7" stroke-width="1.5" stroke-linecap="round" stroke-linejoin="round" />
        <path
            d="M6.17969 18.9623C6.4272 18.1385 6.93366 17.4165 7.62393 16.9033C8.31421 16.3901 9.15153 16.113 10.0117 16.1133H14.0117C14.8729 16.113 15.7113 16.3907 16.4021 16.9051C17.0928 17.4195 17.5992 18.1431 17.8457 18.9683"
            stroke="#02AFA7" stroke-width="1.5" stroke-linecap="round" stroke-linejoin="round" />
    </g>
    <defs>
        <clipPath id="clip0_350_7675">
            <rect width="24" height="24" fill="white" transform="translate(0.0078125 0.113281)" />
        </clipPath>
    </defs>
</svg>