<svg width="24" height="25" viewBox="0 0 24 25" fill="none" xmlns="http://www.w3.org/2000/svg">
    <g clip-path="url(#clip0_350_7669)">
        <path
            d="M9.00781 11.1133C9.00781 11.9089 9.32388 12.672 9.88649 13.2346C10.4491 13.7972 11.2122 14.1133 12.0078 14.1133C12.8035 14.1133 13.5665 13.7972 14.1291 13.2346C14.6917 12.672 15.0078 11.9089 15.0078 11.1133C15.0078 10.3176 14.6917 9.55457 14.1291 8.99196C13.5665 8.42935 12.8035 8.11328 12.0078 8.11328C11.2122 8.11328 10.4491 8.42935 9.88649 8.99196C9.32388 9.55457 9.00781 10.3176 9.00781 11.1133Z"
            stroke="#02AFA7" stroke-width="1.5" stroke-linecap="round" stroke-linejoin="round" />
        <path
            d="M17.6648 16.77L13.4218 21.013C13.0468 21.3876 12.5384 21.5981 12.0083 21.5981C11.4782 21.5981 10.9698 21.3876 10.5948 21.013L6.35082 16.77C5.23204 15.6512 4.47015 14.2257 4.1615 12.6739C3.85286 11.122 4.01131 9.5135 4.61682 8.05172C5.22233 6.58993 6.24771 5.34053 7.5633 4.4615C8.87888 3.58246 10.4256 3.11328 12.0078 3.11328C13.59 3.11328 15.1368 3.58246 16.4523 4.4615C17.7679 5.34053 18.7933 6.58993 19.3988 8.05172C20.0043 9.5135 20.1628 11.122 19.8541 12.6739C19.5455 14.2257 18.7836 15.6512 17.6648 16.77Z"
            stroke="#02AFA7" stroke-width="1.5" stroke-linecap="round" stroke-linejoin="round" />
    </g>
    <defs>
        <clipPath id="clip0_350_7669">
            <rect width="24" height="24" fill="white" transform="translate(0.0078125 0.113281)" />
        </clipPath>
    </defs>
</svg>