<svg width="25" height="19" viewBox="0 0 25 19" fill="none" xmlns="http://www.w3.org/2000/svg">
    <path
        d="M23.6661 4.077C23.3848 3.73944 23.0327 3.46795 22.6347 3.28182C22.2366 3.09568 21.8025 2.99946 21.3631 3H5.19513L5.15312 2.649C5.06717 1.91942 4.71651 1.24673 4.16761 0.758478C3.61872 0.270223 2.90975 0.000341793 2.17513 0L1.95312 0C1.68791 0 1.43355 0.105357 1.24602 0.292893C1.05848 0.48043 0.953125 0.734784 0.953125 1C0.953125 1.26522 1.05848 1.51957 1.24602 1.70711C1.43355 1.89464 1.68791 2 1.95312 2H2.17513C2.42006 2.00003 2.65646 2.08996 2.8395 2.25272C3.02253 2.41547 3.13947 2.63975 3.16812 2.883L4.54413 14.583C4.68698 15.7998 5.2716 16.9218 6.18703 17.736C7.10246 18.5502 8.28498 19 9.51013 19H19.9531C20.2183 19 20.4727 18.8946 20.6602 18.7071C20.8478 18.5196 20.9531 18.2652 20.9531 18C20.9531 17.7348 20.8478 17.4804 20.6602 17.2929C20.4727 17.1054 20.2183 17 19.9531 17H9.51013C8.89118 16.9983 8.28792 16.8051 7.78306 16.4471C7.2782 16.089 6.89644 15.5835 6.69012 15H18.6101C19.7824 15.0001 20.9175 14.5882 21.8169 13.8364C22.7164 13.0846 23.3232 12.0407 23.5311 10.887L24.3161 6.533C24.3945 6.10101 24.3769 5.65707 24.2645 5.23264C24.1522 4.80821 23.9479 4.41368 23.6661 4.077ZM22.3531 6.178L21.5671 10.532C21.4423 11.225 21.0776 11.852 20.537 12.3032C19.9964 12.7544 19.3143 13.0011 18.6101 13H6.37213L5.43113 5H21.3631C21.51 4.99912 21.6553 5.03062 21.7887 5.09226C21.922 5.15389 22.0401 5.24415 22.1346 5.35661C22.2292 5.46907 22.2977 5.60097 22.3355 5.74294C22.3733 5.8849 22.3793 6.03344 22.3531 6.178Z"
        fill="#0E1114" />
</svg>