<svg width="24" height="25" viewBox="0 0 24 25" fill="none" xmlns="http://www.w3.org/2000/svg">
    <g clip-path="url(#clip0_350_7664)">
        <path
            d="M19.5052 12.685L12.0052 20.113L4.50518 12.685C4.01049 12.2036 3.62083 11.625 3.36073 10.9856C3.10064 10.3462 2.97575 9.65992 2.99392 8.9699C3.0121 8.27989 3.17295 7.60111 3.46634 6.97631C3.75974 6.35151 4.17932 5.79422 4.69867 5.33955C5.21802 4.88488 5.82589 4.54266 6.484 4.33445C7.1421 4.12624 7.83619 4.05655 8.52255 4.12977C9.20891 4.20299 9.87268 4.41753 10.4721 4.75988C11.0714 5.10223 11.5934 5.56497 12.0052 6.11897C12.4187 5.56899 12.9413 5.11029 13.5403 4.77157C14.1392 4.43286 14.8017 4.22142 15.4861 4.15049C16.1706 4.07956 16.8623 4.15067 17.518 4.35936C18.1736 4.56806 18.7792 4.90984 19.2967 5.36333C19.8143 5.81682 20.2326 6.37225 20.5256 6.99486C20.8186 7.61747 20.9799 8.29385 20.9995 8.98168C21.0191 9.6695 20.8964 10.354 20.6393 10.9922C20.3822 11.6305 19.9961 12.2088 19.5052 12.691"
            stroke="#02AFA7" stroke-width="1.5" stroke-linecap="round" stroke-linejoin="round" />
    </g>
    <defs>
        <clipPath id="clip0_350_7664">
            <rect width="24" height="24" fill="white" transform="translate(0.0078125 0.113281)" />
        </clipPath>
    </defs>
</svg>