<svg width="25" height="24" viewBox="0 0 25 24" fill="none" xmlns="http://www.w3.org/2000/svg">
    <path fill-rule="evenodd" clip-rule="evenodd"
        d="M9.01612 19H5.29083C4.55203 19 3.95312 18.4011 3.95312 17.6623V16.7893C3.95312 16.2839 4.1539 15.7992 4.51127 15.4419C5.43448 14.5187 5.95312 13.2665 5.95312 11.9609V9C5.95312 5.13401 9.08714 2 12.9531 2C16.8191 2 19.9531 5.13401 19.9531 9V11.9609C19.9531 13.2665 20.4718 14.5187 21.395 15.4419C21.7523 15.7992 21.9531 16.2839 21.9531 16.7893V17.6623C21.9531 18.4011 21.3542 19 20.6154 19H16.8901C16.8901 19.3646 16.8826 20.1575 16.4579 20.9285C15.7801 22.159 14.4662 23 12.9531 23C11.44 23 10.1261 22.159 9.44827 20.9285C9.02358 20.1575 9.01612 19.3646 9.01612 19ZM17.9531 11.9609C17.9531 13.7839 18.6721 15.5327 19.9531 16.8283V17H5.95312V16.8283C7.23412 15.5327 7.95312 13.7839 7.95312 11.9609V9C7.95312 6.23858 10.1917 4 12.9531 4C15.7145 4 17.9531 6.23858 17.9531 9V11.9609ZM14.8901 19H11.0161C11.0161 19.332 11.0399 19.6728 11.2001 19.9636C11.5394 20.5796 12.194 20.9975 12.9464 21H12.9531H12.9597C13.7122 20.9975 14.3668 20.5796 14.7061 19.9636C14.8663 19.6728 14.8901 19.332 14.8901 19Z"
        fill="#0E1114" />
</svg>