<svg width="24" height="25" viewBox="0 0 24 25" fill="none" xmlns="http://www.w3.org/2000/svg">
    <g clip-path="url(#clip0_350_7682)">
        <path d="M15.0078 5.11328V7.11328" stroke="#02AFA7" stroke-width="1.5"
            stroke-linecap="round" stroke-linejoin="round" />
        <path d="M15.0078 11.1133V13.1133" stroke="#02AFA7" stroke-width="1.5"
            stroke-linecap="round" stroke-linejoin="round" />
        <path d="M15.0078 17.1133V19.1133" stroke="#02AFA7" stroke-width="1.5"
            stroke-linecap="round" stroke-linejoin="round" />
        <path
            d="M5.00781 5.11328H19.0078C19.5382 5.11328 20.047 5.32399 20.422 5.69907C20.7971 6.07414 21.0078 6.58285 21.0078 7.11328V10.1133C20.4774 10.1133 19.9687 10.324 19.5936 10.6991C19.2185 11.0741 19.0078 11.5828 19.0078 12.1133C19.0078 12.6437 19.2185 13.1524 19.5936 13.5275C19.9687 13.9026 20.4774 14.1133 21.0078 14.1133V17.1133C21.0078 17.6437 20.7971 18.1524 20.422 18.5275C20.047 18.9026 19.5382 19.1133 19.0078 19.1133H5.00781C4.47738 19.1133 3.96867 18.9026 3.5936 18.5275C3.21853 18.1524 3.00781 17.6437 3.00781 17.1133V14.1133C3.53825 14.1133 4.04695 13.9026 4.42203 13.5275C4.7971 13.1524 5.00781 12.6437 5.00781 12.1133C5.00781 11.5828 4.7971 11.0741 4.42203 10.6991C4.04695 10.324 3.53825 10.1133 3.00781 10.1133V7.11328C3.00781 6.58285 3.21853 6.07414 3.5936 5.69907C3.96867 5.32399 4.47738 5.11328 5.00781 5.11328Z"
            stroke="#02AFA7" stroke-width="1.5" stroke-linecap="round" stroke-linejoin="round" />
    </g>
    <defs>
        <clipPath id="clip0_350_7682">
            <rect width="24" height="24" fill="white" transform="translate(0.0078125 0.113281)" />
        </clipPath>
    </defs>
</svg>