<svg width="46" height="46" viewBox="0 0 46 46" fill="none" xmlns="http://www.w3.org/2000/svg">
    <circle cx="23" cy="23" r="23" fill="#EAEAEA" />
    <mask id="mask0_350_7647" style="mask-type:alpha" maskUnits="userSpaceOnUse" x="0" y="0"
        width="46" height="46">
        <circle cx="23" cy="23" r="23" fill="#F3F5F6" />
    </mask>
    <g mask="url(#mask0_350_7647)">
        <ellipse cx="23.0034" cy="40.4794" rx="17.48" ry="10.12" fill="#C5C5C5" />
    </g>
    <circle cx="23.0005" cy="20.7661" r="13.2505" fill="#C5C5C5" stroke="#EAEAEA" />
    <path
        d="M20.2189 26.8663C19.6388 26.3542 18.7534 26.4094 18.2413 26.9896C17.7292 27.5697 17.7844 28.4552 18.3646 28.9672C19.5987 30.0566 21.2231 30.719 22.9989 30.719C24.7747 30.719 26.3992 30.0566 27.6333 28.9672C28.2133 28.4552 28.2686 27.5697 27.7566 26.9896C27.2445 26.4094 26.3591 26.3542 25.7789 26.8663C25.037 27.5211 24.0659 27.9168 22.9989 27.9168C21.9319 27.9168 20.9608 27.5211 20.2189 26.8663Z"
        fill="#8C8C8C" />
</svg>