<svg width="19" height="20" viewBox="0 0 19 20" fill="none" xmlns="http://www.w3.org/2000/svg">
<path d="M9.58383 13C6.41376 13 3.59463 14.5306 1.79983 16.906C1.41354 17.4172 1.22039 17.6728 1.22671 18.0183C1.23159 18.2852 1.3992 18.6219 1.6092 18.7867C1.88102 19 2.2577 19 3.01107 19H16.1566C16.91 19 17.2866 19 17.5585 18.7867C17.7685 18.6219 17.9361 18.2852 17.941 18.0183C17.9473 17.6728 17.7541 17.4172 17.3678 16.906C15.573 14.5306 12.7539 13 9.58383 13Z" stroke="white" stroke-width="2" stroke-linecap="round" stroke-linejoin="round"/>
<path d="M9.58384 10C12.0691 10 14.0838 7.98528 14.0838 5.5C14.0838 3.01472 12.0691 1 9.58384 1C7.09855 1 5.08384 3.01472 5.08384 5.5C5.08384 7.98528 7.09855 10 9.58384 10Z" stroke="white" stroke-width="2" stroke-linecap="round" stroke-linejoin="round"/>
</svg>
