<svg width="18" height="18" viewBox="0 0 18 18" fill="none" xmlns="http://www.w3.org/2000/svg">
<mask id="mask0_247_608" style="mask-type:luminance" maskUnits="userSpaceOnUse" x="0" y="0" width="18" height="18">
<path d="M0.550781 16.5977V0.597656H16.5508V16.5977H0.550781Z" fill="white" stroke="white"/>
</mask>
<g mask="url(#mask0_247_608)">
<mask id="mask1_247_608" style="mask-type:luminance" maskUnits="userSpaceOnUse" x="0" y="0" width="18" height="18">
<path d="M0.550781 0.597656H16.5508V16.5977H0.550781V0.597656Z" fill="white" stroke="white"/>
</mask>
<g mask="url(#mask1_247_608)">
<path d="M5.56064 12.582C5.55318 13.1139 5.33627 13.6213 4.957 13.9942C4.57773 14.3671 4.06669 14.5754 3.5348 14.5739C3.27323 14.5739 3.01422 14.5223 2.77256 14.4222C2.5309 14.3221 2.31132 14.1754 2.12636 13.9905C1.75282 13.6169 1.54297 13.1103 1.54297 12.582" stroke="#46515D" stroke-miterlimit="10" stroke-linecap="round" stroke-linejoin="round"/>
<path d="M8.54688 2.62109H11.5346" stroke="#46515D" stroke-miterlimit="10" stroke-linecap="round" stroke-linejoin="round"/>
<path d="M0.546875 10.5898H2.53871" stroke="#46515D" stroke-miterlimit="10" stroke-linecap="round" stroke-linejoin="round"/>
<path d="M7.55265 7.60104C7.55265 7.86405 7.44817 8.11628 7.26219 8.30226C7.07622 8.48823 6.82399 8.59271 6.56098 8.59271H2.53906V6.60938H6.56098C6.82399 6.60938 7.07622 6.71385 7.26219 6.89983C7.44817 7.0858 7.55265 7.33804 7.55265 7.60104Z" stroke="#46515D" stroke-miterlimit="10" stroke-linecap="round" stroke-linejoin="round"/>
<path d="M2.53906 4.61328V6.60511" stroke="#46515D" stroke-miterlimit="10" stroke-linecap="round" stroke-linejoin="round"/>
<path d="M14.5251 9.59323L11.5374 12.581H0.546875V10.5849C0.549123 10.0581 0.759968 9.55365 1.13327 9.18195C1.50656 8.81024 2.01191 8.60156 2.53871 8.60156" stroke="#46515D" stroke-miterlimit="10" stroke-linecap="round" stroke-linejoin="round"/>
<path d="M15.5227 12.582C15.5227 13.1103 15.3129 13.6169 14.9393 13.9905C14.5658 14.364 14.0592 14.5739 13.5309 14.5739C13.0026 14.5739 12.496 14.364 12.1225 13.9905C11.7489 13.6169 11.5391 13.1103 11.5391 12.582" stroke="#46515D" stroke-miterlimit="10" stroke-linecap="round" stroke-linejoin="round"/>
<path d="M9.55078 2.62109C9.81379 2.62109 10.066 2.72557 10.252 2.91155C10.438 3.09752 10.5424 3.34975 10.5424 3.61276C10.5424 3.87577 10.6469 4.128 10.8329 4.31397C11.0189 4.49995 11.2711 4.60443 11.5341 4.60443H13.5344V2.62109H11.5426" stroke="#46515D" stroke-miterlimit="10" stroke-linecap="round" stroke-linejoin="round"/>
<path d="M11.5391 12.5815H16.5526C16.5456 11.9803 16.3723 11.3928 16.052 10.884C15.7317 10.3752 15.2769 9.96491 14.7379 9.69858L14.5282 9.59375" stroke="#46515D" stroke-miterlimit="10" stroke-linecap="round" stroke-linejoin="round"/>
<path d="M11.5396 4.61328V7.9637C11.5398 8.48056 11.4143 8.98971 11.1739 9.44728C10.9335 9.90484 10.5855 10.2971 10.1598 10.5902H6.55859V8.59836" stroke="#46515D" stroke-miterlimit="10" stroke-linecap="round" stroke-linejoin="round"/>
<path d="M14.527 9.59428C14.8162 8.7893 14.8162 7.90877 14.527 7.10378C14.0367 6.1485 13.3593 5.30155 12.5352 4.61328" stroke="#46515D" stroke-miterlimit="10" stroke-linecap="round" stroke-linejoin="round"/>
</g>
</g>
</svg>
