<svg width="166" height="51" viewBox="0 0 166 51" fill="none" xmlns="http://www.w3.org/2000/svg">
<g clip-path="url(#clip0_56_611)">
<path d="M165.586 45.2687C165.586 48.0611 163.428 50.2188 160.89 50.2188H5.28209C2.74363 50.2188 0.585938 48.0611 0.585938 45.2687V5.66875C0.585938 3.00337 2.74363 0.71875 5.28209 0.71875H160.763C163.428 0.71875 165.459 3.00337 165.459 5.66875L165.586 45.2687Z" fill="black"/>
<path d="M58.5881 13.538C58.5881 14.5534 58.3343 15.315 57.6996 15.9496C57.065 16.7111 56.0496 17.0919 55.0343 17.0919C54.0189 17.0919 53.1304 16.7111 52.3689 15.9496C51.6073 15.188 51.2266 14.2996 51.2266 13.1573C51.2266 12.015 51.6073 11.1265 52.3689 10.365C53.1304 9.60343 54.0189 9.22266 55.0343 9.22266C55.5419 9.22266 56.0496 9.34958 56.5573 9.4765C57.065 9.73035 57.4458 9.98419 57.6996 10.238L57.065 10.8727C56.5573 10.238 55.9227 9.9842 55.0343 9.9842C54.2727 9.9842 53.6381 10.238 53.0035 10.7457C52.4958 11.2534 52.115 12.015 52.115 12.9034C52.115 13.7919 52.3689 14.4265 53.0035 15.0611C53.5112 15.5688 54.2727 15.8227 55.0343 15.8227C55.7958 15.8227 56.5573 15.5688 57.065 15.0611C57.4458 14.6803 57.5727 14.1727 57.6996 13.538H55.0343V13.0303H58.5881C58.4612 13.1573 58.5881 13.4111 58.5881 13.538Z" fill="white" stroke="white" stroke-width="0.253846" stroke-miterlimit="10"/>
<path d="M64.1748 10.49H60.8748V12.7746H63.9209V13.6631H60.8748V15.9477H64.1748V16.8362H59.8594V9.60156H64.1748V10.49Z" fill="white" stroke="white" stroke-width="0.253846" stroke-miterlimit="10"/>
<path d="M68.1067 16.9631H67.2183V10.49H65.1875V9.60156H70.2644V10.49H68.2337V16.9631H68.1067Z" fill="white" stroke="white" stroke-width="0.253846" stroke-miterlimit="10"/>
<path d="M73.8203 16.9631V9.60156H74.7088V16.9631H73.8203Z" fill="white" stroke="white" stroke-width="0.253846" stroke-miterlimit="10"/>
<path d="M79.0227 16.9631H78.0073V10.49H75.9766V9.60156H81.0535V10.49H79.0227V16.9631Z" fill="white" stroke="white" stroke-width="0.253846" stroke-miterlimit="10"/>
<path d="M90.5746 15.9496C89.8131 16.7112 88.9246 17.0919 87.9093 17.0919C86.8939 17.0919 85.8785 16.7112 85.2439 15.9496C84.4823 15.1881 84.1016 14.2996 84.1016 13.2843C84.1016 12.2689 84.4823 11.2535 85.2439 10.6189C86.0054 9.85733 86.8939 9.47656 87.9093 9.47656C88.9246 9.47656 89.8131 9.85733 90.5746 10.6189C91.3362 11.3804 91.7169 12.2689 91.7169 13.2843C91.59 14.2996 91.3362 15.1881 90.5746 15.9496ZM85.8785 15.315C86.3862 15.8227 87.1477 16.0766 87.9093 16.0766C88.6708 16.0766 89.3054 15.8227 89.94 15.315C90.4477 14.8073 90.7016 14.0458 90.7016 13.1573C90.7016 12.2689 90.4477 11.6343 89.94 10.9996C89.4323 10.4919 88.6708 10.2381 87.9093 10.2381C87.1477 10.2381 86.5131 10.4919 85.8785 10.9996C85.3708 11.5073 85.1169 12.2689 85.1169 13.1573C85.1169 14.0458 85.3708 14.8073 85.8785 15.315Z" fill="white" stroke="white" stroke-width="0.253846" stroke-miterlimit="10"/>
<path d="M92.9844 16.9631V9.60156H94.1267L97.6805 15.3131V13.9169V9.60156H98.569V16.9631H97.5536L93.8728 10.8708V12.2669V16.8362H92.9844V16.9631Z" fill="white" stroke="white" stroke-width="0.253846" stroke-miterlimit="10"/>
<path d="M83.8457 27.6275C80.9264 27.6275 78.6418 29.7852 78.6418 32.8314C78.6418 35.8775 80.9264 38.0352 83.8457 38.0352C86.7649 38.0352 89.0495 35.8775 89.0495 32.8314C89.0495 29.7852 86.7649 27.6275 83.8457 27.6275ZM83.8457 36.0044C82.3226 36.0044 80.9264 34.7352 80.9264 32.8314C80.9264 30.9275 82.3226 29.6583 83.8457 29.6583C85.3688 29.6583 86.7649 30.9275 86.7649 32.8314C86.7649 34.6083 85.4957 36.0044 83.8457 36.0044ZM72.4226 27.6275C69.5034 27.6275 67.2188 29.7852 67.2188 32.8314C67.2188 35.8775 69.5034 38.0352 72.4226 38.0352C75.3418 38.0352 77.6264 35.8775 77.6264 32.8314C77.7534 29.7852 75.3418 27.6275 72.4226 27.6275ZM72.4226 36.0044C70.8995 36.0044 69.5034 34.7352 69.5034 32.8314C69.5034 30.9275 70.8995 29.6583 72.4226 29.6583C73.9457 29.6583 75.3418 30.9275 75.3418 32.8314C75.4688 34.6083 74.0726 36.0044 72.4226 36.0044ZM58.9688 29.1506V31.3083H64.2995C64.1726 32.5775 63.7918 33.466 63.1572 34.1006C62.3957 34.8621 61.1264 35.7506 59.0957 35.7506C55.7957 35.7506 53.2572 33.0852 53.2572 29.9121C53.2572 26.7391 55.7957 24.0737 59.0957 24.0737C60.8726 24.0737 62.1418 24.7083 63.0303 25.5968L64.5534 24.0737C63.2841 22.8044 61.5072 21.7891 58.9688 21.7891C54.5264 21.7891 50.7188 25.4698 50.7188 29.9121C50.7188 34.3544 54.3995 38.0352 58.9688 38.0352C61.3803 38.0352 63.1572 37.2737 64.5534 35.7506C65.9495 34.3544 66.4572 32.1968 66.4572 30.5468C66.4572 30.0391 66.4572 29.5314 66.3303 29.1506H58.9688ZM114.307 30.9275C113.926 29.7852 112.53 27.6275 109.865 27.6275C107.2 27.6275 104.915 29.7852 104.915 32.8314C104.915 35.7506 107.073 38.0352 110.119 38.0352C112.53 38.0352 113.926 36.6391 114.434 35.7506L112.657 34.6083C112.023 35.4968 111.261 36.0044 110.119 36.0044C108.976 36.0044 108.088 35.4968 107.58 34.4814L114.561 31.5621L114.307 30.9275ZM107.2 32.7044C107.2 30.6737 108.723 29.6583 109.865 29.6583C110.753 29.6583 111.515 30.166 111.769 30.8006L107.2 32.7044ZM101.615 37.6544H103.9V22.4237H101.615V37.6544ZM97.8072 28.7698C97.1726 28.1352 96.2841 27.6275 95.0149 27.6275C92.4764 27.6275 90.0649 29.9121 90.0649 32.8314C90.0649 35.7506 92.4764 38.0352 95.0149 38.0352C96.2841 38.0352 97.2995 37.5275 97.8072 36.8929H97.9341V37.5275C97.9341 39.5583 96.9188 40.5737 95.1418 40.5737C93.7457 40.5737 92.8572 39.5583 92.4764 38.6698L90.4457 39.5583C90.9534 40.9544 92.4764 42.6044 95.0149 42.6044C97.6803 42.6044 99.9649 41.0814 99.9649 37.1468V27.7544H97.8072V28.7698ZM95.2687 36.0044C93.7457 36.0044 92.3495 34.7352 92.3495 32.8314C92.3495 31.0544 93.6188 29.6583 95.2687 29.6583C96.7918 29.6583 98.0611 31.0544 98.0611 32.8314C97.9341 34.6083 96.7918 36.0044 95.2687 36.0044ZM124.969 22.4237H119.511V37.6544H121.796V31.816H124.969C127.507 31.816 129.919 30.0391 129.919 27.1198C129.919 24.2006 127.507 22.4237 124.969 22.4237ZM125.096 29.7852H121.796V24.5814H125.096C126.746 24.5814 127.761 25.9775 127.761 27.2468C127.761 28.3891 126.746 29.7852 125.096 29.7852ZM139.184 27.6275C137.534 27.6275 135.884 28.3891 135.123 29.9121L137.153 30.8006C137.534 29.9121 138.423 29.6583 139.184 29.6583C140.326 29.6583 141.596 30.4198 141.596 31.5621V31.6891C141.215 31.4352 140.326 31.0544 139.184 31.0544C137.026 31.0544 134.742 32.1968 134.742 34.4814C134.742 36.5121 136.519 37.7814 138.55 37.7814C140.073 37.7814 140.961 37.1468 141.469 36.2583H141.596V37.4006H143.753V31.5621C143.753 29.1506 141.723 27.6275 139.184 27.6275ZM138.93 36.0044C138.169 36.0044 137.153 35.6237 137.153 34.7352C137.153 33.5929 138.423 33.0852 139.565 33.0852C140.58 33.0852 141.088 33.3391 141.596 33.5929C141.469 34.9891 140.2 36.0044 138.93 36.0044ZM151.876 27.8814L149.211 34.4814H149.084L146.419 27.8814H144.007L148.069 37.1468L145.784 42.3506H148.196L154.415 27.8814H151.876ZM131.315 37.6544H133.6V22.4237H131.315V37.6544Z" fill="white"/>
<path d="M13.2811 10.2383C13.0273 10.6191 12.7734 11.2537 12.7734 12.0152V39.0498C12.7734 39.8114 13.0273 40.446 13.2811 40.8267L13.4081 40.9537L28.5119 25.8498V25.7229V25.596L13.2811 10.2383Z" fill="url(#paint0_linear_56_611)"/>
<path d="M33.5925 30.6733L28.5156 25.5964V25.4695V25.3425L33.5925 20.2656L33.7195 20.3925L39.6849 23.8195C41.3349 24.8349 41.3349 26.3579 39.6849 27.3733L33.5925 30.6733Z" fill="url(#paint1_linear_56_611)"/>
<path d="M33.7159 30.6726L28.512 25.4688L13.2812 40.6995C13.7889 41.3341 14.8043 41.3341 15.8197 40.8264L33.7159 30.6726Z" fill="url(#paint2_linear_56_611)"/>
<path d="M33.7159 20.2662L15.8197 10.1123C14.8043 9.60463 13.9159 9.60463 13.2812 10.2392L28.512 25.47L33.7159 20.2662Z" fill="url(#paint3_linear_56_611)"/>
<path opacity="0.2" d="M33.5889 30.5469L15.8197 40.5738C14.8043 41.0815 13.9159 41.0815 13.4082 40.5738L13.2812 40.7007L13.4082 40.8276C13.9159 41.3353 14.8043 41.3353 15.8197 40.8276L33.5889 30.5469Z" fill="black"/>
<path opacity="0.12" d="M13.2811 40.5738C12.9004 40.193 12.7734 39.5584 12.7734 38.7969V38.9238C12.7734 39.6853 13.0273 40.32 13.2811 40.7007V40.5738Z" fill="black"/>
<path opacity="0.12" d="M39.6782 27.1187L33.5859 30.5457L33.7129 30.6726L39.6782 27.2457C40.5667 26.738 40.9475 26.1034 40.9475 25.4688C40.9475 26.1034 40.4398 26.6111 39.6782 27.1187Z" fill="black"/>
<path opacity="0.25" d="M15.8196 10.3661L39.6811 23.9469C40.4427 24.3277 40.9504 24.9623 40.9504 25.47C40.9504 24.8354 40.5696 24.2008 39.6811 23.6931L15.8196 10.1123C14.1696 9.09692 12.7734 9.98538 12.7734 11.8892V12.1431C12.7734 10.2392 14.1696 9.35077 15.8196 10.3661Z" fill="white"/>
</g>
<defs>
<linearGradient id="paint0_linear_56_611" x1="27.2328" y1="11.6698" x2="6.72098" y2="32.1816" gradientUnits="userSpaceOnUse">
<stop stop-color="#00A0FF"/>
<stop offset="0.00657445" stop-color="#00A1FF"/>
<stop offset="0.2601" stop-color="#00BEFF"/>
<stop offset="0.5122" stop-color="#00D2FF"/>
<stop offset="0.7604" stop-color="#00DFFF"/>
<stop offset="1" stop-color="#00E3FF"/>
</linearGradient>
<linearGradient id="paint1_linear_56_611" x1="41.9456" y1="25.4712" x2="12.3715" y2="25.4712" gradientUnits="userSpaceOnUse">
<stop stop-color="#FFE000"/>
<stop offset="0.4087" stop-color="#FFBD00"/>
<stop offset="0.7754" stop-color="#FFA500"/>
<stop offset="1" stop-color="#FF9C00"/>
</linearGradient>
<linearGradient id="paint2_linear_56_611" x1="30.9328" y1="28.2751" x2="3.11725" y2="56.0907" gradientUnits="userSpaceOnUse">
<stop stop-color="#FF3A44"/>
<stop offset="1" stop-color="#C31162"/>
</linearGradient>
<linearGradient id="paint3_linear_56_611" x1="9.50783" y1="1.24091" x2="21.9286" y2="13.6617" gradientUnits="userSpaceOnUse">
<stop stop-color="#32A071"/>
<stop offset="0.0685" stop-color="#2DA771"/>
<stop offset="0.4762" stop-color="#15CF74"/>
<stop offset="0.8009" stop-color="#06E775"/>
<stop offset="1" stop-color="#00F076"/>
</linearGradient>
<clipPath id="clip0_56_611">
<rect width="165" height="49.5" fill="white" transform="translate(0.585938 0.71875)"/>
</clipPath>
</defs>
</svg>
