<svg width="166" height="51" viewBox="0 0 166 51" fill="none" xmlns="http://www.w3.org/2000/svg">
<g clip-path="url(#clip0_56_634)">
<path d="M165.586 45.2687C165.586 48.0611 163.428 50.2188 160.89 50.2188H5.28209C2.74363 50.2188 0.585938 48.0611 0.585938 45.2687V5.66875C0.585938 3.00337 2.74363 0.71875 5.28209 0.71875H160.763C163.428 0.71875 165.459 3.00337 165.459 5.66875L165.586 45.2687Z" fill="black"/>
<path d="M36.7582 25.2158C36.7582 21.2812 40.0582 19.2504 40.1851 19.2504C38.2812 16.4581 35.362 16.2043 34.3466 16.0773C31.9351 15.8235 29.5236 17.4735 28.2543 17.4735C26.9851 17.4735 25.0812 16.0773 23.0505 16.0773C20.3851 16.0773 17.9736 17.6004 16.5774 20.0119C13.7851 24.835 15.8159 32.0696 18.6082 36.0043C20.0043 37.9081 21.5274 40.0658 23.5582 40.0658C25.5889 39.9389 26.3505 38.7966 28.762 38.7966C31.1736 38.7966 31.9351 40.0658 33.9659 40.0658C36.1236 40.0658 37.5197 38.1619 38.7889 36.1312C40.312 33.9735 40.9466 31.6889 40.9466 31.6889C40.9466 31.5619 36.8851 30.0389 36.7582 25.2158Z" fill="white"/>
<path d="M32.8259 13.4129C33.9682 12.0167 34.6028 10.2398 34.4759 8.33594C32.9528 8.46286 30.9221 9.47825 29.7798 10.7475C28.7644 11.8898 27.8759 13.7936 28.1298 15.5706C29.9067 15.8244 31.6836 14.809 32.8259 13.4129Z" fill="white"/>
<path d="M65.9537 39.6836H63.1614L61.6383 34.8605H56.3076L54.7845 39.6836H51.9922L57.323 23.1836H60.623L65.9537 39.6836ZM61.1306 32.8297L59.7345 28.5144C59.6076 28.1336 59.3537 26.9913 58.846 25.4682C58.7191 26.2297 58.4653 27.2451 58.0845 28.5144L56.6883 32.8297H61.1306Z" fill="white"/>
<path d="M79.6594 33.5904C79.6594 35.6212 79.1517 37.2712 78.0094 38.4135C76.994 39.4288 75.8517 39.9365 74.3286 39.9365C72.8055 39.9365 71.6632 39.4288 70.9017 38.2865V44.5058H68.2363V31.8135C68.2363 30.5442 68.2363 29.275 68.1094 27.8788H70.394L70.5209 29.7827C71.4094 28.3865 72.6786 27.625 74.5825 27.625C75.9786 27.625 77.1209 28.1327 78.1363 29.275C79.1517 30.4173 79.6594 31.8135 79.6594 33.5904ZM76.8671 33.7173C76.8671 32.575 76.6132 31.5596 76.1055 30.7981C75.4709 30.0365 74.7094 29.6558 73.8209 29.6558C73.1863 29.6558 72.5517 29.9096 72.044 30.2904C71.5363 30.6712 71.1555 31.3058 71.0286 31.9404C70.9017 32.3212 70.9017 32.575 70.9017 32.7019V34.7327C70.9017 35.6212 71.1555 36.3827 71.6632 36.8904C72.1709 37.525 72.9324 37.7788 73.694 37.7788C74.7094 37.7788 75.4709 37.3981 75.9786 36.6365C76.6132 36.0019 76.8671 34.9865 76.8671 33.7173Z" fill="white"/>
<path d="M93.2434 33.5904C93.2434 35.6212 92.7357 37.2712 91.5934 38.4135C90.7049 39.4288 89.4357 40.0635 88.0395 40.0635C86.5165 40.0635 85.3742 39.5558 84.6126 38.4135V44.6327H81.9472V31.8135C81.9472 30.5442 81.9472 29.275 81.8203 27.8788H84.1049L84.2319 29.7827C85.1203 28.3865 86.3895 27.625 88.2934 27.625C89.6895 27.625 90.8319 28.1327 91.8472 29.275C92.8626 30.4173 93.2434 31.8135 93.2434 33.5904ZM90.578 33.7173C90.578 32.575 90.3242 31.5596 89.8165 30.7981C89.3088 30.0365 88.4203 29.6558 87.5319 29.6558C86.8972 29.6558 86.2626 29.9096 85.7549 30.2904C85.2472 30.6712 84.8665 31.3058 84.7395 31.9404C84.6126 32.3212 84.6126 32.575 84.6126 32.7019V34.7327C84.6126 35.6212 84.8665 36.3827 85.3742 36.8904C85.8819 37.525 86.6434 37.7788 87.4049 37.7788C88.4203 37.7788 89.1818 37.3981 89.6895 36.6365C90.3242 36.0019 90.578 34.9865 90.578 33.7173Z" fill="white"/>
<path d="M108.601 35.1144C108.601 36.5105 108.093 37.6528 107.078 38.5413C106.063 39.5567 104.54 39.9374 102.636 39.9374C100.859 39.9374 99.4626 39.5567 98.3203 38.9221L98.9549 36.7644C100.097 37.399 101.366 37.7797 102.763 37.7797C103.778 37.7797 104.54 37.5259 105.047 37.1451C105.555 36.6374 105.936 36.1297 105.936 35.3682C105.936 34.7336 105.682 34.099 105.301 33.7182C104.793 33.2105 104.032 32.8297 103.016 32.449C100.097 31.4336 98.7011 29.7836 98.7011 27.7528C98.7011 26.3567 99.2088 25.3413 100.224 24.4528C101.24 23.5644 102.636 23.1836 104.286 23.1836C105.809 23.1836 107.078 23.4374 107.966 23.9451L107.332 26.1028C106.443 25.5951 105.301 25.3413 104.159 25.3413C103.27 25.3413 102.509 25.5951 102.001 25.9759C101.62 26.3567 101.366 26.8644 101.366 27.499C101.366 28.1336 101.62 28.6413 102.128 29.149C102.509 29.5297 103.397 29.9105 104.54 30.4182C105.936 31.0528 106.951 31.6874 107.713 32.449C108.22 32.9567 108.601 33.9721 108.601 35.1144Z" fill="white"/>
<path d="M117.352 29.7859H114.433V35.6244C114.433 37.1475 114.94 37.7821 115.956 37.7821C116.463 37.7821 116.844 37.7821 117.098 37.6552L117.225 39.6859C116.717 39.9398 115.956 39.9398 115.194 39.9398C114.179 39.9398 113.29 39.559 112.783 38.9244C112.148 38.2898 111.894 37.2744 111.894 35.7513V29.7859H110.117V27.7552H111.894V25.5975L114.433 24.8359V27.7552H117.352V29.7859Z" fill="white"/>
<path d="M130.425 33.7172C130.425 35.4942 129.917 37.0172 128.902 38.1596C127.76 39.4288 126.363 39.9365 124.587 39.9365C122.81 39.9365 121.413 39.3019 120.398 38.1596C119.383 37.0172 118.875 35.4942 118.875 33.7172C118.875 31.8134 119.383 30.4172 120.525 29.148C121.54 28.0057 123.063 27.3711 124.84 27.3711C126.617 27.3711 128.013 28.0057 129.029 29.148C129.917 30.4172 130.425 31.9403 130.425 33.7172ZM127.76 33.7172C127.76 32.5749 127.506 31.6865 126.998 30.9249C126.49 30.0365 125.602 29.5288 124.587 29.5288C123.571 29.5288 122.683 30.0365 122.175 30.9249C121.667 31.6865 121.413 32.7019 121.413 33.7172C121.413 34.8596 121.667 35.748 122.175 36.5096C122.81 37.398 123.571 37.9057 124.587 37.9057C125.602 37.9057 126.363 37.398 126.998 36.5096C127.506 35.748 127.76 34.8596 127.76 33.7172Z" fill="white"/>
<path d="M139.059 30.1635C138.805 30.1635 138.551 30.0365 138.171 30.0365C137.282 30.0365 136.521 30.4173 136.013 31.0519C135.632 31.6865 135.378 32.4481 135.378 33.4635V39.6827H132.713V31.5596C132.713 30.1635 132.713 28.8942 132.586 27.8788H134.871L134.997 30.1635H135.124C135.378 29.4019 135.886 28.7673 136.394 28.2596C137.028 27.8788 137.663 27.625 138.297 27.625C138.551 27.625 138.805 27.625 138.932 27.625L139.059 30.1635Z" fill="white"/>
<path d="M150.863 33.2096C150.863 33.7173 150.863 34.0981 150.736 34.3519H142.867C142.867 35.4942 143.247 36.3827 144.009 37.0173C144.644 37.525 145.532 37.9058 146.547 37.9058C147.69 37.9058 148.832 37.7788 149.72 37.3981L150.101 39.175C148.959 39.6827 147.69 39.9365 146.167 39.9365C144.263 39.9365 142.867 39.4288 141.851 38.2865C140.836 37.1442 140.328 35.7481 140.328 33.9712C140.328 32.1942 140.836 30.6712 141.851 29.5288C142.867 28.2596 144.263 27.625 146.04 27.625C147.817 27.625 149.086 28.2596 149.974 29.5288C150.482 30.5442 150.863 31.6865 150.863 33.2096ZM148.324 32.575C148.324 31.8135 148.197 31.1788 147.817 30.5442C147.309 29.7827 146.674 29.4019 145.659 29.4019C144.77 29.4019 144.136 29.7827 143.501 30.4173C143.12 31.0519 142.74 31.6865 142.74 32.4481H148.324V32.575Z" fill="white"/>
<path d="M59.8617 17.3457H58.4655L57.704 14.9342H55.1655L54.404 17.3457H53.0078L55.6732 9.22266H57.3232L59.8617 17.3457ZM57.577 13.9188L56.9424 11.7611C56.8155 11.5073 56.6886 10.9996 56.5617 10.238C56.4347 10.6188 56.3078 11.1265 56.1809 11.7611L55.5463 13.9188H57.577Z" fill="white"/>
<path d="M66.4596 11.5078L64.3019 17.3463H63.0327L60.875 11.5078H62.2712L63.2865 14.554C63.4135 15.0617 63.5404 15.5694 63.6673 16.077C63.7942 15.6963 63.9212 15.1886 64.0481 14.554L65.0635 11.5078H66.4596Z" fill="white"/>
<path d="M72.2996 17.3462H71.1573L71.0304 16.7116C70.6496 17.2193 70.015 17.4731 69.3804 17.4731C68.8727 17.4731 68.365 17.3462 67.9843 16.9654C67.7304 16.5847 67.4766 16.2039 67.4766 15.8231C67.4766 15.0616 67.7304 14.5539 68.365 14.1731C68.9996 13.7924 69.7612 13.6654 70.9035 13.6654V13.4116C70.9035 12.6501 70.5227 12.2693 69.6343 12.2693C68.9996 12.2693 68.4919 12.3962 68.1112 12.6501L67.8573 11.7616C68.365 11.3808 69.1266 11.2539 69.8881 11.2539C71.4112 11.2539 72.1727 12.0154 72.1727 13.6654V15.9501C72.1727 16.5847 72.2996 16.9654 72.2996 17.3462ZM70.9035 15.3154V14.427C69.5073 14.427 68.7458 14.8078 68.7458 15.5693C68.7458 15.8231 68.8727 16.077 68.9996 16.2039C69.1266 16.3308 69.3804 16.4578 69.6343 16.4578C69.8881 16.4578 70.1419 16.3308 70.3958 16.2039C70.6496 16.077 70.7766 15.8231 70.9035 15.5693V15.3154Z" fill="white"/>
<path d="M75.9781 9.73029C75.9781 9.98413 75.8512 10.1111 75.7243 10.238C75.5974 10.3649 75.3435 10.4918 75.0897 10.4918C74.8358 10.4918 74.7089 10.3649 74.582 10.238C74.455 10.1111 74.3281 9.85721 74.3281 9.73029C74.3281 9.47644 74.455 9.34952 74.582 9.2226C74.7089 9.09567 74.9627 8.96875 75.0897 8.96875C75.3435 8.96875 75.4704 9.09567 75.5974 9.2226C75.8512 9.34952 75.9781 9.47644 75.9781 9.73029ZM75.7243 17.3457H74.4551V11.5072H75.7243V17.3457Z" fill="white"/>
<path d="M79.402 8.84375H78.1328V17.3476H79.402V8.84375Z" fill="white"/>
<path d="M86.1297 17.3462H84.9874L84.8605 16.7116C84.3528 17.2193 83.8451 17.4731 83.0835 17.4731C82.5758 17.4731 82.0682 17.3462 81.6874 16.9654C81.4335 16.5847 81.1797 16.2039 81.1797 15.8231C81.1797 15.0616 81.4335 14.5539 82.0681 14.1731C82.7028 13.7924 83.4643 13.6654 84.6066 13.6654V13.4116C84.6066 12.6501 84.2258 12.2693 83.3374 12.2693C82.7028 12.2693 82.1951 12.3962 81.8143 12.6501L81.5605 11.7616C82.0681 11.3808 82.8297 11.2539 83.5912 11.2539C85.1143 11.2539 85.8758 12.0154 85.8758 13.6654V15.9501C86.0028 16.5847 86.0028 16.9654 86.1297 17.3462ZM84.7335 15.3154V14.427C83.3374 14.427 82.5758 14.8078 82.5758 15.5693C82.5758 15.8231 82.7028 16.077 82.8297 16.2039C82.9566 16.3308 83.2105 16.4578 83.4643 16.4578C83.7182 16.4578 83.972 16.3308 84.2258 16.2039C84.4797 16.077 84.6066 15.8231 84.7335 15.5693V15.3154Z" fill="white"/>
<path d="M93.8756 14.3014C93.8756 15.3168 93.6218 16.0784 93.1141 16.713C92.6064 17.2207 92.0987 17.4745 91.3371 17.4745C90.4487 17.4745 89.941 17.0937 89.5602 16.4591L89.4333 17.3476H88.1641C88.1641 16.8399 88.1641 16.3322 88.1641 15.8245V8.84375H89.4333V12.3976C89.8141 11.763 90.4487 11.3822 91.3371 11.3822C92.0987 11.3822 92.6064 11.6361 93.1141 12.1437C93.6218 12.7784 93.8756 13.413 93.8756 14.3014ZM92.4794 14.4284C92.4794 13.9207 92.3525 13.413 92.0987 13.0322C91.8448 12.6514 91.4641 12.3976 90.9564 12.3976C90.5756 12.3976 90.3218 12.5245 90.0679 12.6514C89.8141 12.9053 89.6871 13.1591 89.5602 13.5399C89.5602 13.6668 89.5602 13.7937 89.5602 13.9207V14.9361C89.5602 15.3168 89.6871 15.6976 89.941 15.9514C90.1948 16.2053 90.5756 16.3322 90.9564 16.3322C91.4641 16.3322 91.8448 16.2053 92.0987 15.8245C92.3525 15.5707 92.4794 15.063 92.4794 14.4284Z" fill="white"/>
<path d="M97.0505 8.84375H95.7812V17.3476H97.0505V8.84375Z" fill="white"/>
<path d="M104.157 14.1732C104.157 14.427 104.157 14.554 104.157 14.8078H100.222C100.222 15.4424 100.476 15.8232 100.73 16.077C101.111 16.3309 101.492 16.4578 101.999 16.4578C102.634 16.4578 103.142 16.3309 103.522 16.204L103.776 17.0924C103.269 17.3463 102.634 17.4732 101.872 17.4732C100.984 17.4732 100.222 17.2194 99.7147 16.7117C99.207 16.204 98.9531 15.4424 98.9531 14.554C98.9531 13.6655 99.207 12.904 99.7147 12.3963C100.222 11.7617 100.857 11.5078 101.745 11.5078C102.634 11.5078 103.269 11.7617 103.649 12.3963C104.03 12.777 104.157 13.4117 104.157 14.1732ZM102.888 13.7924C102.888 13.4117 102.761 13.0309 102.634 12.777C102.38 12.3963 102.126 12.2694 101.619 12.2694C101.238 12.2694 100.857 12.3963 100.603 12.777C100.349 13.0309 100.222 13.4117 100.222 13.7924H102.888Z" fill="white"/>
<path d="M114.946 14.427C114.946 15.3154 114.692 16.077 114.184 16.5847C113.677 17.2193 112.915 17.4731 112.027 17.4731C111.138 17.4731 110.504 17.2193 109.996 16.5847C109.488 16.077 109.234 15.3154 109.234 14.427C109.234 13.5385 109.488 12.777 109.996 12.1424C110.504 11.5078 111.265 11.2539 112.154 11.2539C113.042 11.2539 113.677 11.5078 114.184 12.1424C114.692 12.777 114.946 13.5385 114.946 14.427ZM113.55 14.427C113.55 13.9193 113.423 13.4116 113.169 13.0308C112.915 12.5231 112.534 12.3962 112.027 12.3962C111.519 12.3962 111.138 12.6501 110.884 13.0308C110.631 13.4116 110.504 13.9193 110.504 14.427C110.504 14.9347 110.631 15.4424 110.884 15.8231C111.138 16.3308 111.519 16.4578 112.027 16.4578C112.534 16.4578 112.915 16.2039 113.169 15.6962C113.423 15.4424 113.55 14.9347 113.55 14.427Z" fill="white"/>
<path d="M121.927 17.3443H120.657V14.0443C120.657 13.0289 120.277 12.5212 119.515 12.5212C119.134 12.5212 118.88 12.6481 118.627 12.902C118.373 13.1558 118.246 13.5366 118.246 13.9174V17.3443H116.977V13.1558C116.977 12.6481 116.977 12.1404 116.977 11.5058H118.119V12.3943C118.246 12.1404 118.5 11.8866 118.753 11.7597C119.134 11.5058 119.515 11.3789 119.896 11.3789C120.403 11.3789 120.911 11.5058 121.292 11.8866C121.8 12.2674 121.927 12.902 121.927 13.7904V17.3443Z" fill="white"/>
<path d="M130.427 12.5228H129.031V15.3151C129.031 16.0767 129.285 16.4575 129.792 16.4575C130.046 16.4575 130.173 16.4575 130.427 16.4575V17.4728C130.173 17.5998 129.792 17.5998 129.412 17.5998C128.904 17.5998 128.523 17.4728 128.269 17.0921C128.015 16.8382 127.888 16.2036 127.888 15.569V12.5228H127V11.5075H127.888V10.3651L129.158 9.98438V11.3805H130.554V12.5228H130.427Z" fill="white"/>
<path d="M137.286 17.3476H136.017V14.0476C136.017 13.0322 135.636 12.5245 134.874 12.5245C134.24 12.5245 133.859 12.7784 133.605 13.413C133.605 13.5399 133.605 13.6668 133.605 13.9207V17.4745H132.336V8.84375H133.605V12.3976C133.986 11.763 134.621 11.5091 135.382 11.5091C135.89 11.5091 136.397 11.6361 136.778 12.0168C137.159 12.3976 137.413 13.1591 137.413 13.9207V17.3476H137.286Z" fill="white"/>
<path d="M144.009 14.1732C144.009 14.427 144.009 14.554 144.009 14.8078H140.074C140.074 15.4424 140.328 15.8232 140.582 16.077C140.962 16.3309 141.343 16.4578 141.851 16.4578C142.485 16.4578 142.993 16.3309 143.374 16.204L143.628 17.0924C143.12 17.3463 142.359 17.4732 141.724 17.4732C140.835 17.4732 140.074 17.2194 139.566 16.7117C139.059 16.204 138.805 15.4424 138.805 14.554C138.805 13.6655 139.059 12.904 139.566 12.3963C140.074 11.7617 140.709 11.5078 141.597 11.5078C142.485 11.5078 143.12 11.7617 143.501 12.3963C143.755 12.777 144.009 13.4117 144.009 14.1732ZM142.739 13.7924C142.739 13.4117 142.612 13.0309 142.485 12.777C142.232 12.3963 141.978 12.2694 141.47 12.2694C141.089 12.2694 140.709 12.3963 140.455 12.777C140.201 13.0309 140.074 13.4117 140.074 13.7924H142.739Z" fill="white"/>
</g>
<defs>
<clipPath id="clip0_56_634">
<rect width="165" height="49.5" fill="white" transform="translate(0.585938 0.71875)"/>
</clipPath>
</defs>
</svg>
