<svg width="166" height="51" viewBox="0 0 166 51" fill="none" xmlns="http://www.w3.org/2000/svg">
    <path
        d="M152.214 1.32422H12.6495L11.5549 1.36331C10.7535 1.3736 9.95412 1.44548 9.16377 1.57832C8.37854 1.70271 7.61644 1.9443 6.90296 2.295C6.18114 2.65784 5.52142 3.13284 4.94837 3.7023C4.37676 4.27353 3.9015 4.93362 3.54106 5.65689C3.19094 6.35686 2.94928 7.10599 2.82438 7.87861C2.69084 8.66668 2.61895 9.46396 2.60938 10.2632C2.60937 10.6281 2.60938 10.9929 2.60938 11.3578V39.556C2.60938 39.9274 2.60938 40.2857 2.60938 40.6571C2.61823 41.4629 2.69012 42.2667 2.82438 43.0612C2.95451 43.8506 3.205 44.6152 3.56712 45.3286C3.92706 46.0521 4.40238 46.7123 4.97443 47.2832C5.54424 47.8547 6.20469 48.328 6.92902 48.6839C7.64166 49.0449 8.40335 49.2996 9.18983 49.4397C9.98073 49.5673 10.7799 49.637 11.5809 49.6482H12.6755H153.536H154.631C155.43 49.6378 156.227 49.5681 157.015 49.4397C157.806 49.2996 158.572 49.045 159.289 48.6839C160.723 47.9515 161.89 46.7868 162.625 45.3546C162.979 44.6315 163.219 43.8579 163.335 43.0612C163.471 42.2733 163.545 41.476 163.557 40.6766C163.557 40.3053 163.557 39.9469 163.557 39.5756C163.557 39.2042 163.557 38.7155 163.557 38.2725V12.6869C163.557 12.2504 163.557 11.8204 163.557 11.3838C163.557 10.9473 163.557 10.6541 163.557 10.2893C163.546 9.48115 163.472 8.6751 163.335 7.87861C163.084 6.28627 162.333 4.81487 161.192 3.67624C160.616 3.1098 159.957 2.63516 159.237 2.26894C158.521 1.90917 157.754 1.65881 156.963 1.52619C156.183 1.41117 155.394 1.35671 154.605 1.36331H153.51L152.214 1.32422Z"
        fill="black" />
    <path
        d="M12.6591 48.5724H11.5841C10.8374 48.5646 10.0925 48.4992 9.35584 48.3769C8.67561 48.2579 8.01688 48.0383 7.40125 47.7254C6.15425 47.0914 5.13782 46.0818 4.49543 44.8391C4.18431 44.2228 3.96482 43.5643 3.8439 42.8845C3.72186 42.1457 3.65652 41.3986 3.64844 40.6498C3.64844 40.3957 3.64844 39.5617 3.64844 39.5617V11.3831C3.64844 11.3831 3.64844 10.5621 3.64844 10.3211C3.65598 9.57222 3.72133 8.82509 3.8439 8.08631C3.96154 7.40572 4.18119 6.74678 4.49543 6.13172C4.80494 5.50709 5.21427 4.93712 5.70727 4.44426C6.1969 3.95147 6.76218 3.54015 7.38171 3.2259C7.99669 2.91148 8.65566 2.69182 9.3363 2.57437C10.0751 2.45233 10.8222 2.38699 11.571 2.37891H12.6461H153.507H154.595C155.337 2.38732 156.078 2.45266 156.81 2.57437C157.501 2.69049 158.171 2.91013 158.797 3.2259C160.036 3.86284 161.043 4.87237 161.677 6.11217C161.99 6.72758 162.21 7.38639 162.329 8.06676C162.452 8.81227 162.521 9.56562 162.537 10.3211V11.3765C162.537 11.8261 162.537 12.2496 162.537 12.6796V38.2522C162.537 38.6822 162.537 39.1057 162.537 39.5552V40.6628C162.521 41.4031 162.451 42.1412 162.329 42.8715C162.21 43.5517 161.99 44.2105 161.677 44.8261C161.361 45.4367 160.952 45.9949 160.465 46.481C159.977 46.972 159.414 47.3832 158.797 47.6993C158.171 48.015 157.501 48.2347 156.81 48.3509C156.074 48.4732 155.329 48.5385 154.582 48.5463H153.513H12.6591V48.5724Z"
        fill="black" />
    <path
        d="M62.2987 33.9374H56.7151L55.3469 37.6706H52.8906L58.357 23.7148H60.6829L66.2796 37.6706H63.6734L62.2987 33.9374ZM57.4188 32.0349H61.5886L60.0965 28.0736C59.8881 27.5198 59.6861 26.9073 59.4841 26.2428C59.3082 26.8357 59.1127 27.4351 58.8977 28.054L57.4188 32.0349Z"
        fill="white" />
    <path
        d="M67.3907 29.8462C67.3907 29.0774 67.3646 28.2304 67.3125 27.3052H69.5472C69.6319 27.7356 69.6907 28.1708 69.7232 28.6082C70.114 28.1426 70.6013 27.7674 71.1514 27.5086C71.7015 27.2499 72.3012 27.1138 72.9091 27.1097C73.6227 27.0997 74.3231 27.3018 74.9216 27.6904C75.5201 28.079 75.9898 28.6365 76.271 29.2924C76.661 30.2008 76.8457 31.1841 76.8118 32.1721C76.8297 33.2437 76.6071 34.3057 76.1603 35.2799C75.788 36.0902 75.1823 36.7708 74.4207 37.2345C73.6289 37.6883 72.7268 37.9138 71.8146 37.886C71.1021 37.8867 70.3948 37.7655 69.7232 37.5277V41.8278L67.3451 42.0298L67.3907 29.8462ZM73.6454 35.1626C74.1845 34.3102 74.44 33.309 74.3751 32.3024C74.4467 31.4168 74.2345 30.5314 73.7692 29.7745C73.5858 29.5236 73.344 29.3212 73.0647 29.1849C72.7854 29.0487 72.477 28.9827 72.1664 28.9927C71.7108 28.9834 71.261 29.0958 70.8633 29.3184C70.4483 29.5517 70.0724 29.8484 69.7492 30.198V35.762C70.0123 35.8881 70.2903 35.9801 70.5767 36.0357C70.885 36.1025 71.1994 36.1375 71.5149 36.1399C71.9232 36.1663 72.3316 36.0908 72.7035 35.9202C73.0753 35.7496 73.399 35.4893 73.6454 35.1626Z"
        fill="white" />
    <path
        d="M78.3204 29.8462C78.3204 29.0774 78.2943 28.2304 78.2422 27.3053H80.4769C80.5616 27.7357 80.6204 28.1708 80.6528 28.6083C81.0416 28.1406 81.5272 27.7627 82.0761 27.5006C82.625 27.2385 83.2241 27.0985 83.8323 27.0903C84.5204 27.08 85.1975 27.2628 85.7869 27.618C86.4196 28.0137 86.9189 28.5902 87.2203 29.2729C87.6102 30.1813 87.7949 31.1646 87.761 32.1526C87.7892 33.2218 87.5777 34.2837 87.1421 35.2604C86.7699 36.0707 86.1641 36.7513 85.4025 37.215C84.6107 37.6688 83.7086 37.8944 82.7964 37.8666C82.084 37.8667 81.3767 37.7455 80.705 37.5082V41.8083L78.3269 42.0103L78.3204 29.8462ZM84.5751 35.1627C85.1103 34.3093 85.3591 33.3072 85.2852 32.3025C85.3569 31.4169 85.1446 30.5315 84.6793 29.7746C84.496 29.5236 84.2541 29.3212 83.9748 29.185C83.6955 29.0487 83.3872 28.9827 83.0765 28.9927C82.6208 28.9821 82.1706 29.0947 81.7735 29.3185C81.381 29.5565 81.0273 29.8531 80.7245 30.198V35.7621C80.9876 35.8882 81.2656 35.9801 81.552 36.0358C81.8603 36.1026 82.1747 36.1375 82.4902 36.14C82.891 36.1593 83.2905 36.0803 83.6539 35.91C84.0172 35.7397 84.3335 35.4831 84.5751 35.1627Z"
        fill="white" />
    <path
        d="M92.2183 37.0384C91.1986 36.4799 90.3718 35.6259 89.8467 34.5886C89.2735 33.4223 88.9897 32.1351 89.0192 30.8358C88.9769 29.443 89.3075 28.0641 89.977 26.842C90.5805 25.7777 91.4879 24.9179 92.5831 24.3727C93.7309 23.8135 94.9942 23.5323 96.2708 23.5517C97.0433 23.5463 97.8136 23.636 98.5642 23.8189C99.2679 23.9859 99.9516 24.2284 100.603 24.5421L99.9975 26.3728C98.8694 25.8008 97.6266 25.4913 96.362 25.4672C95.4705 25.4581 94.5921 25.6827 93.8145 26.1188C93.0757 26.5431 92.4828 27.1815 92.114 27.9496C91.6873 28.8573 91.4797 29.8527 91.5081 30.8554C91.4934 31.7606 91.6504 32.6603 91.9707 33.5071C92.2639 34.2548 92.7803 34.8941 93.4496 35.3379C94.2104 35.8034 95.0932 36.0304 95.9841 35.9894C96.4492 35.9892 96.9134 35.95 97.3719 35.8722C97.8159 35.8004 98.2522 35.6869 98.6749 35.5334V32.7057H95.4173V30.8619H100.955V36.7257C100.152 37.1003 99.3111 37.3886 98.4469 37.5857C97.5918 37.7809 96.7178 37.8814 95.8408 37.8854C94.581 37.9146 93.3345 37.6232 92.2183 37.0384Z"
        fill="white" />
    <path
        d="M109.552 37.6988C109.462 37.2455 109.408 36.7858 109.389 36.3241C108.993 36.786 108.508 37.1628 107.962 37.4317C107.345 37.7456 106.661 37.9043 105.968 37.8943C105.406 37.9014 104.849 37.7812 104.339 37.5424C103.85 37.3146 103.442 36.9445 103.167 36.4804C102.866 35.956 102.717 35.3582 102.737 34.7539C102.719 34.2943 102.807 33.8367 102.996 33.4172C103.185 32.9978 103.469 32.6279 103.825 32.3367C104.546 31.7373 105.755 31.4376 107.454 31.4376C108.086 31.4373 108.718 31.483 109.343 31.5744V31.3724C109.382 31.024 109.35 30.6712 109.249 30.3354C109.149 29.9995 108.981 29.6875 108.757 29.4179C108.29 29.0151 107.684 28.8116 107.069 28.851C106.519 28.8579 105.972 28.9346 105.441 29.0791C104.916 29.2032 104.405 29.38 103.916 29.6068L103.525 27.8868C104.065 27.6552 104.625 27.4763 105.199 27.3525C105.92 27.1908 106.657 27.11 107.395 27.1114C108.18 27.0904 108.96 27.2301 109.689 27.5219C110.328 27.8061 110.848 28.3036 111.161 28.9292C111.55 29.7686 111.731 30.6893 111.689 31.6135V35.7442C111.689 36.1786 111.715 36.8301 111.767 37.6988H109.552ZM108.125 35.7442C108.587 35.5342 109.001 35.2328 109.343 34.8581V32.9035C108.816 32.8406 108.285 32.8058 107.753 32.7993C107.04 32.7291 106.323 32.8963 105.714 33.2749C105.527 33.4346 105.379 33.6351 105.282 33.8611C105.185 34.0871 105.141 34.3323 105.154 34.578C105.137 34.7858 105.164 34.9948 105.234 35.1912C105.304 35.3877 105.414 35.5673 105.558 35.7182C105.869 35.979 106.267 36.1118 106.672 36.0895C107.174 36.0966 107.672 35.9873 108.125 35.7703V35.7442Z"
        fill="white" />
    <path
        d="M113.797 35.2047V22.9233L116.168 22.7344V34.7812C116.137 35.1097 116.215 35.4394 116.39 35.7194C116.481 35.8162 116.593 35.8911 116.717 35.9384C116.841 35.9858 116.974 36.0045 117.107 35.993C117.327 35.9856 117.546 35.9506 117.758 35.8888L118.032 37.5958C117.767 37.6985 117.492 37.7706 117.211 37.8108C116.907 37.8631 116.6 37.8914 116.292 37.8955C114.633 37.8955 113.801 36.9985 113.797 35.2047Z"
        fill="white" />
    <path
        d="M119.719 35.2047V22.9233L122.09 22.7344V34.7812C122.058 35.1107 122.138 35.4416 122.318 35.7194C122.409 35.8169 122.52 35.8924 122.645 35.9398C122.769 35.9873 122.903 36.0055 123.035 35.993C123.256 35.9855 123.475 35.9504 123.687 35.8888L123.967 37.5958C123.7 37.6975 123.422 37.7696 123.139 37.8108C122.836 37.8631 122.529 37.8914 122.221 37.8955C120.557 37.8955 119.723 36.9985 119.719 35.2047Z"
        fill="white" />
    <path
        d="M133.801 32.805H126.98C127.088 34.9767 128.124 36.0626 130.088 36.0626C130.592 36.0609 131.095 36.0019 131.586 35.8867C132.09 35.7705 132.582 35.6114 133.059 35.4111L133.573 37.0399C132.352 37.6158 131.015 37.9055 129.664 37.8869C128.692 37.9108 127.73 37.6865 126.869 37.2354C126.123 36.8294 125.526 36.1976 125.162 35.4306C124.756 34.5423 124.56 33.5726 124.589 32.5965C124.562 31.5751 124.769 30.5611 125.195 29.632C125.559 28.8479 126.145 28.1885 126.882 27.7361C127.64 27.2917 128.506 27.0662 129.384 27.0845C130.257 27.0545 131.117 27.2958 131.847 27.7751C132.503 28.2308 133.011 28.8699 133.306 29.6125C133.634 30.4167 133.798 31.2784 133.788 32.1469L133.801 32.805ZM131.475 31.2934C131.476 30.6163 131.247 29.959 130.824 29.43C130.636 29.223 130.405 29.0601 130.147 28.9531C129.889 28.8461 129.611 28.7976 129.332 28.8111C129.049 28.8067 128.769 28.8626 128.509 28.9749C128.25 29.0873 128.017 29.2535 127.827 29.4626C127.377 29.9844 127.102 30.6336 127.038 31.3195L131.475 31.2934Z"
        fill="white" />
    <path
        d="M135.719 29.9206C135.719 29.3473 135.719 28.4742 135.641 27.3145H137.862C137.901 27.6012 137.941 27.966 137.973 28.3504C138.006 28.7348 138.038 29.0802 138.051 29.3277C138.291 28.9233 138.561 28.5377 138.859 28.1745C139.125 27.8711 139.443 27.6174 139.797 27.4253C140.17 27.2204 140.59 27.1171 141.016 27.1256C141.335 27.1197 141.653 27.1592 141.96 27.2428L141.661 29.3082C141.411 29.2331 141.152 29.1957 140.892 29.1974C140.371 29.1857 139.858 29.336 139.426 29.6274C138.895 30.0148 138.433 30.4883 138.058 31.0282V37.6999H135.693L135.719 29.9206Z"
        fill="white" />
    <path
        d="M143.391 41.9511C143.1 41.9014 142.813 41.8318 142.531 41.7426L142.968 40.0095C143.124 40.0551 143.326 40.0942 143.574 40.1398C143.802 40.1797 144.033 40.2015 144.264 40.205C145.32 40.205 146.108 39.5535 146.636 38.1722L146.792 37.7813L142.955 27.3047H145.509L147.463 33.1685C147.712 33.922 147.914 34.6901 148.069 35.4684C148.245 34.7191 148.46 33.9698 148.721 33.2141L150.675 27.3112H153.047L149.209 37.8464C148.921 38.6927 148.529 39.5001 148.043 40.2506C147.672 40.8213 147.164 41.2896 146.564 41.6123C145.923 41.9226 145.217 42.0745 144.505 42.0553C144.132 42.052 143.759 42.0171 143.391 41.9511Z"
        fill="white" />
    <path
        d="M52.875 10.1641H57.1621L57.0448 11.2H54.1325V13.2067H56.8754V14.1775H54.1325V16.4057H57.2012L57.0969 17.4482H52.875V10.1641Z"
        fill="white" />
    <path
        d="M60.1216 13.7423L57.8608 10.1719H59.2877L60.8253 12.778L62.4346 10.1719H63.8288L61.5811 13.6967L64.0113 17.456H62.5649L60.8318 14.5892L59.0596 17.456H57.6719L60.1216 13.7423Z"
        fill="white" />
    <path
        d="M64.9375 10.1638H66.8921C67.6411 10.1139 68.3856 10.3132 69.0096 10.7306C69.253 10.924 69.4467 11.1727 69.5748 11.4559C69.7028 11.7392 69.7615 12.049 69.7458 12.3594C69.7552 12.8027 69.6425 13.2399 69.42 13.6234C69.2003 13.9822 68.8811 14.2697 68.5014 14.4509C68.0785 14.6523 67.6145 14.7526 67.1462 14.744C66.8243 14.7407 66.5035 14.7058 66.1884 14.6398V17.4479H64.9375V10.1638ZM68.0909 13.4214C68.2296 13.29 68.3377 13.1296 68.4075 12.9517C68.4773 12.7738 68.5071 12.5827 68.4949 12.392C68.5107 12.209 68.4816 12.0249 68.4101 11.8557C68.3385 11.6865 68.2267 11.5374 68.0844 11.4212C67.7223 11.2019 67.3014 11.0995 66.8791 11.128H66.2275V13.7342C66.4668 13.7734 66.7084 13.7973 66.9507 13.8058C67.3662 13.8222 67.7729 13.6828 68.0909 13.4149V13.4214Z"
        fill="white" />
    <path d="M71 10.1641H72.2575V16.3471H75.2675L75.1633 17.4221H71V10.1641Z" fill="white" />
    <path
        d="M77.1747 17.0915C76.6477 16.7884 76.2234 16.3346 75.9563 15.7885C75.6597 15.1806 75.5144 14.51 75.5328 13.8339C75.5166 13.1362 75.6709 12.4451 75.9824 11.8207C76.2779 11.2667 76.7315 10.8132 77.2854 10.5176C77.9011 10.1928 78.5898 10.0313 79.2856 10.0485C79.947 10.0289 80.6015 10.1864 81.1816 10.5046C81.7105 10.8032 82.1339 11.2585 82.3934 11.8076C82.6821 12.4018 82.8251 13.0562 82.8104 13.7166C82.8292 14.4236 82.6725 15.1243 82.3543 15.7559C82.066 16.3233 81.6114 16.7893 81.0513 17.0915C80.4505 17.4123 79.7776 17.5738 79.0967 17.5606C78.4256 17.5787 77.762 17.4167 77.1747 17.0915ZM80.4323 16.1989C80.7855 15.9606 81.0599 15.6227 81.2207 15.2282C81.4023 14.7748 81.491 14.2896 81.4813 13.8013C81.4878 13.3268 81.4106 12.8548 81.2532 12.407C81.1101 12.0137 80.8511 11.673 80.5105 11.4297C80.1263 11.1719 79.6696 11.044 79.2074 11.0649C78.7461 11.051 78.2915 11.1783 77.9044 11.4297C77.5508 11.6861 77.2756 12.0357 77.1095 12.4396C76.9286 12.8751 76.8377 13.3428 76.8424 13.8143C76.8344 14.2977 76.9207 14.7779 77.0965 15.2282C77.2498 15.6249 77.5173 15.9673 77.8653 16.212C78.2504 16.4677 78.7064 16.5954 79.1683 16.5768C79.6204 16.5827 80.0635 16.4509 80.4388 16.1989H80.4323Z"
        fill="white" />
    <path
        d="M84.2109 10.1633H86.4913C87.1571 10.1176 87.8194 10.2941 88.3742 10.665C88.5897 10.8313 88.7616 11.0475 88.8751 11.2949C88.9885 11.5423 89.0403 11.8135 89.0257 12.0853C89.0295 12.4163 88.9589 12.7439 88.8191 13.0438C88.6792 13.3438 88.4738 13.6085 88.2178 13.8184C88.0081 13.9956 87.7703 14.1365 87.5142 14.2354L89.7555 17.4474H88.296L86.4001 14.5612H85.4749V17.4474H84.2174L84.2109 10.1633ZM86.1655 13.6099C86.447 13.6156 86.7259 13.5554 86.9799 13.434C87.208 13.3216 87.3983 13.145 87.5272 12.9258C87.6608 12.6991 87.7285 12.4396 87.7227 12.1766C87.7349 12.0249 87.7098 11.8726 87.6496 11.7329C87.5895 11.5932 87.496 11.4704 87.3774 11.3752C87.0732 11.1868 86.718 11.098 86.361 11.1211H85.4554V13.6099H86.1655Z"
        fill="white" />
    <path
        d="M90.7474 10.1641H95.0605L94.9433 11.2H92.0309V13.2067H94.7739V14.1775H92.0309V16.4057H95.0605L94.9498 17.4482H90.7344L90.7474 10.1641Z"
        fill="white" />
    <path d="M99.6953 10.1641H100.953V17.4482H99.6953V10.1641Z" fill="white" />
    <path
        d="M104.284 11.2195H102.023L102.134 10.1641H107.803L107.685 11.2195H105.542V17.4482H104.284V11.2195Z"
        fill="white" />
    <path
        d="M113.259 17.0915C112.729 16.7907 112.302 16.3364 112.034 15.7885C111.738 15.1806 111.592 14.51 111.611 13.8339C111.595 13.1362 111.749 12.4451 112.06 11.8207C112.355 11.2658 112.809 10.8119 113.364 10.5176C113.977 10.1928 114.663 10.0313 115.357 10.0485C116.019 10.0289 116.673 10.1864 117.253 10.5046C117.782 10.8032 118.205 11.2585 118.465 11.8076C118.756 12.4013 118.901 13.0557 118.889 13.7166C118.904 14.4233 118.748 15.1232 118.432 15.7559C118.14 16.3205 117.687 16.7854 117.129 17.0915C116.528 17.4106 115.856 17.572 115.175 17.5606C114.506 17.5778 113.845 17.4159 113.259 17.0915ZM116.517 16.1989C116.87 15.9606 117.145 15.6227 117.305 15.2282C117.487 14.7748 117.576 14.2896 117.566 13.8013C117.571 13.3375 117.494 12.8764 117.338 12.4396C117.195 12.0463 116.936 11.7056 116.595 11.4623C116.211 11.2041 115.754 11.0761 115.292 11.0975C114.846 11.0748 114.404 11.192 114.028 11.4326C113.652 11.6732 113.36 12.0253 113.194 12.4396C113.01 12.8742 112.919 13.3425 112.927 13.8143C112.92 14.297 113.004 14.7766 113.175 15.2282C113.332 15.6194 113.602 15.9551 113.95 16.1924C114.334 16.4499 114.791 16.5777 115.253 16.5573C115.701 16.5676 116.141 16.4427 116.517 16.1989Z"
        fill="white" />
    <path
        d="M120.289 10.1641H121.768L125.364 15.8063C125.364 15.2721 125.319 14.7769 125.319 14.3273V10.1641H126.485V17.4482H125.091L121.436 11.7147C121.468 12.3662 121.488 12.9396 121.488 13.4478V17.4482H120.322L120.289 10.1641Z"
        fill="white" />
    <path fillRule="evenodd" clipRule="evenodd"
        d="M35.221 10.1055H21.7864C15.4536 10.1055 13.1406 12.4249 13.1406 18.7513V32.1858C13.1406 38.5122 15.4536 40.8316 21.7864 40.8316H35.2145C41.5473 40.8316 43.8668 38.5122 43.8668 32.1858V18.7513C43.8668 12.4379 41.5473 10.1055 35.221 10.1055Z"
        fill="#CE0E2D" />
    <path
        d="M19.2286 25.4688H20.043V29.4887H19.2286V27.8599H17.3912V29.4887H16.5703V25.4688H17.3912V27.0911H19.2286V25.4688ZM23.7893 27.7687C23.7893 28.4202 23.4635 28.772 22.8706 28.772C22.2777 28.772 21.9585 28.4137 21.9585 27.7426V25.4688H21.1701V27.7621C21.142 27.998 21.1669 28.2371 21.243 28.4621C21.3191 28.6871 21.4444 28.8922 21.6098 29.0627C21.7752 29.2331 21.9766 29.3644 22.1992 29.4471C22.4218 29.5299 22.6601 29.5619 22.8967 29.5408C23.1365 29.5611 23.3778 29.5276 23.6031 29.4427C23.8283 29.3578 24.0317 29.2236 24.1984 29.05C24.3651 28.8764 24.491 28.6678 24.5667 28.4393C24.6425 28.2109 24.6662 27.9684 24.6363 27.7296V25.4688H23.8218L23.7893 27.7687ZM33.2039 28.2312L32.3243 25.4688H31.6728L30.7606 28.2312L29.8615 25.4688H28.995L30.3958 29.4822H31.0473L31.966 26.8435L32.8781 29.4822H33.5296L34.9695 25.4688H34.129L33.2039 28.2312ZM36.4224 27.7621H37.9014V27.0259H36.4224V26.205H38.5725V25.4688H35.6276V29.4822H38.6637V28.7264H36.4224V27.7621ZM39.6214 29.4822H40.4228V25.4688H39.6345L39.6214 29.4822ZM26.2455 28.6482L25.8807 29.4887H25.0467L26.8189 25.4688H27.5356L29.2947 29.4887H28.4412L28.0829 28.6482H26.2455ZM26.5452 27.925H27.7766L27.1642 26.4851L26.5452 27.925Z"
        fill="white" />
    <path
        d="M28.5051 20.3541C27.1498 20.3541 25.8499 19.8161 24.8909 18.8584C23.932 17.9006 23.3924 16.6014 23.3906 15.2461H24.1138C24.1138 16.4107 24.5765 17.5277 25.4 18.3512C26.2235 19.1748 27.3405 19.6374 28.5051 19.6374C29.6698 19.6374 30.7867 19.1748 31.6103 18.3512C32.4338 17.5277 32.8964 16.4107 32.8964 15.2461H33.6196C33.6179 16.6014 33.0783 17.9006 32.1193 18.8584C31.1604 19.8161 29.8605 20.3541 28.5051 20.3541Z"
        fill="white" />
</svg>