<svg width="33" height="33" viewBox="0 0 33 33" fill="none" xmlns="http://www.w3.org/2000/svg">
<path d="M16.2461 0.789062C19.4106 0.789062 22.504 1.72745 25.1352 3.48555C27.7664 5.24365 29.8172 7.74251 31.0282 10.6661C32.2392 13.5897 32.556 16.8068 31.9387 19.9105C31.3213 23.0142 29.7974 25.8651 27.5598 28.1028C25.3222 30.3404 22.4712 31.8643 19.3675 32.4816C16.2638 33.099 13.0468 32.7821 10.1232 31.5711C7.19954 30.3601 4.70068 28.3094 2.94258 25.6782C1.18448 23.047 0.246094 19.9536 0.246094 16.7891C0.246094 12.5456 1.9318 8.47593 4.93238 5.47535C7.93297 2.47477 12.0026 0.789063 16.2461 0.789062Z" fill="#02C9C0"/>
<path d="M22.8283 11.1846C22.4303 10.7508 21.9458 10.4054 21.4061 10.1704C20.8663 9.93543 20.2833 9.81621 19.6947 9.82042C18.8019 9.81681 17.9344 10.1164 17.2342 10.6702C16.8543 10.9672 16.519 11.3172 16.2387 11.7096C15.9583 11.3172 15.6231 10.9672 15.2431 10.6702C14.5429 10.1163 13.6754 9.81671 12.7827 9.82042C12.194 9.81621 11.611 9.93543 11.0713 10.1704C10.5315 10.4054 10.047 10.7508 9.64904 11.1846C8.82937 12.1032 8.38589 13.297 8.40697 14.528C8.44309 15.9468 8.99555 17.3037 9.96075 18.3443C11.1567 19.6636 12.4571 20.8843 13.8493 21.9946C14.3886 22.4533 14.999 22.9748 15.633 23.5295C15.8007 23.6762 16.0159 23.757 16.2387 23.757C16.4614 23.757 16.6766 23.6762 16.8443 23.5295C17.4784 22.9748 18.0899 22.4545 18.6292 21.9887C20.0214 20.8785 21.3219 19.6577 22.5178 18.3383C23.483 17.2978 24.0354 15.9409 24.0716 14.522C24.0926 13.2911 23.6492 12.0973 22.8295 11.1786L22.8283 11.1846Z" fill="#F2F2F2"/>
</svg>
