<svg width="66" height="67" viewBox="0 0 66 67" fill="none" xmlns="http://www.w3.org/2000/svg">
<circle cx="33.2529" cy="33.4795" r="32.667" fill="#02C9C0" fill-opacity="0.05"/>
<g clip-path="url(#clip0_56_718)">
<path d="M46.6675 31.3154L28.4391 51.2343C28.3143 51.3709 28.1465 51.4608 27.9636 51.4889C27.7808 51.517 27.5938 51.4817 27.4337 51.3889C27.2736 51.2961 27.1501 51.1513 27.0837 50.9786C27.0172 50.8059 27.0118 50.6157 27.0684 50.4395L30.2994 40.3567C30.3385 40.2351 30.3482 40.106 30.3279 39.9799C30.3075 39.8538 30.2577 39.7342 30.1824 39.631C30.1071 39.5278 30.0085 39.4439 29.8946 39.386C29.7807 39.3282 29.6548 39.2981 29.527 39.2981H22.9201C22.7956 39.2981 22.6728 39.2693 22.5612 39.2142C22.4496 39.159 22.3521 39.0789 22.2765 38.9801C22.2008 38.8812 22.1489 38.7663 22.1247 38.6441C22.1006 38.522 22.1049 38.3959 22.1374 38.2757L27.4081 18.7171C27.4382 18.6045 27.4923 18.4997 27.5667 18.41C27.6411 18.3202 27.734 18.2477 27.8391 18.1973L32.5408 15.9317C32.6507 15.8786 32.7713 15.8511 32.8934 15.8516H43.5081C43.6458 15.8514 43.7812 15.8863 43.9017 15.9531C44.0221 16.0198 44.1236 16.1161 44.1965 16.2329C44.2693 16.3497 44.3113 16.4831 44.3183 16.6207C44.3253 16.7582 44.2972 16.8952 44.2365 17.0188L38.4822 28.7895C38.4216 28.9131 38.3934 29.0501 38.4004 29.1876C38.4074 29.3252 38.4494 29.4586 38.5223 29.5754C38.5952 29.6922 38.6966 29.7885 38.8171 29.8553C38.9375 29.922 39.073 29.9569 39.2107 29.9567H46.0693C46.2266 29.9568 46.3805 30.0026 46.5122 30.0886C46.644 30.1746 46.7479 30.297 46.8113 30.441C46.8747 30.585 46.8949 30.7443 46.8694 30.8996C46.8438 31.0548 46.7737 31.1993 46.6675 31.3154Z" fill="#02C9C0"/>
<path d="M41.0693 42.0652C41.759 41.6398 42.7159 41.9068 43.259 42.6761L46.8434 47.753C47.4412 48.5998 47.3042 49.7157 46.545 50.184L45.9275 50.5648C45.1683 51.0331 44.1041 50.6579 43.6093 49.7476L40.643 44.2899C40.1935 43.4628 40.3797 42.4905 41.0693 42.0652Z" fill="#FDE931"/>
<path d="M43.9753 38.0604C44.3706 37.3561 45.3397 37.1255 46.1923 37.5327L51.8203 40.2201C52.759 40.6684 53.1862 41.7066 52.7513 42.4819L52.3973 43.1124C51.9622 43.8877 50.8464 44.076 49.9667 43.5226L44.6924 40.2049C43.8934 39.7018 43.5799 38.7647 43.9753 38.0604Z" fill="#FDE931"/>
<path d="M23.8861 22.0237C23.4109 22.68 22.4242 22.7983 21.6287 22.2945L16.3785 18.9686C15.5028 18.4139 15.2038 17.3302 15.7269 16.6077L16.1521 16.0201C16.6752 15.2977 17.802 15.2385 18.6067 15.8908L23.4314 19.8038C24.1628 20.3971 24.3614 21.367 23.8861 22.0237Z" fill="#FDE931"/>
<path d="M22.7303 26.8332C22.6335 27.6349 21.8257 28.2179 20.8822 28.1669L14.6546 27.8298C13.616 27.7736 12.825 26.9769 12.9315 26.0942L13.0177 25.3763C13.1242 24.4936 14.0837 23.8935 15.108 24.0699L21.2494 25.1252C22.1798 25.2846 22.827 26.0313 22.7303 26.8332Z" fill="#FDE931"/>
<path d="M46.6653 31.3155L28.4369 51.2345C28.319 51.3688 28.1591 51.4592 27.9833 51.4909C27.8075 51.5227 27.6261 51.494 27.4688 51.4095L32.8713 44.1138L40.5403 33.7586C40.6297 33.6379 40.6838 33.4947 40.6966 33.3451C40.7094 33.1954 40.6804 33.0452 40.6128 32.911C40.5452 32.7769 40.4417 32.6641 40.3139 32.5853C40.186 32.5065 40.0388 32.4647 39.8886 32.4647H33.6446C33.507 32.4647 33.3716 32.4297 33.2512 32.3629C33.1308 32.2962 33.0294 32.1999 32.9564 32.0832C32.8835 31.9665 32.8415 31.8331 32.8343 31.6956C32.8271 31.5582 32.855 31.4211 32.9153 31.2974L38.6705 19.5267C38.7311 19.4031 38.7592 19.266 38.7521 19.1285C38.7451 18.9909 38.7032 18.8574 38.6303 18.7406C38.5575 18.6237 38.456 18.5274 38.3356 18.4605C38.2152 18.3937 38.0797 18.3586 37.942 18.3586H27.611C27.6765 18.2923 27.7529 18.2377 27.8369 18.1973L32.5386 15.9317C32.6485 15.8786 32.7691 15.8511 32.8912 15.8516H43.5058C43.6435 15.8514 43.779 15.8863 43.8994 15.9531C44.0199 16.0198 44.1213 16.1161 44.1942 16.2329C44.2671 16.3497 44.309 16.4831 44.316 16.6207C44.3231 16.7582 44.2949 16.8952 44.2343 17.0188L38.48 28.7895C38.4193 28.9131 38.3912 29.0501 38.3982 29.1876C38.4052 29.3252 38.4471 29.4586 38.52 29.5754C38.5929 29.6922 38.6944 29.7885 38.8148 29.8553C38.9353 29.922 39.0707 29.9569 39.2084 29.9567H46.067C46.2244 29.9568 46.3783 30.0026 46.5101 30.0886C46.6419 30.1746 46.7458 30.297 46.8092 30.4411C46.8726 30.5851 46.8928 30.7444 46.8672 30.8997C46.8417 31.055 46.7715 31.1994 46.6653 31.3155Z" fill="#02AFA7"/>
</g>
<defs>
<clipPath id="clip0_56_718">
<rect width="40" height="40" fill="white" transform="translate(12.9219 13.4688)"/>
</clipPath>
</defs>
</svg>

