<svg width="13" height="14" viewBox="0 0 13 14" fill="none" xmlns="http://www.w3.org/2000/svg">
<path d="M7.92676 0.147055H3.99563C3.91562 0.140528 3.83507 0.146681 3.75698 0.165285C3.70906 0.181988 3.66546 0.209164 3.62937 0.244836C3.57807 0.305949 3.53669 0.374736 3.50673 0.448684L0.636276 6.18793C0.505349 6.44978 0.439056 6.58071 0.455629 6.68512C0.462412 6.73121 0.478556 6.77543 0.503067 6.81504C0.527579 6.85466 0.55994 6.88884 0.598158 6.91548C0.685995 6.97681 0.833495 6.9768 1.12518 6.9768H5.36456L3.31614 13.8132L11.6474 5.17366C11.9291 4.88197 12.0684 4.73613 12.0766 4.61183C12.0801 4.55842 12.071 4.50494 12.0499 4.45571C12.0289 4.40648 11.9966 4.36288 11.9557 4.32843C11.8595 4.24723 11.6573 4.24723 11.253 4.24723H6.39044L7.92676 0.147055Z" fill="#02C9C0"/>
</svg>
