<svg width="23" height="22" viewBox="0 0 23 22" fill="none" xmlns="http://www.w3.org/2000/svg">
<path d="M19.5859 11C19.5859 15.4183 16.0042 19 11.5859 19M19.5859 11C19.5859 6.58172 16.0042 3 11.5859 3M19.5859 11H21.5859M11.5859 19C7.16766 19 3.58594 15.4183 3.58594 11M11.5859 19V21M3.58594 11C3.58594 6.58172 7.16766 3 11.5859 3M3.58594 11H1.58594M11.5859 3V1M14.5859 11C14.5859 12.6569 13.2428 14 11.5859 14C9.92908 14 8.58594 12.6569 8.58594 11C8.58594 9.34315 9.92908 8 11.5859 8C13.2428 8 14.5859 9.34315 14.5859 11Z" stroke="#0E1114" stroke-width="2" stroke-linecap="round" stroke-linejoin="round"/>
</svg>

