<svg width="66" height="66" viewBox="0 0 66 66" fill="none" xmlns="http://www.w3.org/2000/svg">
<circle cx="33.2529" cy="32.8115" r="32.667" fill="#02C9C0" fill-opacity="0.05"/>
<g clip-path="url(#clip0_58_801)">
<path d="M44.7938 48.4962C44.6905 48.8266 44.5193 49.1317 44.2912 49.3919L42.4265 51.5212C42.2007 51.7793 41.9241 51.9879 41.6139 52.134C41.3037 52.2801 40.9667 52.3606 40.624 52.3704L25.9636 52.8014C25.4132 52.8173 24.8729 52.6506 24.4271 52.3274C23.9813 52.0041 23.6549 51.5425 23.499 51.0143L14.024 18.8695C13.8749 18.3651 13.8894 17.8264 14.0653 17.3307L15.0843 14.4609C15.2598 13.9663 15.5868 13.5397 16.0187 13.2417C16.4507 12.9438 16.9657 12.7897 17.4903 12.8014L36.6541 13.2324C37.2282 13.2453 37.7803 13.4559 38.2169 13.8288C38.6536 14.2017 38.9481 14.714 39.0507 15.279L44.8705 47.3049C44.9422 47.7023 44.9159 48.1113 44.7938 48.4962Z" fill="#02C9C0"/>
<path d="M41.018 46.8257L30.3189 47.1274C29.893 47.1392 29.4748 47.0127 29.1267 46.7671C28.7786 46.5214 28.5194 46.1697 28.3878 45.7645L19.1352 17.2361C19.0381 16.9366 19.0141 16.6183 19.0652 16.3076C19.1164 15.997 19.2411 15.7032 19.4291 15.4506C19.617 15.1981 19.8627 14.9943 20.1456 14.8561C20.4285 14.718 20.7403 14.6497 21.0551 14.6568L24.5602 14.7343L24.924 15.9714C25.0446 16.3807 25.2946 16.7398 25.6366 16.995C25.9785 17.2502 26.3939 17.3877 26.8206 17.3869H31.993C32.2921 17.3868 32.5873 17.3187 32.8562 17.1878C33.1251 17.0568 33.3607 16.8664 33.5451 16.6309C33.7296 16.3955 33.8581 16.1211 33.9209 15.8287C33.9837 15.5363 33.9792 15.2334 33.9077 14.943L35.1706 14.9714C35.6158 14.9816 36.0445 15.1421 36.3869 15.4268C36.7294 15.7115 36.9655 16.1036 37.0568 16.5395L42.8964 44.4507C42.9555 44.7334 42.9517 45.0257 42.8854 45.3068C42.8191 45.5879 42.6919 45.851 42.5127 46.0776C42.3335 46.3041 42.1068 46.4885 41.8485 46.6178C41.5902 46.7471 41.3067 46.8181 41.018 46.8257Z" fill="#EEECFF"/>
<path d="M44.7938 48.4959C44.6905 48.8263 44.5193 49.1314 44.2912 49.3916L42.4265 51.5209C42.2007 51.779 41.9241 51.9876 41.6139 52.1337C41.3037 52.2798 40.9667 52.3603 40.624 52.3701L25.9636 52.8011C25.4132 52.817 24.8729 52.6503 24.4271 52.3271C23.9813 52.0038 23.6549 51.5422 23.499 51.014L14.024 18.8692C13.8749 18.3648 13.8894 17.8261 14.0653 17.3304L15.0843 14.4606C15.2397 14.0231 15.5141 13.6377 15.8765 13.3477L26.8403 47.227C27.0062 47.7403 27.3343 48.1859 27.7752 48.4968C28.216 48.8078 28.7459 48.9672 29.2852 48.9511L44.7938 48.4959Z" fill="#02AFA7"/>
<path d="M41.1316 19.0195C38.9966 19.0194 36.9094 19.6523 35.1341 20.8384C33.3588 22.0244 31.9751 23.7103 31.1579 25.6828C30.3407 27.6552 30.1268 29.8258 30.5433 31.9198C30.9597 34.0138 31.9877 35.9374 33.4974 37.4472C35.007 38.9569 36.9305 39.9851 39.0245 40.4017C41.1185 40.8183 43.289 40.6046 45.2616 39.7876C47.2341 38.9706 48.9201 37.587 50.1063 35.8117C51.2925 34.0365 51.9256 31.9494 51.9256 29.8144C51.9256 26.9515 50.7884 24.206 48.7642 22.1816C46.7399 20.1572 43.9944 19.0198 41.1316 19.0195ZM33.9765 29.8144C33.9775 28.5569 34.31 27.3218 34.9404 26.2337C35.5707 25.1456 36.4767 24.2429 37.5671 23.6164C38.6574 22.99 39.8936 22.6619 41.1511 22.6653C42.4086 22.6688 43.643 23.0035 44.7299 23.6359L34.9532 33.4169C34.3138 32.3242 33.9778 31.0805 33.9799 29.8144H33.9765ZM41.1316 36.9695C39.8648 36.9698 38.6209 36.6321 37.5282 35.9911L47.3101 26.2118C47.9427 27.2988 48.2777 28.5333 48.2812 29.791C48.2847 31.0487 47.9566 32.2851 47.33 33.3756C46.7034 34.4661 45.8004 35.3722 44.7121 36.0026C43.6237 36.6329 42.3885 36.9652 41.1308 36.9661L41.1316 36.9695Z" fill="#FDE931"/>
</g>
<defs>
<clipPath id="clip0_58_801">
<rect width="40" height="40" fill="white" transform="translate(12.9219 12.8008)"/>
</clipPath>
</defs>
</svg>

