<svg width="33" height="33" viewBox="0 0 33 33" fill="none" xmlns="http://www.w3.org/2000/svg">
<path d="M16.1523 0.789062C19.3168 0.789062 22.4103 1.72745 25.0415 3.48555C27.6726 5.24365 29.7234 7.74251 30.9344 10.6661C32.1454 13.5897 32.4623 16.8068 31.8449 19.9105C31.2275 23.0142 29.7037 25.8651 27.466 28.1028C25.2284 30.3404 22.3775 31.8643 19.2738 32.4816C16.1701 33.099 12.953 32.7821 10.0294 31.5711C7.10579 30.3601 4.60693 28.3094 2.84883 25.6782C1.09073 23.047 0.152344 19.9536 0.152344 16.7891C0.152344 12.5456 1.83805 8.47593 4.83863 5.47535C7.83922 2.47477 11.9089 0.789063 16.1523 0.789062Z" fill="white" fill-opacity="0.22"/>
<path d="M22.7345 11.1846C22.3365 10.7508 21.852 10.4054 21.3123 10.1704C20.7726 9.93543 20.1896 9.81621 19.6009 9.82042C18.7082 9.81681 17.8407 10.1164 17.1405 10.6702C16.7606 10.9672 16.4253 11.3172 16.1449 11.7096C15.8646 11.3172 15.5293 10.9672 15.1494 10.6702C14.4492 10.1163 13.5817 9.81671 12.6889 9.82042C12.1003 9.81621 11.5173 9.93543 10.9775 10.1704C10.4378 10.4054 9.9533 10.7508 9.55529 11.1846C8.73562 12.1032 8.29214 13.297 8.31322 14.528C8.34934 15.9468 8.9018 17.3037 9.867 18.3443C11.063 19.6636 12.3634 20.8843 13.7556 21.9946C14.2948 22.4533 14.9052 22.9748 15.5393 23.5295C15.7069 23.6762 15.9221 23.757 16.1449 23.757C16.3677 23.757 16.5829 23.6762 16.7505 23.5295C17.3846 22.9748 17.9962 22.4545 18.5354 21.9887C19.9277 20.8785 21.2281 19.6577 22.424 18.3383C23.3892 17.2978 23.9417 15.9409 23.9778 14.522C23.9989 13.2911 23.5554 12.0973 22.7357 11.1786L22.7345 11.1846Z" fill="#F2F2F2"/>
</svg>
