<svg width="12" height="11" viewBox="0 0 12 11" fill="none" xmlns="http://www.w3.org/2000/svg">
<path d="M6.52951 0.880212C6.40636 0.632106 6.13501 0.472656 5.83594 0.472656C5.53687 0.472656 5.26552 0.632106 5.14236 0.880212L3.83664 3.51064L0.685183 3.82831C0.387934 3.85828 0.137508 4.04395 0.0450917 4.30288C-0.0473258 4.56182 0.0353967 4.84603 0.256532 5.02934L2.60101 6.9727L1.95902 9.79943C1.89847 10.0661 2.01505 10.3403 2.257 10.5003C2.49895 10.6604 2.82143 10.6766 3.08125 10.5417L5.83594 9.11236L8.59062 10.5417C8.85046 10.6766 9.17294 10.6604 9.4149 10.5003C9.65685 10.3403 9.77338 10.0661 9.71287 9.79943L9.07088 6.9727L11.4153 5.02934C11.6365 4.84603 11.7192 4.56182 11.6268 4.30288C11.5344 4.04395 11.2839 3.85828 10.9867 3.82831L7.83522 3.51064L6.52951 0.880212Z" fill="#E8C500"/>
</svg>
