<svg width="66" height="66" viewBox="0 0 66 66" fill="none" xmlns="http://www.w3.org/2000/svg">
<circle cx="33.2529" cy="33.1475" r="32.667" fill="#02C9C0" fill-opacity="0.05"/>
<g clip-path="url(#clip0_59_873)">
<path d="M46.5897 45.3009C46.5897 49.8113 40.4698 53.4682 32.9198 53.4682C25.3698 53.4682 19.25 49.8113 19.25 45.3009C19.2554 44.4398 19.473 43.5932 19.8836 42.8363C21.6328 39.5294 26.8078 37.1328 32.9198 37.1328C39.3698 37.1328 44.7759 39.8018 46.2147 43.3923C46.4606 43.9987 46.5879 44.6466 46.5897 45.3009Z" fill="#E2E5E9"/>
<path d="M46.2138 43.3923C44.4656 46.6983 39.2906 49.0957 33.1776 49.0957C26.7276 49.0957 21.3207 46.4268 19.8828 42.8363C21.632 39.5294 26.807 37.1328 32.919 37.1328C39.369 37.1328 44.7751 39.8018 46.2138 43.3923Z" fill="#F9FAFB"/>
<path d="M44.5613 24.2582C44.5613 30.217 37.7188 43.9897 32.9213 43.9897C27.8245 43.9897 21.2812 30.217 21.2812 24.2582C21.2812 18.2994 26.4928 13.4688 32.9213 13.4688C39.3497 13.4688 44.5613 18.2994 44.5613 24.2582Z" fill="#02C9C0"/>
<path d="M32.9225 31.4507C37.4662 31.4507 41.1496 27.964 41.1496 23.6628C41.1496 19.3617 37.4662 15.875 32.9225 15.875C28.3787 15.875 24.6953 19.3617 24.6953 23.6628C24.6953 27.964 28.3787 31.4507 32.9225 31.4507Z" fill="#FDE931"/>
</g>
<defs>
<clipPath id="clip0_59_873">
<rect width="40" height="40" fill="white" transform="translate(12.9219 13.4688)"/>
</clipPath>
</defs>
</svg>

