<svg width="60" height="57" viewBox="0 0 60 57" fill="none" xmlns="http://www.w3.org/2000/svg">
<g clip-path="url(#clip0_418_9818)">
<path d="M33.2301 54.7447C33.2301 54.7447 21.2782 58.6883 9.26076 46.2255C0.495546 37.1474 0.0174207 27.6026 0.403454 23.0888C0.470949 22.1902 0.609735 21.2984 0.818502 20.4219L13.41 28.386C14.6501 42.6516 27.4371 44.202 27.4371 44.202L30.8748 50.4631L33.2301 54.7447Z" fill="#02AFA7"/>
<path d="M33.2301 54.7419C33.2301 54.7419 21.2782 58.6855 9.26076 46.2227C0.495546 37.1446 0.0174207 27.5997 0.403454 23.0859L5.42693 27.6691C5.42693 27.6691 7.30158 48.8631 29.2764 49.9632L30.8786 50.4602L33.2301 54.7419Z" fill="#02C9C0"/>
<path d="M25.6355 41.6823C22.9863 45.0771 24.2478 50.4967 28.4677 53.7868C32.6875 57.0769 38.2472 56.9912 40.8977 53.5963L43.8371 49.8281L28.5724 37.9141L25.6355 41.6823Z" fill="#02C9C0"/>
<path d="M46.8609 50.1891C49.7571 46.4782 47.8692 40.1641 42.6441 36.0862C37.419 32.0082 30.8355 31.7107 27.9393 35.4215C25.0431 39.1324 26.9311 45.4465 32.1561 49.5244C37.3812 53.6023 43.9648 53.8999 46.8609 50.1891Z" fill="#D3D3FF"/>
<path d="M44.7556 46.4779C46.3963 44.3757 44.9536 40.5074 41.5331 37.8379C38.1127 35.1684 34.0099 34.7086 32.3692 36.8108C30.7285 38.913 32.1712 42.7812 35.5917 45.4507C39.0121 48.1202 43.1149 48.5801 44.7556 46.4779Z" fill="#DDEFE7"/>
<path d="M14.983 31.031C11.5882 33.6802 6.16983 32.4187 2.87972 28.1988C-0.410392 23.9789 -0.319561 18.4193 3.06895 15.77L6.83719 12.8281L18.7512 28.0928L14.983 31.031Z" fill="#02C9C0"/>
<path d="M21.2288 28.7011C24.9397 25.805 24.6421 19.2214 20.5642 13.9963C16.4862 8.77125 10.1722 6.8833 6.46129 9.77946C2.75043 12.6756 3.04801 19.2592 7.12596 24.4843C11.2039 29.7093 17.518 31.5973 21.2288 28.7011Z" fill="#D3D3FF"/>
<path d="M19.8407 24.279C21.9429 22.6383 21.483 18.5355 18.8135 15.115C16.144 11.6946 12.2758 10.2519 10.1736 11.8925C8.07137 13.5332 8.53124 17.6361 11.2007 21.0565C13.8702 24.4769 17.7385 25.9197 19.8407 24.279Z" fill="#DDEFE7"/>
<path d="M58.8488 13.6629C58.8488 20.8221 51.465 26.6265 42.3566 26.6265C41.366 26.6267 40.3766 26.5572 39.3958 26.4183L33.7188 29.1647C33.369 29.334 32.9807 29.408 32.5931 29.3795C32.2055 29.3509 31.8323 29.2207 31.5111 29.002L29.6604 27.7404L33.3656 24.5349C31.602 23.6497 30.024 22.4353 28.7168 20.9571C26.914 18.8794 25.8594 16.3676 25.8594 13.6629C25.8632 6.50233 33.247 0.699219 42.3553 0.699219C47.5807 0.699219 52.2383 2.6092 55.2597 5.59023C57.5052 7.80424 58.8488 10.6112 58.8488 13.6629Z" fill="#F0E3E7"/>
<path d="M56.4102 11.4438C56.4102 18.6031 49.0264 24.4074 39.918 24.4074C38.9984 24.4082 38.0797 24.3483 37.1679 24.2283L29.6604 27.7442L28.7168 20.9571C26.914 18.8794 25.8594 16.3676 25.8594 13.6629C25.8594 6.50233 33.2432 0.699219 42.3516 0.699219C47.5769 0.699219 52.2345 2.6092 55.2559 5.59023C56.0861 7.42658 56.4811 9.42978 56.4102 11.4438Z" fill="#FCF4F6"/>
<path d="M36.4725 5.45312C37.6154 5.45312 38.6772 5.91906 39.6579 6.85092C39.9925 7.19337 40.2557 7.5989 40.4322 8.04395C40.6087 8.48901 40.695 8.9647 40.686 9.44339C40.686 11.2213 39.5347 13.3815 37.2319 15.924V15.9517C38.787 15.9273 39.7067 15.9151 39.9909 15.9151C40.4241 15.9151 40.8067 16.1372 41.1389 16.5812C41.2852 16.801 41.3657 17.0578 41.3711 17.3217V17.3962C41.3711 17.8722 41.1301 18.2763 40.6482 18.6085C40.439 18.738 40.2001 18.8114 39.9543 18.8217C39.6768 18.8217 37.5196 18.8558 33.4826 18.9239C33.248 18.9239 32.9671 18.8036 32.6399 18.5631C32.486 18.4327 32.3614 18.2712 32.2745 18.0892C32.1875 17.9072 32.1401 17.7088 32.1353 17.5072V17.4151C32.1353 16.9525 32.3914 16.5266 32.9036 16.1372C34.081 15.0379 34.9141 14.1923 35.4027 13.6002C36.4027 12.416 37.057 11.4808 37.3657 10.7945C37.6323 10.2335 37.7651 9.78611 37.7643 9.45222V9.38789C37.7643 9.10404 37.6154 8.87191 37.3202 8.69277C37.0836 8.49917 36.7916 8.38565 36.4864 8.36856H36.422C35.8333 8.36856 35.1571 8.82229 34.3935 9.72976C34.0108 10.3597 33.5482 10.6747 33.0058 10.6747H32.9502C32.4557 10.6747 32.0419 10.4278 31.7089 9.93413C31.5948 9.72326 31.5313 9.48874 31.5234 9.24912V9.19361C31.5234 8.76132 31.7951 8.2567 32.3384 7.67975C33.6092 6.19533 34.9872 5.45312 36.4725 5.45312Z" fill="#FDE931"/>
<path d="M44.0623 5.33203H44.1733C44.6779 5.33203 45.0883 5.59149 45.4046 6.1104C45.5081 6.30859 45.565 6.52777 45.5711 6.75127V6.77019C45.5711 6.84925 45.4201 8.51239 45.1182 11.7596H45.127C46.1211 11.7293 46.7477 11.7142 47.0067 11.7142C47.0214 11.6377 47.0277 11.5599 47.0257 11.4821L47.09 6.89004C47.09 6.59316 47.2288 6.28155 47.5063 5.95523C47.6353 5.81844 47.7902 5.70855 47.9619 5.6319C48.1336 5.55526 48.3187 5.51336 48.5067 5.50865H48.5811C49.0807 5.50865 49.497 5.76769 49.8301 6.28576C49.9246 6.47609 49.9783 6.68406 49.9878 6.89635L49.9323 11.6284H49.9411C50.1455 11.6284 50.3196 11.6183 50.4457 11.6183H50.4735C50.973 11.6183 51.3898 11.8778 51.7237 12.3967C51.8215 12.5957 51.8753 12.8134 51.8813 13.035V13.1095C51.8813 13.6023 51.6404 14.0098 51.1585 14.3319C50.9903 14.4665 50.6139 14.5342 50.0294 14.535H49.8944C49.8946 14.5364 49.8945 14.5378 49.8941 14.5391C49.8937 14.5404 49.8929 14.5416 49.8919 14.5426C49.891 14.5436 49.8897 14.5443 49.8884 14.5448C49.8871 14.5452 49.8857 14.5453 49.8843 14.5451C49.8599 16.7318 49.8322 17.8251 49.8011 17.8251C49.6472 18.2759 49.4159 18.5812 49.1072 18.741C48.9043 18.8577 48.6752 18.9215 48.4411 18.9264H48.3389C47.8343 18.9264 47.4319 18.6741 47.1165 18.1859C47.0111 18.0014 46.9478 17.7959 46.931 17.5842C46.9563 15.8752 46.9718 14.8874 46.9777 14.6208C45.0156 14.6729 43.8853 14.699 43.5867 14.699L43.5413 14.7091C42.9248 14.7091 42.4622 14.3912 42.1536 13.7554C42.1042 13.6057 42.0762 13.4499 42.0703 13.2924V13.1435C42.4404 9.03341 42.6531 6.79627 42.7087 6.4321C42.8634 5.98635 43.0951 5.68064 43.4038 5.51496C43.6047 5.40033 43.831 5.33747 44.0623 5.33203Z" fill="#FDE931"/>
<path d="M42.829 35.8959C40.2605 33.8913 37.287 32.7155 34.4574 32.5881C31.5924 32.4619 29.2169 33.4119 27.7636 35.2727C26.6699 36.6755 26.2359 38.4391 26.3885 40.3189L25.4373 41.5362C25.0495 42.0353 24.7355 42.5877 24.505 43.1762C21.3512 42.0156 16.0867 39.0396 14.2398 31.8375C14.5562 31.6642 14.8583 31.4659 15.1431 31.2446L16.3618 30.2933C16.6027 30.3123 16.8437 30.3236 17.0808 30.3236C18.6855 30.3236 20.1805 29.8707 21.4016 28.9183C25.2178 25.9385 24.934 19.1804 20.7784 13.8529C18.7726 11.2831 16.1738 9.42234 13.4615 8.61117C10.7151 7.7899 8.17812 8.13809 6.31734 9.59139C4.73788 10.8239 3.81569 12.7225 3.65043 15.016L2.92 15.5863C1.21313 16.902 0.255614 18.9697 0.219029 21.3957C0.219029 21.6656 0.219029 21.9369 0.241737 22.2081C-0.254051 26.2337 -0.376421 36.6061 9.07255 46.4008C16.44 54.0382 23.7607 55.5924 28.5004 55.5924C29.2565 55.5918 30.012 55.5497 30.7636 55.4662C32.1343 56.0989 33.6239 56.4331 35.1336 56.4464C37.5141 56.4464 39.7029 55.5444 41.1019 53.7518L41.6721 53.0226C43.9656 52.8561 45.863 51.9339 47.0968 50.3557C50.069 46.5395 48.1578 40.0514 42.829 35.8959ZM24.336 43.638C23.8011 45.3486 23.9273 47.2826 24.6438 49.132C12.567 46.6417 8.09864 37.3214 6.47377 31.5486C7.2215 31.9413 8.01583 32.238 8.83791 32.4317C9.48688 32.586 10.1515 32.6652 10.8185 32.6676C11.8379 32.6741 12.8469 32.4629 13.7781 32.0482C15.7058 39.4055 21.1039 42.4559 24.336 43.638ZM6.62263 9.97742C7.73279 9.10948 9.1104 8.66794 10.6394 8.66794C11.5445 8.67588 12.4437 8.81526 13.3088 9.08172C15.924 9.86388 18.4332 11.6641 20.3735 14.1506C24.3612 19.2599 24.6804 25.7001 21.0837 28.5083C17.4871 31.3165 11.3168 29.4431 7.33288 24.3338C5.39137 21.8473 4.25471 18.976 4.13108 16.2486C4.01123 13.5539 4.89558 11.3273 6.62263 9.97742ZM3.22781 15.971L3.61889 15.6645C3.61889 15.8651 3.61889 16.0669 3.62899 16.2713C3.75514 19.1022 4.93216 22.0744 6.93802 24.6441C9.37785 27.7703 12.615 29.7181 15.6503 30.1949L14.8328 30.8333C13.2521 32.0683 11.1642 32.4632 8.95397 31.946C7.98911 31.7148 7.06513 31.3379 6.21389 30.8282L6.18362 30.8106C4.98886 30.0867 3.93735 29.1493 3.08148 28.0453C1.52599 26.0558 0.69337 23.6942 0.723647 21.4032C0.757709 19.1337 1.6471 17.2036 3.22781 15.971ZM9.43714 46.05C1.40867 37.7238 0.39943 28.9977 0.5874 24.2253C1.00617 25.728 1.71881 27.1327 2.68409 28.3581C3.56138 29.4904 4.63629 30.4546 5.85688 31.2042C6.57974 33.9443 8.05196 37.9257 10.9737 41.5375C14.4556 45.8406 19.1346 48.5845 24.8822 49.6972C25.6664 51.3809 26.8431 52.8518 28.3136 53.9864C28.8166 54.3784 29.3493 54.7306 29.907 55.0398C25.407 55.3476 17.4631 54.3687 9.43714 46.05ZM40.6995 53.4414C38.1386 56.7215 32.7215 56.7871 28.624 53.5878C24.5265 50.3885 23.275 45.1178 25.8347 41.8377L26.4743 41.0203C26.9512 44.048 28.9003 47.2927 32.0251 49.7312C34.5936 51.7371 37.5671 52.9129 40.398 53.0403C40.5696 53.0478 40.7399 53.0529 40.9026 53.0529H40.9985L40.6995 53.4414ZM46.6918 50.0441C45.3432 51.7737 43.1141 52.658 40.4207 52.5369C37.6932 52.4108 34.822 51.2754 32.3355 49.3339C27.2262 45.3461 25.3541 39.1746 28.1623 35.583C29.4238 33.9594 31.4713 33.0801 33.9464 33.0801C34.1067 33.0801 34.2694 33.0801 34.4334 33.0915C37.1609 33.2176 40.0321 34.353 42.5186 36.2945C47.6229 40.2772 49.5 46.4487 46.6918 50.0441Z" fill="black"/>
<path d="M41.7089 37.6416C38.1766 34.8889 33.9113 34.4474 32.1868 36.6563C31.3365 37.745 31.2217 39.2904 31.8613 41.0087C32.4921 42.6853 33.7624 44.3354 35.4529 45.6549C37.4714 47.2281 39.727 48.0519 41.6156 48.0519C43.0297 48.0519 44.237 47.5914 44.975 46.6452C46.6996 44.4312 45.2349 40.3943 41.7089 37.6416ZM44.5777 46.3299C43.0247 48.3193 39.0698 47.8437 35.7632 45.2575C34.1447 43.996 32.9273 42.4229 32.3344 40.8333C31.7578 39.2854 31.8461 37.9128 32.5867 36.9667C33.2326 36.1404 34.2923 35.7404 35.5488 35.7404C37.3149 35.7404 39.4684 36.5314 41.4011 38.039C44.7051 40.6214 46.1306 44.3455 44.5777 46.3299Z" fill="black"/>
<path d="M17.745 25.1992C18.5584 25.2202 19.3549 24.965 20.0045 24.475C22.2134 22.7505 21.7706 18.4789 19.0192 14.9529C17.6996 13.2624 16.0495 11.987 14.3729 11.3613C12.656 10.7217 11.1093 10.8365 10.0231 11.6868C7.81415 13.4113 8.25696 17.6829 11.0084 21.2089C12.9751 23.7307 15.6017 25.1992 17.745 25.1992ZM10.3309 12.0791C10.8951 11.6529 11.5871 11.4305 12.2939 11.4483C12.9455 11.4605 13.5897 11.5887 14.1963 11.8268C15.7859 12.4197 17.3577 13.6371 18.6218 15.2557C21.2029 18.5634 21.6836 22.5171 19.6941 24.0701C17.7047 25.6231 13.9856 24.1962 11.4033 20.891C8.82087 17.5857 8.34148 13.6384 10.3309 12.0841V12.0791Z" fill="black"/>
<path d="M42.3539 0.445313C33.1206 0.445313 25.6094 6.37458 25.6094 13.6613C25.6094 16.3105 26.6022 18.874 28.4781 21.0615L29.4117 27.7767C29.4118 27.7796 29.4118 27.7826 29.4117 27.7855V27.8019C29.414 27.8118 29.417 27.8215 29.4205 27.8309C29.4225 27.8366 29.425 27.8421 29.4281 27.8473L29.4407 27.8726L29.452 27.8902L29.4672 27.9092C29.4723 27.9149 29.4778 27.9204 29.4836 27.9256L29.5012 27.9407L29.5139 27.9508L31.3645 29.2123C31.7228 29.4554 32.1385 29.6001 32.5703 29.632C33.002 29.6639 33.4345 29.5818 33.8246 29.394L39.4271 26.6804C40.3948 26.8143 41.3706 26.8813 42.3476 26.881C51.5795 26.881 59.0921 20.9517 59.0921 13.665C59.0921 6.37836 51.5859 0.445313 42.3539 0.445313ZM42.3539 26.3726C41.3751 26.3725 40.3975 26.3038 39.4283 26.167C39.3784 26.1597 39.3274 26.1676 39.282 26.1897L33.6051 28.9361C33.2948 29.0853 32.9509 29.1506 32.6075 29.1254C32.2642 29.1001 31.9335 28.9853 31.6484 28.7922L29.8898 27.5963L28.9626 20.9215V20.9063C28.9606 20.8953 28.9581 20.8843 28.955 20.8735L28.9462 20.8546C28.9427 20.8458 28.9385 20.8374 28.9335 20.8294C28.9292 20.8213 28.9242 20.8137 28.9184 20.8067L28.9071 20.7903C27.0778 18.6822 26.1115 16.2172 26.1115 13.6613C26.114 6.65212 33.3982 0.949931 42.3539 0.949931C51.3096 0.949931 58.595 6.65212 58.595 13.6613C58.595 20.6704 51.3083 26.3726 42.3539 26.3726Z" fill="black"/>
<path d="M56.4143 11.1914C56.3474 11.1914 56.2833 11.218 56.2359 11.2653C56.1886 11.3127 56.162 11.3768 56.162 11.4437C56.162 18.4529 48.8829 24.1551 39.9259 24.1551C39.0176 24.156 38.1103 24.0966 37.2098 23.9772C37.1617 23.971 37.1127 23.9784 37.0685 23.9986L32.7856 26.0032C32.7337 26.0276 32.6917 26.069 32.6664 26.1205C32.6411 26.172 32.6342 26.2305 32.6467 26.2865C32.6592 26.3425 32.6904 26.3925 32.7351 26.4284C32.7798 26.4643 32.8355 26.4839 32.8928 26.4839C32.9299 26.4839 32.9665 26.4757 33.0001 26.4599L37.2124 24.4869C38.1122 24.6027 39.0186 24.6605 39.9259 24.6597C49.1592 24.6597 56.6704 18.7304 56.6704 11.4437C56.6704 11.4103 56.6638 11.3772 56.6509 11.3463C56.638 11.3154 56.619 11.2875 56.5952 11.264C56.5714 11.2405 56.5431 11.222 56.5121 11.2095C56.481 11.1971 56.4478 11.1909 56.4143 11.1914Z" fill="black"/>
<path d="M39.9594 19.0763C40.2484 19.0661 40.5299 18.9818 40.7769 18.8316L40.7971 18.819C41.3484 18.4405 41.6284 17.9599 41.6284 17.3985V17.3241C41.6232 17.0129 41.5296 16.7097 41.3585 16.4498L41.3459 16.4321C40.9674 15.9275 40.5095 15.6651 39.996 15.6651C39.7513 15.6651 39.0423 15.674 37.782 15.6929C39.8799 13.2833 40.9434 11.1828 40.9434 9.4457C40.9516 8.93293 40.858 8.42363 40.6681 7.94725C40.4782 7.47087 40.1957 7.03686 39.8371 6.6703C38.8114 5.69639 37.6811 5.20312 36.4776 5.20312C34.9271 5.20312 33.4726 5.98024 32.1643 7.50418C31.5701 8.13496 31.2812 8.69256 31.2812 9.19592V9.25142C31.2892 9.53001 31.3618 9.80294 31.4932 10.0487L31.5096 10.0777C31.8881 10.6429 32.3788 10.9293 32.9604 10.9293H33.0159C33.6466 10.9293 34.1815 10.576 34.6092 9.88094C35.3157 9.04579 35.9288 8.61939 36.4321 8.61939H36.4965C36.7483 8.63871 36.9878 8.73618 37.1815 8.89819L37.1992 8.90955C37.4881 9.0849 37.5221 9.26656 37.5221 9.38893V9.45327C37.5221 9.74721 37.396 10.1623 37.1437 10.6921C36.8459 11.3532 36.1975 12.2766 35.216 13.441C34.7379 14.0213 33.9078 14.864 32.7484 15.9452C32.1795 16.3804 31.8906 16.8749 31.8906 17.4161V17.5082C31.8942 17.7439 31.9477 17.9761 32.0475 18.1896C32.1473 18.4031 32.2912 18.5931 32.4696 18.7471L32.4936 18.7673C32.8721 19.0435 33.1925 19.1773 33.489 19.1773C37.5108 19.1167 39.6869 19.0763 39.9594 19.0763ZM32.8077 18.3711C32.6825 18.2645 32.5813 18.1326 32.5106 17.9841C32.44 17.8356 32.4015 17.6739 32.3977 17.5095V17.4174C32.3977 17.0389 32.616 16.6819 33.0663 16.34L33.0853 16.3236C34.2661 15.2236 35.1151 14.3619 35.6083 13.7652C36.6327 12.5516 37.2875 11.6206 37.6066 10.9053C37.8905 10.3036 38.0293 9.82921 38.0293 9.45453V9.39019C38.0293 9.13789 37.9321 8.76699 37.4729 8.48567C37.1952 8.26354 36.8543 8.13503 36.499 8.11856H36.4347C35.7635 8.11856 35.0369 8.5929 34.2143 9.56933C34.206 9.57925 34.1984 9.58979 34.1916 9.60087C33.8548 10.1547 33.47 10.4247 33.0184 10.4247H32.9629C32.5592 10.4247 32.2236 10.2228 31.9398 9.80777C31.8481 9.63608 31.7963 9.4459 31.7884 9.25142V9.19592C31.7884 8.83133 32.0407 8.37843 32.5453 7.84102C33.7602 6.42556 35.0861 5.70774 36.4826 5.70774C37.5524 5.70774 38.5654 6.15433 39.4863 7.02732C39.7993 7.34612 40.0452 7.72435 40.2096 8.13969C40.3741 8.55503 40.4537 8.9991 40.4439 9.4457C40.4439 11.15 39.3085 13.2732 37.0553 15.7534C37.0133 15.7997 36.9899 15.8599 36.9897 15.9225V15.9502C36.9897 15.9838 36.9964 16.0171 37.0094 16.0481C37.0224 16.079 37.0414 16.1071 37.0654 16.1306C37.0889 16.1544 37.1171 16.1731 37.1481 16.1855C37.1792 16.1978 37.2124 16.2036 37.2458 16.2025C38.8505 16.1773 39.726 16.166 40.0011 16.166C40.3505 16.166 40.6571 16.3476 40.9409 16.7223C41.0584 16.9 41.1236 17.1073 41.1289 17.3203V17.3947C41.1289 17.782 40.9308 18.1087 40.5246 18.3926C40.3554 18.4968 40.1629 18.5571 39.9645 18.5679C39.6844 18.5679 37.5675 18.602 33.4927 18.6701C33.3666 18.6739 33.1496 18.6209 32.8077 18.3711Z" fill="black"/>
<path d="M41.9124 13.8711C42.2656 14.5977 42.8093 14.9674 43.5284 14.9674C43.5448 14.9686 43.5613 14.9686 43.5776 14.9674H43.5991C43.9233 14.9674 44.9439 14.9421 46.7151 14.8917C46.7075 15.3446 46.6936 16.2491 46.6735 17.5952C46.6889 17.8462 46.7613 18.0904 46.8854 18.3092L46.898 18.3319C47.2613 18.9009 47.7445 19.1898 48.3337 19.1898H48.4358C48.7102 19.1846 48.979 19.1113 49.218 18.9766C49.5851 18.7861 49.8601 18.4291 50.0355 17.9169C50.0601 17.8281 50.0728 17.7365 50.0733 17.6444C50.0809 17.5056 50.0885 17.2975 50.0948 17.0224C50.1074 16.5178 50.12 15.7722 50.1314 14.8009C50.7243 14.792 51.1002 14.7113 51.3084 14.5485C51.8559 14.1802 52.1347 13.7008 52.1347 13.123V13.0486C52.1287 12.7904 52.0672 12.5365 51.9543 12.3043C51.9543 12.2942 51.9429 12.2841 51.9366 12.274C51.5582 11.6811 51.0636 11.3795 50.4745 11.3795H50.4467H50.1843L50.2361 6.90737C50.2274 6.65938 50.1663 6.41604 50.0569 6.19333C50.0521 6.18148 50.0462 6.17008 50.0393 6.15927C49.6608 5.56634 49.1663 5.2661 48.5771 5.2661H48.5002C48.2802 5.27029 48.0631 5.31792 47.8616 5.40625C47.66 5.49458 47.4779 5.62187 47.3257 5.78081C47.3189 5.78617 47.3129 5.79255 47.308 5.79973C46.9914 6.17189 46.8312 6.54152 46.8312 6.89349L46.7668 11.4716C46.4792 11.4716 46.0238 11.488 45.3892 11.507C45.8169 6.90484 45.8169 6.81906 45.8169 6.77743V6.75472C45.8116 6.49108 45.746 6.23215 45.6251 5.99779L45.6138 5.97761C45.2517 5.3809 44.7647 5.07812 44.1668 5.07812H44.0558C43.7799 5.08335 43.5097 5.15751 43.2698 5.29385C42.9052 5.49065 42.6315 5.84514 42.4561 6.34976C42.4508 6.36397 42.4474 6.37882 42.446 6.39392C42.3893 6.77238 42.1786 8.96873 41.8052 13.1217C41.8045 13.1293 41.8045 13.1369 41.8052 13.1444V13.2933C41.8105 13.4752 41.8419 13.6553 41.8985 13.8282C41.9018 13.8429 41.9064 13.8573 41.9124 13.8711ZM42.3085 13.1608C42.6693 9.16049 42.8813 6.91998 42.9393 6.49863C43.0755 6.12395 43.2648 5.87164 43.5095 5.74548C43.6759 5.64928 43.8636 5.59595 44.0558 5.59031H44.1668C44.5793 5.59031 44.9098 5.80225 45.176 6.23622C45.2594 6.39678 45.3059 6.57391 45.3123 6.75472V6.7686C45.3123 6.8506 45.229 7.77783 44.8606 11.7403C44.8574 11.7752 44.8614 11.8104 44.8725 11.8436C44.8836 11.8769 44.9014 11.9074 44.925 11.9334C44.9487 11.9593 44.9775 11.9799 45.0097 11.9941C45.0418 12.0082 45.0766 12.0154 45.1117 12.0154H45.1281C46.1171 11.9851 46.7466 11.9699 47.0002 11.9699C47.2538 11.9699 47.2613 11.7391 47.2714 11.4893L47.3358 6.89349C47.3358 6.66263 47.4531 6.40653 47.684 6.13656C47.7886 6.02364 47.9147 5.93261 48.0548 5.86873C48.1949 5.80485 48.3463 5.76939 48.5002 5.76441H48.5746C48.9808 5.76441 49.3177 5.97508 49.6015 6.41032C49.6753 6.56271 49.7182 6.72822 49.7277 6.89727L49.6722 11.6281C49.6718 11.6615 49.6781 11.6946 49.6906 11.7256C49.7032 11.7566 49.7218 11.7847 49.7453 11.8085C49.7687 11.8323 49.7966 11.8513 49.8273 11.8643C49.8581 11.8773 49.8911 11.884 49.9245 11.8842H49.9409C50.1427 11.8842 50.3092 11.8741 50.4455 11.8741H50.4732C50.8807 11.8741 51.2175 12.086 51.5014 12.5212C51.5792 12.6829 51.6222 12.8591 51.6276 13.0385V13.1129C51.6276 13.5204 51.4282 13.8522 51.017 14.1221L50.998 14.1373C50.9551 14.1713 50.7609 14.2836 50.0279 14.2836H49.8879C49.8534 14.2836 49.8192 14.2906 49.7876 14.3043C49.7559 14.3179 49.7273 14.338 49.7037 14.3631C49.6794 14.3863 49.66 14.414 49.6465 14.4448C49.6331 14.4755 49.6259 14.5087 49.6255 14.5422C49.5977 17.0098 49.5712 17.6141 49.5561 17.7415C49.4236 18.12 49.2319 18.3874 48.9808 18.5174C48.8145 18.6138 48.6268 18.6672 48.4346 18.6725H48.3324C47.9237 18.6725 47.5957 18.472 47.3295 18.0594C47.2452 17.9145 47.1931 17.7532 47.1768 17.5863C47.2021 15.887 47.2172 14.8917 47.2235 14.6255C47.2244 14.5912 47.2182 14.557 47.2054 14.5251C47.1926 14.4932 47.1734 14.4643 47.1491 14.4401C47.1247 14.4159 47.0958 14.397 47.0639 14.3844C47.032 14.3718 46.9979 14.3658 46.9636 14.3669C45.0107 14.4224 43.8703 14.4501 43.5738 14.4501C43.5571 14.4488 43.5402 14.4488 43.5234 14.4501H43.5032C42.9986 14.4426 42.634 14.1827 42.3741 13.6579C42.3354 13.5378 42.313 13.4131 42.3073 13.287L42.3085 13.1608Z" fill="black"/>
</g>
<defs>
<clipPath id="clip0_418_9818">
<rect width="59.0391" height="56" fill="white" transform="translate(0.0625 0.445312)"/>
</clipPath>
</defs>
</svg>

