<svg width="57" height="57" viewBox="0 0 57 57" fill="none" xmlns="http://www.w3.org/2000/svg">
<g clip-path="url(#clip0_418_9845)">
<path d="M56.0167 5.83032L48.6208 20.7394L31.8678 54.511C31.5799 55.108 31.1017 55.5924 30.5084 55.8879C29.9151 56.1834 29.2404 56.2732 28.5904 56.1432L21.2017 54.6079L18.507 51.2707C19.1927 49.927 19.4906 48.5474 19.3446 47.3305V47.3293C17.2387 46.646 14.3131 47.4178 11.8745 49.5154C10.9764 50.2823 10.2072 51.1885 9.59629 52.1992L3.87317 51.0099C3.19485 50.867 2.58714 50.4931 2.15372 49.9521L1.52672 49.1755C1.16242 48.7243 0.930457 48.1809 0.856649 47.6057C0.76051 46.8929 0.908997 46.1686 1.27784 45.5512L19.2286 15.5607L27.054 2.48595C27.3133 2.04497 27.6813 1.67782 28.1229 1.41954C28.5645 1.16125 29.0649 1.02046 29.5764 1.0106L33.8194 0.950768L36.5152 4.28796C36.3548 4.95301 36.3107 5.64081 36.3848 6.32091C36.392 6.3233 36.3991 6.3257 36.4051 6.32809C36.4338 6.33766 36.4626 6.34604 36.4913 6.35441C36.5822 6.38074 36.6743 6.40706 36.7677 6.4286C36.8981 6.45851 37.0321 6.48364 37.1673 6.50398C37.3025 6.52432 37.4401 6.53988 37.5801 6.54945C37.6328 6.55304 37.6854 6.55663 37.7393 6.55902C37.7656 6.56022 37.7907 6.56142 37.8171 6.56142C37.8781 6.56381 37.9403 6.56501 38.0025 6.56501C39.85 6.56501 41.9942 5.73579 43.8537 4.136C44.9531 3.20336 45.8544 2.05967 46.504 0.772601L52.7937 0.683816C53.2384 0.678347 53.6786 0.773664 54.0812 0.962614C54.4964 1.15813 54.8617 1.44534 55.1498 1.8026L55.6499 2.42241C56.0291 2.89664 56.265 3.46924 56.33 4.07292C56.3949 4.6766 56.2862 5.28628 56.0167 5.83032Z" fill="#FCF4F6"/>
<path d="M54.0786 0.962723L45.7638 17.7241L19.2266 15.5607L27.052 2.48594C27.3113 2.04496 27.6793 1.67781 28.1209 1.41953C28.5625 1.16124 29.0629 1.02045 29.5744 1.01059L33.8174 0.950758L36.5132 4.28795C36.3528 4.953 36.3087 5.6408 36.3828 6.3209C36.39 6.32329 36.3971 6.32569 36.4031 6.32808C36.4318 6.33765 36.4606 6.34603 36.4893 6.3544C36.5802 6.38073 36.6723 6.40705 36.7657 6.42859C36.8961 6.4585 37.0301 6.48363 37.1653 6.50397C37.3005 6.52431 37.4381 6.53987 37.5781 6.54944C37.6308 6.55303 37.6834 6.55662 37.7373 6.55901C37.7636 6.56021 37.7887 6.56141 37.8151 6.56141C37.8761 6.5638 37.9383 6.565 38.0005 6.565C39.848 6.565 41.9922 5.73578 43.8517 4.13599C44.9511 3.20335 45.8524 2.05966 46.502 0.772591L52.7917 0.683806C53.2363 0.678465 53.6762 0.77382 54.0786 0.962723Z" fill="#02C9C0"/>
<path d="M36.3812 6.32339C35.6576 6.10025 35.0158 5.66863 34.5362 5.08256C33.6651 4.00315 33.4569 2.51822 33.8159 0.953125L36.5118 4.29032C36.3515 4.95543 36.3073 5.64324 36.3812 6.32339Z" fill="#02AFA7"/>
<path d="M13.6969 38.8774L18.767 40.0141C19.0156 40.0683 19.275 40.0383 19.5046 39.9289C19.7342 39.8194 19.9209 39.6368 20.0354 39.4096L29.1881 21.7515C29.5654 21.0237 29.1317 20.1299 28.3412 20.0052L24.0284 19.3255C23.7983 19.2906 23.5631 19.3265 23.3539 19.4285C23.1447 19.5305 22.9715 19.6938 22.8574 19.8966L12.9469 37.0975C12.852 37.2593 12.7962 37.441 12.7839 37.6281C12.7715 37.8152 12.803 38.0026 12.8758 38.1754C12.9487 38.3482 13.0608 38.5017 13.2033 38.6235C13.3459 38.7454 13.5149 38.8323 13.6969 38.8774Z" fill="#FDE931"/>
<path d="M19.3395 47.3303C17.2336 46.6471 14.308 47.4189 11.8694 49.5164C10.9713 50.2834 10.2021 51.1895 9.5912 52.2003L3.86808 51.0109C3.18977 50.868 2.58206 50.4942 2.14863 49.9532L1.52163 49.1766C1.15733 48.7254 0.92537 48.1819 0.851562 47.6067L6.89536 48.8619C7.50669 47.8515 8.2763 46.9457 9.1748 46.1792C12.4582 43.3542 16.6281 42.9318 18.4888 45.2352C18.9658 45.8385 19.2609 46.5653 19.3395 47.3303Z" fill="#F0E3E7"/>
<path d="M56.0174 5.83243L48.6215 20.7415L31.8686 54.5131C31.5807 55.1102 31.1025 55.5945 30.5092 55.89C29.9159 56.1855 29.2411 56.2753 28.5912 56.1453L21.2025 54.61L18.5078 51.2728L25.8965 52.808C26.5463 52.9379 27.2208 52.848 27.8139 52.5526C28.407 52.2571 28.885 51.7728 29.1727 51.1759L45.7665 17.7262L54.0814 0.964844C54.4966 1.16036 54.8619 1.44757 55.1499 1.80483L55.6501 2.42464C56.0293 2.8988 56.2653 3.47134 56.3304 4.075C56.3955 4.67866 56.2869 5.28835 56.0174 5.83243Z" fill="#F0E3E7"/>
<path d="M56.0165 5.83243L48.6206 20.7415L45.7656 17.7262L54.0805 0.964844C54.4956 1.16036 54.861 1.44757 55.149 1.80483L55.6492 2.42464C56.0284 2.8988 56.2644 3.47134 56.3295 4.075C56.3946 4.67866 56.286 5.28835 56.0165 5.83243Z" fill="#02AFA7"/>
<path d="M55.8338 2.27371L55.3328 1.65329C55.0291 1.27083 54.6417 0.963093 54.2004 0.753733C53.7592 0.544374 53.2758 0.438965 52.7875 0.445608L46.4979 0.534512C46.4538 0.535133 46.4107 0.547932 46.3734 0.571497C46.3361 0.595063 46.3061 0.628476 46.2866 0.668048C45.6507 1.92582 44.7698 3.04378 43.6957 3.95618C41.4484 5.88922 38.6856 6.7359 36.6042 6.14121C36.5573 5.53801 36.6051 4.93119 36.746 4.34279C36.754 4.30753 36.7539 4.27092 36.7458 4.23568C36.7377 4.20045 36.7216 4.16753 36.6989 4.13938L34.0036 0.801464C34.0018 0.79931 33.9996 0.797874 33.9978 0.79584C33.9908 0.787878 33.9832 0.780402 33.9751 0.773464C33.9703 0.769157 33.9659 0.76461 33.9607 0.760781C33.9519 0.754368 33.9427 0.748648 33.933 0.74367C33.9277 0.740679 33.9229 0.736969 33.9174 0.734457C33.9025 0.727628 33.8869 0.722336 33.8709 0.718662H33.8702C33.8659 0.717705 33.8612 0.717705 33.8566 0.716867C33.8437 0.714479 33.8306 0.713198 33.8174 0.713038C33.8162 0.713038 33.8151 0.713038 33.8139 0.713038L29.5709 0.772866C29.0184 0.782014 28.4776 0.933224 28.0004 1.21194C27.5232 1.49066 27.1259 1.88751 26.8465 2.36429L1.07018 45.4296C0.712233 46.0293 0.546091 46.7239 0.594016 47.4206C0.641942 48.1173 0.901645 48.7827 1.33833 49.3277L1.96508 50.1037C2.43423 50.6869 3.09041 51.0901 3.82262 51.2451L9.54574 52.4342C9.59438 52.4441 9.64491 52.4387 9.69036 52.4187C9.73582 52.3988 9.77396 52.3652 9.79953 52.3226C10.3965 51.3334 11.1493 50.447 12.0288 49.6978C14.2766 47.7645 17.0396 46.9182 19.1211 47.5133C19.2168 48.6334 18.9252 49.9222 18.2914 51.1628C18.2703 51.204 18.2616 51.2504 18.2664 51.2964C18.2711 51.3425 18.2891 51.3861 18.3182 51.4221L21.0137 54.7594C21.0484 54.8025 21.097 54.8321 21.1511 54.8432L28.54 56.3781C28.7499 56.4218 28.9638 56.4437 29.1782 56.4437C29.7837 56.4394 30.376 56.2663 30.8886 55.9439C31.4011 55.6215 31.8136 55.1626 32.0798 54.6187L56.2295 5.9378C56.5197 5.35287 56.6366 4.69717 56.5665 4.04799C56.4964 3.39881 56.2421 2.7832 55.8338 2.27371ZM33.9568 1.5054L36.2542 4.34997C36.1382 4.88128 36.0912 5.42533 36.1143 5.96867C35.5722 5.74351 35.0945 5.38699 34.7245 4.93126C34.0196 4.05921 33.7546 2.85571 33.9568 1.5054ZM55.8008 5.72529L31.6513 54.4062C31.3858 54.9547 30.946 55.3997 30.4007 55.6718C29.8554 55.9438 29.2354 56.0275 28.6375 55.9097L21.3325 54.3922L18.7876 51.2412C19.4532 49.8856 19.7272 48.5268 19.5807 47.3024C19.5807 47.3011 19.5798 47.2999 19.5797 47.2987C19.4959 46.4899 19.1829 45.7219 18.6775 45.085C17.9544 44.1898 16.8837 43.6541 15.5814 43.5359C13.4874 43.3458 11.0345 44.2658 9.02141 45.9979C8.14679 46.7439 7.39166 47.6196 6.7823 48.5944L4.7028 48.1627C4.641 48.1506 4.57694 48.1634 4.52449 48.1983C4.47205 48.2331 4.43545 48.2872 4.42264 48.3489C4.40982 48.4105 4.42182 48.4747 4.45604 48.5276C4.49025 48.5805 4.54391 48.6177 4.6054 48.6313L6.85026 49.0973C6.89895 49.1074 6.94958 49.1021 6.99511 49.0821C7.04063 49.0621 7.07879 49.0284 7.10429 48.9857C7.70124 47.9965 8.45398 47.1102 9.33347 46.3609C11.2511 44.711 13.5706 43.8327 15.5381 44.0122C16.7086 44.1185 17.6653 44.5934 18.3051 45.3856C18.6795 45.8557 18.9337 46.4099 19.0458 47.0002C16.8403 46.4721 14.0116 47.3616 11.7169 49.3351C10.8423 50.0811 10.0871 50.9568 9.47778 51.9316L3.92002 50.7769C3.2961 50.6446 2.73708 50.3007 2.33757 49.8035L1.71082 49.0268C1.33544 48.5583 1.11225 47.9861 1.07115 47.3871C1.03005 46.7881 1.17299 46.1909 1.48084 45.6754L19.3553 15.8119L45.3924 17.9352L28.9554 51.069C28.69 51.6174 28.2503 52.0624 27.7051 52.3344C27.16 52.6063 26.54 52.6901 25.9423 52.5724L23.619 52.0898C23.5881 52.0828 23.556 52.0821 23.5248 52.0877C23.4935 52.0933 23.4637 52.105 23.437 52.1222C23.4103 52.1394 23.3873 52.1617 23.3694 52.1879C23.3514 52.2141 23.3388 52.2436 23.3324 52.2747C23.3259 52.3057 23.3257 52.3378 23.3318 52.369C23.3378 52.4001 23.35 52.4298 23.3677 52.4562C23.3853 52.4826 23.408 52.5052 23.4344 52.5228C23.4609 52.5403 23.4906 52.5524 23.5218 52.5584L25.845 53.0409C26.0548 53.0845 26.2686 53.1065 26.4829 53.1065C27.0883 53.1023 27.6807 52.9293 28.1932 52.6069C28.7057 52.2845 29.1182 51.8256 29.3842 51.2816L45.9763 17.8349L45.9794 17.8287L50.9058 7.89812C50.92 7.86994 50.9285 7.83922 50.9308 7.80773C50.9331 7.77625 50.9292 7.74461 50.9192 7.71465C50.9093 7.6847 50.8935 7.65701 50.8728 7.63318C50.852 7.60936 50.8268 7.58987 50.7985 7.57583C50.7703 7.5618 50.7395 7.5535 50.708 7.55141C50.6765 7.54933 50.6449 7.55349 50.615 7.56368C50.5851 7.57386 50.5575 7.58985 50.5339 7.61074C50.5102 7.63162 50.4909 7.65699 50.477 7.68537L45.6213 17.4732L19.6294 15.3547L27.2573 2.60982C27.4949 2.20321 27.8332 1.86461 28.2396 1.62663C28.646 1.38864 29.1068 1.25929 29.5776 1.25101L33.5228 1.19537C33.2288 2.7759 33.5189 4.2004 34.352 5.23195C34.8437 5.83637 35.4987 6.28673 36.2391 6.52938C36.2544 6.53439 36.2702 6.53788 36.2862 6.53979C36.2935 6.5439 36.301 6.54761 36.3086 6.55091C38.5611 7.28081 41.5832 6.40481 44.0081 4.3191C45.0928 3.39607 45.9898 2.273 46.6502 1.0111L52.7942 0.92423C53.2098 0.918942 53.6211 1.00894 53.9965 1.18732C54.3719 1.3657 54.7015 1.62772 54.9599 1.95327L55.4609 2.57356C55.8122 3.0118 56.0309 3.54137 56.0911 4.0998C56.1513 4.65823 56.0506 5.22224 55.8008 5.72529Z" fill="black"/>
<path d="M29.4083 20.5276C29.3101 20.3281 29.1653 20.1552 28.9862 20.0234C28.8071 19.8916 28.599 19.8048 28.3793 19.7703L24.0665 19.0907C23.7885 19.0473 23.5039 19.09 23.2509 19.213C22.9978 19.336 22.7884 19.5334 22.6508 19.7787L12.7411 36.9793C12.627 37.1787 12.5612 37.4019 12.549 37.6313C12.5367 37.8606 12.5783 38.0896 12.6705 38.3C12.7573 38.503 12.891 38.6825 13.0607 38.8237C13.2304 38.9649 13.4313 39.0637 13.6467 39.1121L18.7168 40.2488C18.814 40.2706 18.9133 40.2816 19.0129 40.2816C19.2689 40.28 19.5196 40.2082 19.7377 40.0741C19.9557 39.94 20.1329 39.7486 20.2497 39.5208L29.4024 21.8628C29.5088 21.6565 29.5648 21.428 29.5658 21.1959C29.5668 20.9638 29.5128 20.7348 29.4083 20.5276ZM28.9768 21.643L19.8243 39.3011C19.7334 39.4807 19.5858 39.6253 19.4044 39.7123C19.223 39.7993 19.0178 39.824 18.8209 39.7824L13.7508 38.6456C13.6087 38.6133 13.4764 38.5477 13.3647 38.4542C13.253 38.3608 13.1651 38.242 13.1082 38.1079C13.0452 37.9665 13.0166 37.8122 13.0249 37.6576C13.0333 37.503 13.0782 37.3526 13.1561 37.2188L23.0662 20.018C23.1446 19.8779 23.2588 19.7611 23.397 19.6794C23.5352 19.5977 23.6926 19.5541 23.8532 19.5529C23.8999 19.5529 23.9465 19.5566 23.9927 19.5639L28.3053 20.2437C28.4499 20.2668 28.5867 20.3243 28.7044 20.4114C28.822 20.4984 28.917 20.6125 28.9814 20.744C29.0527 20.8832 29.0896 21.0376 29.0888 21.194C29.088 21.3505 29.0496 21.5044 28.9768 21.643Z" fill="black"/>
</g>
<defs>
<clipPath id="clip0_418_9845">
<rect width="56" height="56" fill="white" transform="translate(0.585938 0.445312)"/>
</clipPath>
</defs>
</svg>
