<svg width="61" height="57" viewBox="0 0 61 57" fill="none" xmlns="http://www.w3.org/2000/svg">
<g clip-path="url(#clip0_418_9792)">
<path d="M57.8859 25.9991L52.6809 46.9729C52.5521 47.4986 52.3158 47.9918 51.9867 48.4215C51.6576 48.8512 51.2429 49.208 50.7689 49.4693L39.305 55.7269C38.8548 55.973 38.359 56.1245 37.8482 56.1722C37.3373 56.22 36.8221 56.1628 36.3341 56.0044L10.6425 47.6149C10.0159 47.4074 9.45239 47.0439 9.00495 46.5586C8.55751 46.0734 8.24084 45.4823 8.08472 44.841L2.99219 24.2969L52.7832 25.8405L57.8859 25.9991Z" fill="#02C9C0"/>
<path d="M57.8858 26.0011L52.6807 46.9748C52.552 47.5005 52.3156 47.9938 51.9865 48.4235C51.6574 48.8532 51.2428 49.21 50.7688 49.4712L39.3048 55.7288C38.8628 55.971 38.3765 56.1215 37.875 56.1713V34.1565L52.783 25.8438L57.8858 26.0011Z" fill="#02AFA7"/>
<path d="M60.2548 22.5703V27.9595C60.2602 28.4449 60.1215 28.921 59.8563 29.3276C59.5911 29.7341 59.2113 30.0529 58.7649 30.2436L38.373 38.6204C37.9335 38.8018 37.448 38.8403 36.9854 38.7303L2.74443 30.5761C2.21492 30.4413 1.74631 30.132 1.41425 29.6981C1.08219 29.2641 0.906076 28.731 0.914341 28.1846V22.7954C0.912538 22.2368 1.09705 21.6936 1.43869 21.2518C1.69118 20.9263 2.0239 20.672 2.40425 20.5138L22.7961 12.1333C23.2375 11.9504 23.7255 11.9119 24.1901 12.0233L58.4311 20.1762C58.8871 20.2851 59.2992 20.5299 59.6128 20.8783C60.0303 21.3425 60.2593 21.946 60.2548 22.5703Z" fill="#DDEFE7"/>
<path d="M59.6052 20.8783L38.3718 29.6042C37.9323 29.7857 37.4468 29.8242 36.9842 29.7142L1.4375 21.2518C1.68999 20.9263 2.02272 20.672 2.40306 20.5138L22.7949 12.1333C23.2364 11.9504 23.7243 11.9119 24.1889 12.0233L58.4299 20.1762C58.8836 20.2862 59.2933 20.531 59.6052 20.8783Z" fill="#02C9C0"/>
<path d="M16.7075 37.928C16.6708 37.5908 16.5677 37.2643 16.4042 36.9671C16.2406 36.67 16.0198 36.4081 15.7546 36.1967C15.4893 35.9854 15.1849 35.8286 14.8587 35.7355C14.5326 35.6423 14.1912 35.6147 13.8543 35.6542C13.1737 35.7489 12.5581 36.1088 12.1418 36.6555C11.7254 37.2022 11.542 37.8913 11.6316 38.5726L12.4194 45.0208C12.4893 45.6465 12.7856 46.225 13.2525 46.6474C13.7194 47.0697 14.3246 47.3068 14.9542 47.3138C15.0606 47.3138 15.1669 47.3074 15.2726 47.2946C15.9533 47.1999 16.569 46.84 16.9856 46.2934C17.4021 45.7468 17.5858 45.0577 17.4966 44.3762L16.7075 37.928Z" fill="#EEECFF"/>
<path d="M24.7589 39.689C24.716 39.012 24.4059 38.3797 23.8968 37.9314C23.3878 37.483 22.7215 37.2552 22.0444 37.2981C21.3674 37.341 20.7352 37.6511 20.2868 38.1601C19.8384 38.6692 19.6107 39.3355 19.6536 40.0125L20.0436 46.4607C20.0762 47.1179 20.3583 47.738 20.8324 48.1943C21.3066 48.6506 21.937 48.9088 22.595 48.9162H22.7549C23.4397 48.8648 24.0762 48.5442 24.5251 48.0245C24.9741 47.5049 25.1988 46.8285 25.1502 46.1435L24.7589 39.689Z" fill="#EEECFF"/>
<path d="M32.7909 47.9262L32.3995 41.478C32.3783 41.1428 32.2912 40.8151 32.1433 40.5135C31.9954 40.2119 31.7895 39.9424 31.5375 39.7204C31.2854 39.4984 30.9921 39.3282 30.6742 39.2196C30.3564 39.1109 30.0203 39.0659 29.6851 39.0872C29.3498 39.1084 29.0221 39.1955 28.7205 39.3434C28.4189 39.4913 28.1495 39.6971 27.9274 39.9492C27.7054 40.2013 27.5352 40.4946 27.4266 40.8124C27.3179 41.1303 27.2729 41.4664 27.2942 41.8016L27.6855 48.2498C27.7177 48.9069 27.9996 49.5269 28.4735 49.9833C28.9475 50.4396 29.5777 50.6979 30.2356 50.7052H30.3968C31.0825 50.6535 31.7198 50.3319 32.1686 49.8109C32.6174 49.2899 32.8412 48.612 32.7909 47.9262Z" fill="#EEECFF"/>
<path d="M44.8046 3.7711V16.9347L41.2761 16.0958L38.9191 15.5369V8.27535L22.245 15.1289V29.7568C22.245 31.4488 20.9175 32.1676 19.292 32.1676C17.6666 32.1676 16.3595 31.4488 16.3595 29.7568V13.0418C16.3535 12.4353 16.5272 11.8406 16.8589 11.3328C17.1905 10.825 17.6651 10.4268 18.2229 10.1886L40.7812 0.916618C41.2267 0.733525 41.7114 0.666577 42.1899 0.722052C42.6684 0.777527 43.1249 0.953607 43.5167 1.23378C43.9181 1.52345 44.2444 1.90488 44.4684 2.34624C44.6924 2.78761 44.8077 3.27614 44.8046 3.7711Z" fill="#EEECFF"/>
<path d="M41.2789 7.26953V16.0939L38.9219 15.5324V8.27346L41.2789 7.26953Z" fill="#D3D3FF"/>
<path d="M43.0662 29.3495C44.4663 24.5319 41.962 19.5687 37.4725 18.264C32.9831 16.9593 28.2087 19.807 26.8086 24.6246C25.4085 29.4422 27.9128 34.4054 32.4023 35.7101C36.8917 37.0148 41.6661 34.1671 43.0662 29.3495Z" fill="#FCF4F6"/>
<path d="M39.4581 25.6381H36.1177V22.3002C36.1237 22.0906 36.0876 21.882 36.0115 21.6866C35.9354 21.4912 35.8209 21.313 35.6748 21.1627C35.5287 21.0123 35.3539 20.8928 35.1607 20.8112C34.9676 20.7296 34.7601 20.6875 34.5504 20.6875C34.3407 20.6875 34.1332 20.7296 33.9401 20.8112C33.7469 20.8928 33.5721 21.0123 33.426 21.1627C33.2799 21.313 33.1654 21.4912 33.0893 21.6866C33.0132 21.882 32.9771 22.0906 32.9831 22.3002V25.6381H29.6439C29.4344 25.6321 29.2257 25.6682 29.0303 25.7443C28.8349 25.8204 28.6568 25.9348 28.5064 26.081C28.3561 26.2271 28.2365 26.4019 28.1549 26.595C28.0733 26.7882 28.0312 26.9957 28.0312 27.2054C28.0312 27.415 28.0733 27.6226 28.1549 27.8157C28.2365 28.0088 28.3561 28.1837 28.5064 28.3298C28.6568 28.4759 28.8349 28.5904 29.0303 28.6665C29.2257 28.7425 29.4344 28.7786 29.6439 28.7727H32.9831V32.1118C32.9771 32.3214 33.0132 32.5301 33.0893 32.7255C33.1654 32.9208 33.2799 33.099 33.426 33.2493C33.5721 33.3997 33.7469 33.5192 33.9401 33.6009C34.1332 33.6825 34.3407 33.7245 34.5504 33.7245C34.7601 33.7245 34.9676 33.6825 35.1607 33.6009C35.3539 33.5192 35.5287 33.3997 35.6748 33.2493C35.8209 33.099 35.9354 32.9208 36.0115 32.7255C36.0876 32.5301 36.1237 32.3214 36.1177 32.1118V28.7752H39.4581C39.6677 28.7812 39.8764 28.7451 40.0718 28.669C40.2672 28.5929 40.4453 28.4785 40.5957 28.3323C40.746 28.1862 40.8655 28.0114 40.9472 27.8183C41.0288 27.6251 41.0708 27.4176 41.0708 27.2079C41.0708 26.9983 41.0288 26.7907 40.9472 26.5976C40.8655 26.4045 40.746 26.2297 40.5957 26.0835C40.4453 25.9374 40.2672 25.8229 40.0718 25.7468C39.8764 25.6708 39.6677 25.6347 39.4581 25.6407V25.6381Z" fill="#FDE931"/>
<path d="M37.8808 42.3398C37.8129 42.3398 37.7479 42.3668 37.6999 42.4148C37.6519 42.4627 37.625 42.5278 37.625 42.5956V51.0555C37.625 51.1233 37.6519 51.1884 37.6999 51.2363C37.7479 51.2843 37.8129 51.3113 37.8808 51.3113C37.9486 51.3113 38.0137 51.2843 38.0616 51.2363C38.1096 51.1884 38.1366 51.1233 38.1366 51.0555V42.5956C38.1366 42.5278 38.1096 42.4627 38.0616 42.4148C38.0137 42.3668 37.9486 42.3398 37.8808 42.3398Z" fill="black"/>
<path d="M58.4816 19.9263L45.0609 16.729V3.77005C45.0639 3.23413 44.9389 2.70525 44.6962 2.22743C44.4535 1.74961 44.1002 1.33667 43.6656 1.02299C43.2388 0.717987 42.7414 0.526312 42.2203 0.46592C41.6991 0.405528 41.1711 0.478393 40.6858 0.677693L18.1262 9.95092C17.5204 10.2064 17.0044 10.6367 16.6442 11.1868C16.2841 11.737 16.0961 12.382 16.1043 13.0394V14.6048L2.3038 20.2767C1.88268 20.4519 1.51428 20.7335 1.23465 21.0939C0.859228 21.5814 0.655945 22.1795 0.656593 22.7948V28.184C0.646917 28.7882 0.841961 29.3779 1.21 29.8572C1.57804 30.3365 2.09741 30.6771 2.68363 30.8237L4.45617 31.2457L7.84651 44.903C8.01056 45.5865 8.34657 46.2169 8.82264 46.7341C9.29871 47.2514 9.89905 47.6384 10.5667 47.8585L36.2558 56.248C36.7776 56.4167 37.3283 56.4771 37.8743 56.4257C38.4203 56.3742 38.9501 56.2119 39.4312 55.9487L50.8952 49.6911C51.3998 49.4124 51.8412 49.0323 52.1918 48.5747C52.5424 48.1172 52.7946 47.592 52.9325 47.0323L56.8356 31.302L58.8601 30.4694C59.3534 30.2616 59.7737 29.9117 60.0673 29.4641C60.3609 29.0165 60.5145 28.4916 60.5086 27.9564V22.5697C60.5192 21.9649 60.3245 21.3743 59.9564 20.8942C59.5883 20.4142 59.0684 20.073 58.4816 19.9263ZM44.7616 17.1843L58.3639 20.4237C58.6453 20.4912 58.9094 20.6171 59.1389 20.7933L43.7053 27.1354C43.7968 25.4829 43.4542 23.8352 42.7116 22.3561C41.622 20.1987 39.788 18.6474 37.5474 18.0015C32.9281 16.66 28.0018 19.5925 26.5643 24.5392C26.3441 25.3009 26.2154 26.0861 26.1807 26.8783L22.5039 26.0035V15.2992L27.7639 13.1366L38.8493 15.7763C38.8601 15.7802 38.8712 15.7827 38.8826 15.7839L44.7425 17.1792L44.7616 17.1843ZM43.1618 27.5267C43.1044 28.1139 42.9922 28.6945 42.8267 29.2609C42.1992 31.4885 40.748 33.3941 38.7675 34.5913C36.8146 35.7563 34.5804 36.062 32.4779 35.4507C28.1297 34.1884 25.6998 29.3568 27.0554 24.6812C28.1911 20.769 31.6262 18.1857 35.2646 18.1857C35.9882 18.1862 36.7081 18.2891 37.4029 18.4913C39.5054 19.1014 41.2281 20.5555 42.2537 22.5838C43.0203 24.1115 43.3353 25.8262 43.1618 27.5267ZM28.5709 12.8041L38.6639 8.6554V15.2072L28.5709 12.8041ZM16.6159 13.0394C16.6072 12.4828 16.7648 11.9363 17.0685 11.4697C17.3722 11.0031 17.8082 10.6377 18.3206 10.4203L40.8789 1.15088C41.2849 0.983946 41.7267 0.923005 42.1627 0.973789C42.5988 1.02457 43.0147 1.18541 43.3715 1.44119C43.7393 1.70733 44.0381 2.05757 44.243 2.4627C44.4479 2.86782 44.5529 3.31607 44.5493 3.77005V16.6088L39.178 15.3299V8.44311L41.3803 7.50568C41.4427 7.47906 41.4919 7.42873 41.5173 7.36577C41.5426 7.30281 41.5418 7.23238 41.5152 7.16997C41.4886 7.10756 41.4382 7.05829 41.3753 7.03298C41.3123 7.00768 41.2419 7.00842 41.1795 7.03505L38.8289 8.03642L27.6527 12.6289H27.645L22.5013 14.7429V13.1801C22.5013 13.1123 22.4744 13.0472 22.4264 12.9993C22.3784 12.9513 22.3134 12.9243 22.2455 12.9243C22.1777 12.9243 22.1126 12.9513 22.0647 12.9993C22.0167 13.0472 21.9897 13.1123 21.9897 13.1801V15.1266V29.7545C21.9897 31.701 20.1034 31.9107 19.2926 31.9107C18.4818 31.9107 16.6159 31.701 16.6159 29.7545V13.0394ZM52.4363 46.9121C52.3153 47.4037 52.0937 47.8649 51.7855 48.2666C51.4774 48.6684 51.0893 49.0018 50.6458 49.2461L39.1819 55.5037C38.7616 55.7325 38.2991 55.8733 37.8225 55.9172C37.346 55.9612 36.8656 55.9075 36.4105 55.7594L10.7253 47.3712C10.1401 47.1781 9.61399 46.8385 9.19698 46.3848C8.77997 45.9311 8.4859 45.3783 8.34272 44.7789L5.01761 31.38L36.9259 38.9779C37.4404 39.1011 37.9806 39.0586 38.4695 38.8564L56.2461 31.5488L52.4363 46.9121ZM59.9971 27.9564C60.0037 28.3912 59.8806 28.8181 59.6435 29.1826C59.4063 29.547 59.0659 29.8326 58.6657 30.0026L38.2738 38.3832C37.8838 38.5445 37.4528 38.5786 37.0423 38.4804L2.80129 30.3262C2.32724 30.2059 1.90784 29.9287 1.61132 29.5398C1.3148 29.1509 1.15861 28.673 1.16815 28.184V22.7948C1.16733 22.293 1.33284 21.805 1.63878 21.4072C1.86452 21.1176 2.16089 20.8908 2.49947 20.7486L16.1043 15.1586V24.4791L5.97294 22.0671C5.90734 22.0524 5.83858 22.0641 5.78153 22.0996C5.72449 22.1352 5.68374 22.1918 5.66811 22.2572C5.65247 22.3226 5.66321 22.3915 5.698 22.449C5.73279 22.5066 5.78883 22.5481 5.854 22.5646L16.1043 25.006V29.7545C16.1043 31.4247 17.2962 32.4223 19.2926 32.4223C21.2889 32.4223 22.5013 31.4247 22.5013 29.7545V26.5343L26.1704 27.4078C26.2088 31.3301 28.6118 34.8675 32.3372 35.9482C33.0851 36.1664 33.8602 36.2771 34.6392 36.2769C36.1901 36.2689 37.7097 35.8401 39.0361 35.0363C41.1279 33.7729 42.6609 31.7612 43.3242 29.4092C43.4847 28.8546 43.5972 28.2873 43.6605 27.7134L59.5379 21.1911C59.839 21.5873 60.0004 22.0721 59.9971 22.5697V27.9564Z" fill="black"/>
<path d="M16.964 37.894C16.9196 37.5161 16.8004 37.1508 16.6134 36.8195C16.4263 36.4881 16.1751 36.1974 15.8744 35.9642C15.5878 35.739 15.2593 35.5729 14.9081 35.4754C14.5569 35.3779 14.1898 35.3511 13.8282 35.3964C13.0808 35.5007 12.4048 35.8956 11.9469 36.4955C11.4891 37.0953 11.2864 37.8516 11.3829 38.6L12.1656 45.0482C12.2427 45.7359 12.5688 46.3717 13.0824 46.8356C13.596 47.2994 14.2615 47.5594 14.9536 47.5663C15.0707 47.5667 15.1878 47.5594 15.304 47.5445C16.0502 47.4405 16.7254 47.0466 17.1832 46.4481C17.6409 45.8496 17.8443 45.0948 17.7492 44.3473L16.964 37.894ZM15.2349 47.0368C14.9319 47.0717 14.625 47.0464 14.3318 46.9623C14.0387 46.8782 13.765 46.7371 13.5265 46.5469C13.288 46.3568 13.0894 46.1215 12.9421 45.8544C12.7948 45.5873 12.7017 45.2938 12.6682 44.9906L11.8855 38.5437C11.8053 37.9296 11.9704 37.3085 12.3451 36.8153C12.7198 36.3221 13.2738 35.9966 13.887 35.9092C13.982 35.8976 14.0777 35.8916 14.1734 35.8913C14.6775 35.8918 15.167 36.0611 15.5636 36.3722C15.8106 36.5645 16.0169 36.8039 16.1706 37.0766C16.3242 37.3492 16.4222 37.6497 16.4588 37.9605L17.2402 44.4087C17.3193 45.0225 17.1531 45.6428 16.7776 46.1348C16.4022 46.6269 15.8479 46.951 15.2349 47.0368Z" fill="black"/>
<path d="M25.0143 39.6715C24.9926 39.292 24.8961 38.9206 24.7301 38.5786C24.5642 38.2366 24.3321 37.9309 24.0474 37.679C23.7741 37.4352 23.455 37.2481 23.1089 37.1284C22.7627 37.0088 22.3962 36.959 22.0306 36.982C21.2788 37.039 20.58 37.391 20.0867 37.9612C19.5934 38.5314 19.3456 39.2736 19.3974 40.0258L19.7887 46.4739C19.8255 47.196 20.1362 47.8769 20.6575 48.3778C21.1789 48.8787 21.8716 49.162 22.5946 49.1698H22.7711C23.5229 49.1129 24.2217 48.7609 24.715 48.1907C25.2083 47.6205 25.4561 46.8783 25.4043 46.1261L25.0143 39.6715ZM22.7391 48.6583C22.1227 48.6879 21.5197 48.4718 21.0623 48.0576C20.6049 47.6434 20.3304 47.0647 20.299 46.4484L19.9077 40.0002C19.8639 39.3832 20.0659 38.774 20.4696 38.3054C20.8733 37.8368 21.4459 37.5468 22.0626 37.4987H22.2058C22.7602 37.4992 23.2951 37.7036 23.7085 38.0729C23.9421 38.2793 24.1325 38.5298 24.2688 38.8101C24.4051 39.0904 24.4846 39.3949 24.5027 39.7061L24.894 46.1542C24.9385 46.7716 24.7368 47.3815 24.333 47.8507C23.9293 48.3199 23.3562 48.6102 22.7391 48.6583Z" fill="black"/>
<path d="M32.6548 41.4645C32.6337 41.0847 32.5374 40.7129 32.3715 40.3706C32.2055 40.0283 31.9732 39.7224 31.688 39.4707C31.4146 39.2273 31.0958 39.0405 30.7498 38.9211C30.4039 38.8016 30.0377 38.752 29.6724 38.775C28.9205 38.832 28.2216 39.1839 27.7281 39.7541C27.2346 40.3243 26.9865 41.0664 27.0379 41.8188L27.4293 48.2669C27.4666 48.9888 27.7775 49.6693 28.2987 50.1701C28.8199 50.6709 29.5124 50.9544 30.2351 50.9628H30.4129C31.1647 50.9058 31.8635 50.5539 32.3568 49.9836C32.8501 49.4134 33.0979 48.6713 33.0461 47.9191L32.6548 41.4645ZM30.3809 50.4513C29.7643 50.4812 29.161 50.2653 28.7033 49.851C28.2457 49.4368 27.971 48.8579 27.9395 48.2413L27.5495 41.7932C27.5054 41.176 27.7072 40.5664 28.111 40.0975C28.5147 39.6286 29.0875 39.3385 29.7044 39.2904H29.8489C30.4012 39.2883 30.9349 39.489 31.349 39.8544C31.5844 40.0618 31.7759 40.3141 31.9125 40.5966C32.0491 40.879 32.128 41.1858 32.1445 41.499L32.5359 47.9472C32.58 48.5645 32.3781 49.1742 31.9744 49.6433C31.5708 50.1124 30.9979 50.4029 30.3809 50.4513Z" fill="black"/>
<path d="M39.4596 25.3838H36.3749V22.3017C36.3814 22.0582 36.339 21.8159 36.2503 21.5891C36.1616 21.3623 36.0283 21.1555 35.8584 20.981C35.6885 20.8065 35.4853 20.6679 35.2609 20.5732C35.0365 20.4785 34.7954 20.4297 34.5519 20.4297C34.3083 20.4297 34.0672 20.4785 33.8428 20.5732C33.6185 20.6679 33.4153 20.8065 33.2454 20.981C33.0754 21.1555 32.9422 21.3623 32.8535 21.5891C32.7648 21.8159 32.7224 22.0582 32.7288 22.3017V25.3838H29.6454C29.402 25.3773 29.1597 25.4197 28.9328 25.5085C28.706 25.5972 28.4993 25.7304 28.3248 25.9003C28.1503 26.0703 28.0116 26.2734 27.9169 26.4978C27.8222 26.7222 27.7734 26.9633 27.7734 27.2069C27.7734 27.4504 27.8222 27.6915 27.9169 27.9159C28.0116 28.1403 28.1503 28.3434 28.3248 28.5134C28.4993 28.6833 28.706 28.8165 28.9328 28.9053C29.1597 28.994 29.402 29.0364 29.6454 29.0299H32.7288V32.1133C32.7224 32.3568 32.7648 32.5991 32.8535 32.8259C32.9422 33.0527 33.0754 33.2595 33.2454 33.434C33.4153 33.6084 33.6185 33.7471 33.8428 33.8418C34.0672 33.9365 34.3083 33.9853 34.5519 33.9853C34.7954 33.9853 35.0365 33.9365 35.2609 33.8418C35.4853 33.7471 35.6885 33.6084 35.8584 33.434C36.0283 33.2595 36.1616 33.0527 36.2503 32.8259C36.339 32.5991 36.3814 32.3568 36.3749 32.1133V29.0325H39.4596C39.7031 29.0389 39.9454 28.9965 40.1722 28.9078C40.399 28.8191 40.6058 28.6858 40.7803 28.5159C40.9548 28.346 41.0934 28.1428 41.1881 27.9184C41.2828 27.6941 41.3316 27.453 41.3316 27.2094C41.3316 26.9659 41.2828 26.7248 41.1881 26.5004C41.0934 26.276 40.9548 26.0728 40.7803 25.9029C40.6058 25.733 40.399 25.5997 40.1722 25.511C39.9454 25.4223 39.7031 25.3799 39.4596 25.3864V25.3838ZM39.4596 28.5184H36.1192C36.0513 28.5184 35.9863 28.5453 35.9383 28.5933C35.8903 28.6412 35.8634 28.7063 35.8634 28.7741V32.1133C35.8689 32.289 35.839 32.464 35.7756 32.6279C35.7121 32.7918 35.6164 32.9413 35.4941 33.0675C35.3717 33.1937 35.2253 33.294 35.0635 33.3626C34.9016 33.4311 34.7276 33.4664 34.5519 33.4664C34.3761 33.4664 34.2022 33.4311 34.0403 33.3626C33.8784 33.294 33.732 33.1937 33.6097 33.0675C33.4874 32.9413 33.3916 32.7918 33.3282 32.6279C33.2648 32.464 33.2349 32.289 33.2404 32.1133V28.7767C33.2404 28.7089 33.2134 28.6438 33.1655 28.5958C33.1175 28.5479 33.0524 28.5209 32.9846 28.5209H29.6454C29.4697 28.5264 29.2948 28.4965 29.1309 28.4331C28.9669 28.3697 28.8174 28.2739 28.6912 28.1516C28.565 28.0293 28.4647 27.8828 28.3962 27.721C28.3276 27.5591 28.2923 27.3852 28.2923 27.2094C28.2923 27.0336 28.3276 26.8597 28.3962 26.6978C28.4647 26.536 28.565 26.3895 28.6912 26.2672C28.8174 26.1449 28.9669 26.0492 29.1309 25.9857C29.2948 25.9223 29.4697 25.8924 29.6454 25.8979H32.9846C33.0524 25.8979 33.1175 25.871 33.1655 25.823C33.2134 25.775 33.2404 25.71 33.2404 25.6421V22.3017C33.2349 22.126 33.2648 21.951 33.3282 21.7871C33.3916 21.6232 33.4874 21.4737 33.6097 21.3475C33.732 21.2213 33.8784 21.1209 34.0403 21.0524C34.2022 20.9839 34.3761 20.9486 34.5519 20.9486C34.7276 20.9486 34.9016 20.9839 35.0635 21.0524C35.2253 21.1209 35.3717 21.2213 35.4941 21.3475C35.6164 21.4737 35.7121 21.6232 35.7756 21.7871C35.839 21.951 35.8689 22.126 35.8634 22.3017V25.6396C35.8634 25.7074 35.8903 25.7725 35.9383 25.8204C35.9863 25.8684 36.0513 25.8954 36.1192 25.8954H39.4596C39.6353 25.8899 39.8103 25.9197 39.9742 25.9832C40.1381 26.0466 40.2876 26.1423 40.4138 26.2647C40.54 26.387 40.6404 26.5334 40.7089 26.6953C40.7774 26.8571 40.8127 27.0311 40.8127 27.2069C40.8127 27.3826 40.7774 27.5566 40.7089 27.7184C40.6404 27.8803 40.54 28.0267 40.4138 28.149C40.2876 28.2714 40.1381 28.3671 39.9742 28.4305C39.8103 28.494 39.6353 28.5238 39.4596 28.5184Z" fill="black"/>
</g>
<defs>
<clipPath id="clip0_418_9792">
<rect width="59.852" height="56" fill="white" transform="translate(0.65625 0.445312)"/>
</clipPath>
</defs>
</svg>

