<svg width="57" height="57" viewBox="0 0 57 57" fill="none" xmlns="http://www.w3.org/2000/svg">
<g clip-path="url(#clip0_418_9776)">
<path d="M10.923 46.2303C10.923 51.6436 18.8295 56.0309 28.5826 56.0309C38.3356 56.0309 46.2422 51.6436 46.2422 46.2303C46.2422 44.8523 45.7297 43.5409 44.8047 42.3507C42.0963 38.8682 35.8531 36.4297 28.5826 36.4297C21.3121 36.4297 15.0689 38.8682 12.3604 42.3507C11.4354 43.5409 10.923 44.8523 10.923 46.2303Z" fill="#02C9C0"/>
<path d="M28.5825 48.2717C19.6233 48.2717 12.3604 45.6208 12.3604 42.3507C12.3604 39.0806 19.6233 36.4297 28.5825 36.4297C37.5418 36.4297 44.8047 39.0806 44.8047 42.3507C44.8047 45.6208 37.5418 48.2717 28.5825 48.2717Z" fill="#02AFA7"/>
<path d="M12.0563 17.3859C12.0563 26.5124 21.2267 43.7808 28.5828 43.7808C35.5632 43.7808 45.1094 26.5112 45.1094 17.3859C45.1094 8.25851 37.7102 0.859375 28.5828 0.859375C19.4554 0.859375 12.0563 8.25851 12.0563 17.3859Z" fill="#F0E3E7"/>
<path d="M28.5672 29.8598C22.5766 29.8598 17.7203 24.2912 17.7203 17.4221C17.7203 10.5529 22.5766 4.98438 28.5672 4.98438C34.5577 4.98438 39.4141 10.5529 39.4141 17.4221C39.4141 24.2912 34.5577 29.8598 28.5672 29.8598Z" fill="#FDE931"/>
<path d="M19.303 37.4493C14.9598 31.47 11.6402 22.862 11.6402 17.3856C11.6402 8.04514 19.2388 0.445312 28.5841 0.445312C37.9293 0.445312 45.5208 8.04514 45.5208 17.3856C45.5208 21.8085 43.282 28.4156 39.8138 34.2201C39.1361 35.3555 38.4322 36.422 37.7165 37.4029C43.2487 39.2256 46.6562 42.5737 46.6562 46.2286C46.6562 49.0048 44.7432 51.5955 41.2691 53.5229C37.8734 55.4074 33.3672 56.4453 28.5841 56.4453C23.8009 56.4453 19.2912 55.4074 15.8955 53.5229C12.4213 51.5955 10.5083 49.0048 10.5083 46.2286C10.5047 42.6118 13.86 39.2815 19.303 37.4493ZM39.1028 33.7933C42.4961 28.1088 44.6909 21.6659 44.6909 17.3856C44.6885 8.50408 37.4632 1.27758 28.5841 1.27758C19.7049 1.27758 12.4725 8.50408 12.4725 17.3856C12.4725 21.7313 14.6126 28.1719 17.9191 33.7933C18.6439 35.033 19.4378 36.231 20.297 37.3815C20.3125 37.3985 20.3264 37.4168 20.3386 37.4362C23.185 41.2076 26.1348 43.3668 28.5841 43.3668C30.9227 43.3668 33.8155 41.2064 36.669 37.4315C36.6893 37.3935 36.7154 37.3591 36.7463 37.3292C37.5933 36.1928 38.3799 35.0125 39.1028 33.7933ZM28.5841 55.613C38.0957 55.613 45.824 51.4029 45.824 46.2286C45.824 42.8912 42.5234 39.7999 37.1921 38.108C36.3439 39.2264 35.4075 40.2752 34.3921 41.2445C32.3043 43.2039 30.3497 44.199 28.5841 44.199C25.6723 44.199 22.5727 41.7272 19.8309 38.1555C14.5864 39.851 11.3406 42.928 11.3406 46.2298C11.337 51.4029 19.0724 55.613 28.5841 55.613Z" fill="black"/>
<path d="M15.8292 44.8118C19.1 46.7724 23.7465 47.8959 28.5772 47.8959C33.408 47.8959 38.0544 46.7724 41.3253 44.8118C41.5256 44.6992 41.7793 44.7704 41.8919 44.9707C42 45.1631 41.9391 45.4062 41.7533 45.5251C38.3576 47.5606 33.5495 48.7282 28.5772 48.7282C23.605 48.7282 18.798 47.5618 15.4012 45.5251C15.2008 45.4125 15.1296 45.1589 15.2422 44.9585C15.3548 44.7581 15.6084 44.6869 15.8089 44.7995C15.8158 44.8034 15.8226 44.8075 15.8292 44.8118Z" fill="black"/>
<path d="M17.3123 17.4242C17.3123 10.3368 22.3642 4.57031 28.5753 4.57031C34.7864 4.57031 39.8359 10.3368 39.8359 17.4242C39.8359 24.5115 34.784 30.2792 28.5741 30.2792C22.3642 30.2792 17.3123 24.5127 17.3123 17.4242ZM39.0049 17.4242C39.0037 10.7909 34.3251 5.40258 28.5741 5.40258C22.8231 5.40258 18.1446 10.7909 18.1446 17.4242C18.1446 24.0574 22.8243 29.4469 28.5753 29.4469C34.3263 29.4469 39.0037 24.0538 39.0037 17.4242H39.0049Z" fill="black"/>
</g>
<defs>
<clipPath id="clip0_418_9776">
<rect width="56" height="56" fill="white" transform="matrix(-1 0 0 1 56.5859 0.445312)"/>
</clipPath>
</defs>
</svg>
