<svg width="49" height="57" viewBox="0 0 49 57" fill="none" xmlns="http://www.w3.org/2000/svg">
<g clip-path="url(#clip0_418_9757)">
<path d="M13.7776 4.88165C2.9031 4.24985 5.37404 20.1285 5.37404 20.1285L9.15045 17.9746C9.15045 17.9746 7.63199 7.77737 14.3137 8.18182C20.9954 8.58626 22.0065 18.4485 22.0065 18.4485L26.2999 20.8644C26.2999 20.8644 24.6522 5.51225 13.7776 4.88165Z" fill="#A4A4F7"/>
<path d="M22.9242 0.701892C12.0497 0.0712941 14.523 15.9487 14.523 15.9487L18.2994 13.7949C18.2994 13.7949 16.781 3.59642 23.4615 4.00206C30.142 4.4077 31.1555 14.2687 31.1555 14.2687L35.4476 16.6846C35.4476 16.6846 33.7988 1.33369 22.9242 0.701892Z" fill="#C5C5FF"/>
<path d="M47.3764 47.4482C46.8017 48.3766 45.9851 49.1311 45.0143 49.6308L37.8432 53.333C37.1326 53.7003 36.3562 53.9228 35.5589 53.9875L8.54612 56.1845C7.73451 56.2504 6.91794 56.1518 6.14539 55.8944C5.37284 55.637 4.66024 55.2263 4.05033 54.6868C3.44042 54.1473 2.94577 53.4901 2.59605 52.7547C2.24634 52.0194 2.04876 51.221 2.01518 50.4074L0.888 23.1133C0.840287 21.962 1.12251 20.821 1.70146 19.8246C2.2804 18.8283 3.13195 18.0181 4.15586 17.4894L12.0928 13.3899C12.561 13.1509 13.0581 12.9731 13.5718 12.861C14.1083 12.742 14.6587 12.6974 15.2075 12.7282L34.5406 13.8051C35.7541 13.8729 36.9189 14.3047 37.8833 15.0443C38.8477 15.7839 39.5668 16.7969 39.9468 17.9513L47.9818 42.3615C48.2598 43.202 48.3497 44.0932 48.245 44.9722C48.1404 45.8512 47.8439 46.6965 47.3764 47.4482Z" fill="#02C9C0"/>
<path d="M47.3764 47.4469C46.8017 48.3753 45.9851 49.1297 45.0143 49.6294L37.8432 53.3352C37.1326 53.7025 36.3562 53.925 35.5589 53.9898L8.54612 56.1867C7.73451 56.2527 6.91794 56.154 6.14539 55.8966C5.37284 55.6393 4.66024 55.2285 4.05033 54.689C3.44042 54.1495 2.94577 53.4924 2.59605 52.757C2.24634 52.0216 2.04876 51.2232 2.01518 50.4096L0.888 23.1156C0.840287 21.9642 1.12251 20.8232 1.70146 19.8269C2.2804 18.8305 3.13195 18.0203 4.15586 17.4917L12.0928 13.3922C12.561 13.1531 13.0581 12.9753 13.5718 12.8633L14.8449 43.7853C14.8785 44.5988 15.0761 45.3971 15.4257 46.1324C15.7753 46.8677 16.2699 47.5248 16.8797 48.0643C17.4894 48.6038 18.2019 49.0146 18.9743 49.272C19.7467 49.5294 20.5632 49.6282 21.3747 49.5624L47.3764 47.4469Z" fill="#02AFA7"/>
<path d="M39.2949 32.6797C39.9469 26.381 36.1791 20.8302 30.8793 20.2816C25.5794 19.7329 20.7545 24.3943 20.1025 30.6929C19.4504 36.9916 23.2182 42.5424 28.5181 43.091C33.8179 43.6397 38.6429 38.9783 39.2949 32.6797Z" fill="#FDE931"/>
<path d="M48.2073 42.2961L40.1722 17.8859C39.8118 16.7747 39.1468 15.787 38.2529 15.035C37.3589 14.283 36.2719 13.7969 35.1155 13.632C33.9404 8.83133 30.8138 0.924324 22.9403 0.46364C20.5483 0.326033 18.5943 0.963811 17.1392 2.36022C16.4113 3.07559 15.8226 3.91994 15.403 4.85031C14.8724 4.74086 14.3345 4.67007 13.7936 4.63851C11.4004 4.50091 9.44642 5.13988 7.98898 6.54108C5.36368 9.06467 4.85513 13.5016 4.89941 16.8317L4.04744 17.272C2.98308 17.8237 2.09786 18.6671 1.4954 19.7035C0.892936 20.74 0.598157 21.9266 0.645562 23.1245L1.77035 50.4185C1.83728 52.0378 2.52696 53.5687 3.69545 54.6917C4.86394 55.8147 6.42098 56.4431 8.04163 56.4457C8.21513 56.4457 8.38984 56.4385 8.56454 56.4242L35.575 54.2284C36.4037 54.1621 37.2108 53.9311 37.949 53.5488L45.1201 49.8394C46.4509 49.1581 47.4938 48.0229 48.06 46.6392C48.6263 45.2556 48.6785 43.7149 48.2073 42.2961ZM15.7428 5.25714C15.7591 5.23314 15.7708 5.20638 15.7775 5.17817C16.1787 4.25382 16.7535 3.41502 17.4707 2.70723C18.8336 1.40296 20.6596 0.810649 22.9127 0.942272C30.3902 1.37663 33.4319 8.89355 34.6081 13.5758H34.5519L31.2661 13.3927C30.8425 10.9756 29.1362 4.10962 23.4775 3.76501C21.9686 3.67407 20.7386 4.10005 19.8208 5.03099C19.4127 5.45603 19.0789 5.94669 18.8336 6.48244C18.8336 6.48244 18.8336 6.48244 18.8276 6.49082C18.8122 6.51382 18.8008 6.53933 18.7941 6.5662C18.337 7.56535 18.1037 8.70808 17.996 9.77903C17.9869 9.80924 17.9836 9.84092 17.9864 9.87236C17.9047 10.7927 17.8923 11.7179 17.9493 12.6401L15.2187 12.4869C14.9864 12.4737 14.7535 12.4737 14.5211 12.4869C14.5016 11.0786 14.6114 9.67152 14.849 8.2833C14.8563 8.26529 14.8611 8.24637 14.8633 8.22706V8.20791C15.0417 7.19368 15.3368 6.2035 15.7428 5.25714ZM18.4746 9.76227C18.5594 8.81147 18.779 7.87756 19.1268 6.9886C20.9898 8.31441 22.5562 10.3235 23.7934 12.9715L20.6237 12.7944C20.0206 11.5548 19.3003 10.5377 18.4746 9.76227ZM20.0709 12.7621L18.4291 12.67C18.3817 11.9089 18.3817 11.1456 18.4291 10.3845C19.0889 11.0934 19.6423 11.8943 20.0721 12.7621H20.0709ZM19.3314 6.54826C19.5457 6.1145 19.8258 5.71651 20.1618 5.36843C20.9779 4.5392 22.0823 4.16227 23.4488 4.24484C28.6791 4.56193 30.3363 10.9553 30.7743 13.3616L24.3319 13.0026C23.0312 10.1272 21.3464 7.95902 19.3314 6.54826ZM8.32283 6.89048C9.67855 5.58381 11.5093 4.9927 13.7661 5.11954C14.2482 5.14789 14.7279 5.20825 15.202 5.30022C14.8556 6.15547 14.5947 7.04286 14.423 7.94945L14.3273 7.94108C12.9117 7.85612 11.7403 8.22586 10.844 9.04073C9.29924 10.4467 8.86727 12.9332 8.78231 14.8346L5.37565 16.5995C5.35889 13.3843 5.87941 9.23458 8.32043 6.88928L8.32283 6.89048ZM14.0473 12.5312C13.8694 12.5551 13.6923 12.5862 13.516 12.6245C12.9853 12.7414 12.472 12.9269 11.9892 13.1761L9.2765 14.5809C9.3806 12.8183 9.81257 10.6286 11.1755 9.39492C11.9724 8.66979 13.0266 8.34073 14.3081 8.41971H14.3476C14.1285 9.7789 14.028 11.1546 14.0473 12.5312ZM44.9011 49.4206L37.73 53.124C37.0473 53.4766 36.3014 53.6901 35.5355 53.7522L8.52625 55.9479C7.74671 56.0114 6.96238 55.9168 6.22033 55.6697C5.47827 55.4226 4.7938 55.0281 4.20799 54.5099C3.62218 53.9917 3.1471 53.3605 2.81129 52.6541C2.47548 51.9478 2.28584 51.1808 2.25377 50.3994L1.12419 23.1042C1.08115 21.9995 1.3533 20.9053 1.90885 19.9495C2.46441 18.9937 3.28043 18.2157 4.26163 17.7064L12.2045 13.6081C12.5672 13.4215 12.9487 13.2739 13.3425 13.1677L14.6037 43.8002C14.6723 45.4172 15.3617 46.9455 16.5284 48.0672C17.6951 49.1889 19.2493 49.8176 20.8678 49.8226C21.0413 49.8226 21.2148 49.8154 21.3907 49.8011L41.029 48.2024C41.0924 48.1974 41.1513 48.1673 41.1926 48.1188C41.2339 48.0703 41.2542 48.0075 41.2491 47.944C41.2441 47.8805 41.214 47.8217 41.1655 47.7804C41.117 47.7391 41.0542 47.7187 40.9907 47.7238L21.3536 49.3236C20.5741 49.3868 19.7899 49.2919 19.0479 49.0446C18.306 48.7972 17.6217 48.4026 17.0361 47.8843C16.4504 47.3661 15.9755 46.7348 15.6397 46.0285C15.304 45.3222 15.1144 44.5553 15.0823 43.7739L13.8175 13.0565C14.1645 12.9924 14.5165 12.96 14.8693 12.9595C14.977 12.9595 15.0847 12.9595 15.1924 12.9691L31.0495 13.8546H31.065L34.5256 14.0472C34.6452 14.0544 34.7649 14.0652 34.8774 14.0783H34.9013C35.9977 14.207 37.0341 14.6474 37.8878 15.3472C38.7414 16.0471 39.3765 16.9772 39.7175 18.0271L47.7526 42.4373C48.1916 43.7499 48.1453 45.1764 47.6221 46.4578C47.0988 47.7392 46.1334 48.7904 44.9011 49.4206Z" fill="black"/>
<path d="M30.8796 20.0447C25.4615 19.4847 20.5088 24.2519 19.8471 30.6691C19.1854 37.0864 23.0563 42.7642 28.478 43.323C28.7655 43.3526 29.0542 43.3674 29.3432 43.3673C34.4167 43.3673 38.8835 38.7724 39.5141 32.6985C39.8336 29.597 39.118 26.5744 37.4955 24.1873C35.8729 21.8001 33.5144 20.3163 30.8796 20.0447ZM39.0343 32.6495C38.3989 38.8047 33.6856 43.3768 28.5271 42.8468C23.3686 42.3167 19.6879 36.8734 20.3233 30.7206C20.9216 24.8921 25.1826 20.4815 30.0156 20.4815C30.2886 20.4811 30.5614 20.4951 30.8329 20.5233C33.3242 20.7806 35.5498 22.1782 37.0994 24.4589C38.649 26.7396 39.343 29.6604 39.0343 32.6495Z" fill="black"/>
</g>
<defs>
<clipPath id="clip0_418_9757">
<rect width="47.8812" height="56" fill="white" transform="translate(0.648438 0.445312)"/>
</clipPath>
</defs>
</svg>
