<svg width="57" height="57" viewBox="0 0 57 57" fill="none" xmlns="http://www.w3.org/2000/svg">
<g clip-path="url(#clip0_418_9862)">
<path d="M48.7437 49.9707H48.7425C47.8755 51.6728 46.5915 53.1276 45.0103 54.1994C43.0847 55.507 40.8094 56.2034 38.4818 56.1977L16.0649 56.2073C10.4206 56.2109 5.61632 52.2012 4.7464 46.7615L0.926898 22.8777C0.760348 21.8323 0.80477 20.7641 1.05754 19.7362C1.31032 18.7082 1.76633 17.7413 2.3987 16.8924C3.44378 15.4853 4.91782 14.4561 6.59872 13.9596C7.95804 13.5551 9.61411 13.3135 11.6292 13.3374L42.5825 12.8852C48.4134 12.7678 53.4032 16.9475 54.1666 22.5883L56.2499 37.9907C56.9702 43.3203 53.7143 48.2489 48.7437 49.9707Z" fill="#02C9C0"/>
<path d="M48.7434 49.9708C49.7218 48.0466 50.105 45.8747 49.8443 43.7319L47.5169 24.3614C47.3671 23.1461 46.9503 21.9789 46.2963 20.9435C45.6424 19.9081 44.7676 19.0302 43.7345 18.3727C42.3414 17.4763 40.7208 16.9975 39.0642 16.9929L37.7085 16.9893L19.0812 16.9284L12.7812 16.9079L8.07744 16.8924H2.39844C3.44352 15.4853 4.91756 14.4561 6.59846 13.9596C7.95778 13.5551 9.61385 13.3135 11.6289 13.3374L42.5822 12.8852C48.4132 12.7678 53.4029 16.9475 54.1664 22.5883L56.2496 37.9907C56.97 43.3204 53.714 48.249 48.7434 49.9708Z" fill="#02AFA7"/>
<path d="M45.0103 54.1997C43.0847 55.5073 40.8094 56.2037 38.4818 56.198L16.0649 56.2076C10.4206 56.2112 5.61633 52.2015 4.74641 46.7618L0.926904 22.878C0.855783 22.4317 0.822957 21.9802 0.828784 21.5283L34.3452 20.6034C38.6098 20.4453 42.2498 23.5768 42.6243 27.7231L45.0103 54.1997Z" fill="#DDEFE7"/>
<path d="M54.5706 25.5781C54.5706 25.5781 47.9137 34.2682 31.1217 32.4201C31.1217 32.4201 21.7632 44.5295 35.867 46.1344C35.867 46.1344 49.532 46.3019 55.7456 34.2667C55.7456 34.2662 57.2312 30.3013 54.5706 25.5781Z" fill="#EEECFF"/>
<path d="M35.1612 43.3246C36.8164 43.3246 38.1582 41.5153 38.1582 39.2834C38.1582 37.0515 36.8164 35.2422 35.1612 35.2422C33.5059 35.2422 32.1641 37.0515 32.1641 39.2834C32.1641 41.5153 33.5059 43.3246 35.1612 43.3246Z" fill="#02C9C0"/>
<path d="M43.7314 18.3735C42.3385 17.4771 40.718 16.9985 39.0616 16.994L19.0786 16.9289L15.9914 8.74334C15.2075 6.66355 16.7078 4.43706 18.9751 4.31429L35.6921 3.40872C36.4137 3.36434 37.1304 3.55256 37.7371 3.94572C38.3437 4.33887 38.8082 4.91623 39.0624 5.59297L43.7314 18.3735Z" fill="#E8D102"/>
<path d="M37.705 16.988L34.0692 16.976L19.0781 16.9265L15.4912 16.9145L12.777 16.9054L8.74078 6.20127C7.93057 4.05363 9.47991 1.75296 11.8233 1.62612L29.0944 0.690028C29.8398 0.644736 30.5801 0.839458 31.2067 1.24564C31.8334 1.65183 32.3134 2.2481 32.5764 2.94703L37.705 16.988Z" fill="#FDE931"/>
<path d="M34.0695 16.9769L19.0784 16.9273L15.4915 16.9154L13.6719 12.0896C18.6357 12.2487 17.9388 8.08 17.4172 6.29685L25.4914 5.85938C25.3098 7.70104 25.7322 11.0514 31.5247 10.0065L34.0695 16.9769Z" fill="#FEF59F"/>
<path d="M56.4842 37.9577L55.9878 34.2891C56.1684 33.7626 57.3105 29.9979 54.7995 25.5027L54.4007 22.5551C53.6198 16.7854 48.5367 12.5224 42.576 12.6449L41.8978 12.6543L39.2877 5.50877C39.0129 4.78582 38.515 4.16918 37.8662 3.74831C37.2173 3.32744 36.4513 3.12422 35.6791 3.16813L32.9668 3.31519L32.8024 2.86491C32.5187 2.11992 32.0054 1.48448 31.3367 1.05055C30.6679 0.616625 29.8785 0.406703 29.0826 0.45116L11.8114 1.38725C11.2232 1.41375 10.6498 1.57999 10.1387 1.87221C9.62759 2.16442 9.19344 2.57421 8.87222 3.06762C8.56173 3.53742 8.36764 4.07445 8.30602 4.6342C8.24441 5.19396 8.31704 5.76034 8.51791 6.28643L11.087 13.0997C9.54557 13.0985 8.01139 13.3103 6.52799 13.7292C3.01828 14.7754 0.630848 17.9079 0.586574 21.5239C0.580775 21.9895 0.614601 22.4547 0.687686 22.9146L4.50719 46.7984C4.9469 49.5035 6.35076 51.958 8.4594 53.7086C10.5934 55.4806 13.2806 56.4491 16.0544 56.446H16.0621L38.4791 56.4365C40.8547 56.4426 43.1769 55.7318 45.1419 54.3969C46.7291 53.32 48.0236 51.8654 48.909 50.1639C51.3498 49.2969 53.4327 47.6425 54.8298 45.4614C56.2487 43.2334 56.8347 40.5757 56.4842 37.9577ZM54.5256 25.9988C56.8022 30.3044 55.6044 33.9349 55.5228 34.1691C52.3519 40.2996 47.1868 43.1603 43.4109 44.4802C39.4214 45.8748 36.0964 45.8984 35.8783 45.8932C32.0007 45.4496 29.586 44.1635 28.7011 42.0705C27.1727 38.455 30.6525 33.4596 31.229 32.6707C35.9477 33.1761 39.85 32.8358 42.9835 32.1347C42.9881 32.1347 42.9924 32.1359 42.9969 32.1359C43.0041 32.1359 43.0113 32.1359 43.0186 32.1351C43.0519 32.132 43.0842 32.1219 43.1134 32.1055C44.8952 31.7056 46.6312 31.1233 48.2939 30.3681C48.3067 30.3634 48.319 30.3576 48.3309 30.3509C48.6539 30.2019 48.9616 30.0517 49.2501 29.9032C52.2737 28.3434 53.9469 26.6525 54.5256 25.9988ZM42.5844 13.1235C48.2976 13.0063 53.1783 17.0907 53.9266 22.6194L54.3171 25.5054C53.9893 25.8982 52.3027 27.7954 49.0036 29.4918C48.8131 29.5898 48.6136 29.6882 48.4076 29.7866L47.7519 24.332C47.5998 23.0957 47.1789 21.9077 46.5187 20.8513C45.8585 19.795 44.975 18.896 43.9304 18.2175L42.0715 13.1307L42.5844 13.1235ZM35.7057 3.64617C36.3755 3.60705 37.0404 3.78248 37.6038 4.14696C38.1672 4.51145 38.5998 5.04602 38.8387 5.67306L41.5122 12.9915L43.2781 17.8257C41.9829 17.1262 40.5348 16.7576 39.0627 16.7529L37.874 16.749L33.1385 3.78533L35.7057 3.64617ZM8.96579 6.1176C8.79189 5.66187 8.72905 5.17128 8.78249 4.68644C8.83593 4.2016 9.0041 3.73646 9.27307 3.32955C9.55341 2.89929 9.93225 2.54202 10.3782 2.28736C10.8241 2.0327 11.3243 1.88797 11.8374 1.86517L29.1084 0.929197C29.802 0.889847 30.4902 1.0721 31.0734 1.4496C31.6566 1.8271 32.1047 2.38029 32.3528 3.02921L37.3633 16.7472L34.2376 16.7371L31.7498 9.9243C31.7307 9.87117 31.6933 9.82656 31.6444 9.79846C31.5954 9.77035 31.5381 9.76058 31.4826 9.77089C29.2232 10.1777 27.6001 9.9444 26.6584 9.07532C25.7167 8.20624 25.6336 6.85924 25.7298 5.88259C25.7332 5.84824 25.7291 5.81357 25.7179 5.78095C25.7066 5.74833 25.6884 5.71854 25.6645 5.69361C25.6407 5.66869 25.6117 5.64922 25.5796 5.63654C25.5475 5.62387 25.513 5.61828 25.4786 5.62017L17.4046 6.05777C17.3686 6.05973 17.3335 6.0698 17.3019 6.08723C17.2703 6.10467 17.2431 6.12901 17.2223 6.15845C17.2014 6.18788 17.1875 6.22164 17.1816 6.25721C17.1756 6.29278 17.1778 6.32924 17.1879 6.36385C17.5077 7.45622 17.8994 9.47558 16.9296 10.7278C16.3144 11.5221 15.2215 11.8979 13.6803 11.8503C13.641 11.8488 13.6019 11.8572 13.5665 11.8746C13.5312 11.8921 13.5008 11.9181 13.4781 11.9502C13.4552 11.9822 13.4405 12.0194 13.4354 12.0584C13.4303 12.0975 13.4349 12.1372 13.4488 12.174L15.1459 16.6751L12.9442 16.668L8.96579 6.1176ZM17.7276 6.51953L25.2317 6.11269C25.17 7.16569 25.337 8.50694 26.3338 9.42723C27.3628 10.3765 29.0558 10.6616 31.3689 10.2768L33.7275 16.7357L15.6582 16.6771L14.0202 12.3335C15.5391 12.319 16.6443 11.8788 17.3079 11.0216C18.3231 9.70999 18.0476 7.74256 17.7276 6.51953ZM38.4788 55.9577L16.0618 55.9674H16.0542C10.4936 55.9674 5.8366 52.0805 4.97984 46.7232L1.16022 22.8393C1.0914 22.4062 1.05962 21.9681 1.06521 21.5296C1.10685 18.1241 3.35691 15.1735 6.66404 14.1876C8.01127 13.7869 9.55978 13.5818 11.2663 13.5752L12.4321 16.6663L8.07649 16.6522C8.04506 16.6522 8.01309 16.6583 7.98404 16.6703C7.95498 16.6823 7.92857 16.6998 7.9063 16.722C7.86134 16.7668 7.83603 16.8277 7.83591 16.8911C7.8358 16.9546 7.86091 17.0155 7.90571 17.0605C7.95051 17.1054 8.01134 17.1307 8.07481 17.1309L34.0698 17.2158H34.0711H34.0733L37.7061 17.2278L39.0613 17.2315C40.6723 17.2357 42.2484 17.7012 43.6033 18.573C44.6068 19.2114 45.4566 20.064 46.0917 21.0697C46.7268 22.0753 47.1314 23.209 47.2767 24.3895L47.9509 29.9991C46.4252 30.6805 44.8377 31.214 43.2101 31.5923L42.8598 27.7007C42.4734 23.4235 38.7297 20.1999 34.3357 20.3633L10.4226 21.0228C10.3912 21.0236 10.3603 21.0307 10.3316 21.0435C10.3028 21.0563 10.277 21.0747 10.2553 21.0975C10.2337 21.1203 10.2168 21.1472 10.2056 21.1766C10.1944 21.2059 10.189 21.2372 10.1899 21.2687C10.1908 21.3001 10.1978 21.331 10.2106 21.3597C10.2235 21.3884 10.2418 21.4143 10.2646 21.4359C10.2875 21.4576 10.3143 21.4745 10.3437 21.4857C10.3731 21.4969 10.4044 21.5023 10.4358 21.5014L34.3511 20.8416C38.4899 20.6851 42.0197 23.7197 42.3831 27.7435L42.7391 31.6989C39.6461 32.3749 35.7974 32.6928 31.145 32.1803C31.1043 32.176 31.0631 32.1821 31.0254 32.1981C30.9877 32.2142 30.9547 32.2396 30.9296 32.272C30.7479 32.5072 26.4966 38.0823 28.26 42.2562C29.2173 44.523 31.7672 45.9072 35.8373 46.3704C35.8452 46.3713 35.8532 46.3719 35.8612 46.372H35.8814C36.1737 46.372 39.5348 46.3394 43.5523 44.9381C43.6739 44.8957 43.7969 44.8518 43.9213 44.8065L44.7563 54.0777C42.8947 55.3091 40.7108 55.9632 38.4788 55.9577ZM48.5312 49.854C48.5296 49.8568 48.5276 49.8591 48.5263 49.8618C47.7403 51.4034 46.604 52.7394 45.2085 53.7627L44.3859 44.6295C46.1561 43.9433 47.8354 43.0427 49.3865 41.9479L49.604 43.7596C49.8577 45.8524 49.4843 47.9736 48.5312 49.854ZM49.209 49.5365C50.0189 47.7056 50.3196 45.69 50.0793 43.7025L49.8298 41.625C52.199 39.8573 54.1671 37.608 55.6045 35.0251L56.0098 38.0218C56.6708 42.9126 53.8318 47.661 49.209 49.5365Z" fill="black"/>
<path d="M35.1583 35C33.3737 35 31.9219 36.9202 31.9219 39.2806C31.9219 41.6409 33.3737 43.561 35.1583 43.561C36.9429 43.561 38.3947 41.6408 38.3947 39.2806C38.3947 36.9203 36.9428 35 35.1583 35ZM35.1583 43.0823C33.6377 43.0823 32.4005 41.3768 32.4005 39.2806C32.4005 37.1843 33.6377 35.4786 35.1583 35.4786C36.6789 35.4786 37.9161 37.1841 37.9161 39.2806C37.9161 41.377 36.6789 43.0823 35.1583 43.0823Z" fill="black"/>
</g>
<defs>
<clipPath id="clip0_418_9862">
<rect width="56" height="56" fill="white" transform="translate(0.585938 0.445312)"/>
</clipPath>
</defs>
</svg>
