<svg width="454" height="359" viewBox="0 0 454 359" fill="none" xmlns="http://www.w3.org/2000/svg">
<path d="M227.27 267.087C252.821 267.137 277.813 259.606 299.083 245.447C320.353 231.288 336.945 211.137 346.758 187.545C356.571 163.953 359.165 137.98 354.211 112.913C349.257 87.8461 336.978 64.8123 318.928 46.7266C300.878 28.6409 277.869 16.3164 252.812 11.3128C227.755 6.30915 201.777 8.85135 178.165 18.6176C154.554 28.3839 134.37 44.9353 120.169 66.177C105.968 87.4188 98.3873 112.396 98.3869 137.948C98.3608 154.892 101.675 171.676 108.139 187.339C114.604 203.002 124.092 217.237 136.062 229.23C148.032 241.224 162.248 250.74 177.898 257.236C193.548 263.732 210.325 267.079 227.27 267.087Z" fill="#EAEEF9"/>
<path d="M279.566 107.676H176.356C175.806 107.737 175.301 108.008 174.947 108.433C174.593 108.858 174.416 109.404 174.455 109.956C174.414 110.508 174.589 111.055 174.944 111.481C175.299 111.906 175.805 112.177 176.356 112.235H279.379C279.671 112.243 279.962 112.187 280.232 112.072C280.501 111.957 280.743 111.786 280.941 111.57C281.139 111.354 281.288 111.098 281.379 110.82C281.47 110.541 281.5 110.247 281.467 109.956C281.509 109.403 281.333 108.856 280.979 108.431C280.624 108.005 280.117 107.734 279.566 107.676Z" fill="#D5DDEA"/>
<path d="M352.931 50.9793C354.753 50.9793 356.534 50.439 358.049 49.4267C359.564 48.4145 360.745 46.9757 361.442 45.2924C362.139 43.6091 362.322 41.7568 361.966 39.9698C361.611 38.1828 360.734 36.5413 359.445 35.2529C358.157 33.9645 356.515 33.0872 354.728 32.7317C352.941 32.3762 351.089 32.5587 349.406 33.2559C347.722 33.9532 346.284 35.134 345.271 36.6489C344.259 38.1639 343.719 39.945 343.719 41.767C343.719 44.2102 344.689 46.5534 346.417 48.2811C348.145 50.0087 350.488 50.9793 352.931 50.9793Z" fill="#EAEEF9"/>
<path d="M343.712 21.0968C344.957 21.0968 346.173 20.7279 347.207 20.0368C348.242 19.3457 349.048 18.3633 349.524 17.2139C350 16.0646 350.125 14.7998 349.882 13.5796C349.64 12.3594 349.041 11.2385 348.161 10.3587C347.282 9.4789 346.161 8.87964 344.941 8.63671C343.721 8.39379 342.456 8.51812 341.306 8.99397C340.157 9.46982 339.174 10.2758 338.483 11.3101C337.791 12.3443 337.422 13.5604 337.422 14.8045C337.422 16.473 338.085 18.0732 339.264 19.2532C340.444 20.4332 342.044 21.0964 343.712 21.0968Z" fill="#EAEEF9"/>
<path d="M94.1539 74.2414C95.398 74.2414 96.6141 73.8725 97.6486 73.1813C98.683 72.4902 99.4893 71.5078 99.9655 70.3585C100.442 69.2091 100.566 67.9444 100.324 66.7242C100.081 65.504 99.4822 64.3831 98.6026 63.5033C97.7231 62.6234 96.6023 62.0242 95.3822 61.7812C94.1621 61.5383 92.8973 61.6626 91.7478 62.1385C90.5983 62.6144 89.6157 63.4204 88.9243 64.4546C88.2329 65.4889 87.8636 66.7049 87.8633 67.949C87.8631 68.7752 88.0256 69.5934 88.3416 70.3569C88.6577 71.1203 89.121 71.8139 89.7051 72.3983C90.2893 72.9826 90.9828 73.4461 91.7462 73.7624C92.5095 74.0786 93.3276 74.2414 94.1539 74.2414Z" fill="#EAEEF9"/>
<path d="M79.9919 212.656C82.3026 212.656 84.5613 211.97 86.4826 210.687C88.4039 209.403 89.9014 207.579 90.7857 205.444C91.67 203.309 91.9015 200.96 91.4508 198.694C91.0002 196.427 89.8876 194.346 88.2539 192.712C86.6201 191.078 84.5385 189.965 82.2723 189.514C80.006 189.063 77.657 189.294 75.5221 190.178C73.3872 191.062 71.5624 192.559 70.2784 194.48C68.9944 196.401 68.3089 198.66 68.3086 200.971C68.3084 202.505 68.6104 204.024 69.1974 205.442C69.7845 206.86 70.645 208.148 71.7299 209.233C72.8148 210.318 74.1029 211.179 75.5205 211.766C76.9381 212.353 78.4575 212.656 79.9919 212.656Z" fill="#EAEEF9"/>
<path d="M264.087 197.246C264.085 196.193 264.395 195.164 264.978 194.288C265.561 193.412 266.391 192.729 267.363 192.324C268.334 191.92 269.404 191.813 270.436 192.017C271.469 192.221 272.418 192.726 273.163 193.47C273.908 194.213 274.415 195.161 274.622 196.193C274.828 197.225 274.724 198.295 274.322 199.267C273.92 200.24 273.238 201.071 272.363 201.656C271.489 202.241 270.46 202.554 269.408 202.554C267.999 202.554 266.647 201.995 265.65 201C264.653 200.005 264.091 198.655 264.087 197.246ZM265.607 187.823V187.607C265.475 186.711 265.401 185.806 265.388 184.9C265.404 182.976 265.898 181.088 266.827 179.404C267.755 177.719 269.089 176.293 270.707 175.254L273.966 172.871C274.862 172.304 275.6 171.521 276.112 170.593C276.625 169.665 276.894 168.622 276.896 167.562C276.896 164.527 274.727 161.6 270.167 161.6C265.39 161.6 263.327 165.391 263.327 169.184C263.34 169.911 263.413 170.636 263.547 171.35L255.076 171.028C254.86 170.03 254.75 169.013 254.75 167.992C254.75 160.735 260.178 153.801 270.058 153.801C280.479 153.801 285.908 160.3 285.908 167.129C285.886 169.496 285.268 171.819 284.11 173.883C282.952 175.948 281.291 177.686 279.283 178.939L276.57 180.889C275.461 181.57 274.549 182.526 273.921 183.666C273.293 184.805 272.972 186.087 272.989 187.388V187.823H265.607Z" fill="#989FB0"/>
<g filter="url(#filter0_d_773_18071)">
<path d="M308.6 240.777H144.978C141.327 240.777 137.789 239.512 134.965 237.198C132.142 234.883 130.207 231.662 129.49 228.082L100.445 82.8477H353.134L324.087 228.084C323.37 231.663 321.435 234.884 318.612 237.198C315.788 239.512 312.251 240.777 308.6 240.777Z" fill="#FDFEFF"/>
</g>
<path d="M361.147 82.5156H93.404C88.5641 82.5156 84.6406 86.4391 84.6406 91.279V104.802C84.6406 109.642 88.5641 113.565 93.404 113.565H361.147C365.986 113.565 369.91 109.642 369.91 104.802V91.279C369.91 86.4391 365.986 82.5156 361.147 82.5156Z" fill="#A9B2C4"/>
<path d="M274.127 98.0474V77.7796C274.127 72.1764 273.024 66.6281 270.879 61.4515C268.735 56.2749 265.592 51.5713 261.63 47.6093C257.668 43.6474 252.964 40.5046 247.788 38.3606C242.611 36.2165 237.062 35.1131 231.459 35.1133C220.143 35.1133 209.291 39.6085 201.29 47.61C193.288 55.6114 188.793 66.4638 188.793 77.7796V98.0474" stroke="white" stroke-width="8.76861" stroke-linecap="round" stroke-linejoin="round"/>
<path d="M354.736 272.467L315.652 233.462C274.403 263.8 217.844 234.222 217.844 184.707C217.876 168.519 224.329 153.004 235.787 141.569C247.246 130.133 262.773 123.711 278.961 123.711C327.595 123.711 357.44 178.315 329.114 219.594L368.413 258.816C369.309 259.714 370.02 260.78 370.504 261.953C370.988 263.126 371.237 264.382 371.236 265.651C371.234 266.92 370.983 268.176 370.496 269.348C370.009 270.52 369.296 271.584 368.398 272.48C367.5 273.376 366.434 274.087 365.261 274.571C364.089 275.055 362.832 275.304 361.563 275.303C360.294 275.301 359.038 275.05 357.866 274.563C356.695 274.076 355.63 273.363 354.734 272.465L354.736 272.467Z" fill="#02C9C0"/>
<path d="M278.955 143.102C267.888 143.114 257.276 147.51 249.443 155.328C241.61 163.146 237.194 173.749 237.16 184.816C237.16 221.761 281.45 239.532 306.855 215.8C335.621 188.932 316.406 143.102 278.955 143.102Z" fill="white"/>
<defs>
<filter id="filter0_d_773_18071" x="0.483139" y="0.422707" width="452.612" height="357.854" filterUnits="userSpaceOnUse" color-interpolation-filters="sRGB">
<feFlood flood-opacity="0" result="BackgroundImageFix"/>
<feColorMatrix in="SourceAlpha" type="matrix" values="0 0 0 0 0 0 0 0 0 0 0 0 0 0 0 0 0 0 127 0" result="hardAlpha"/>
<feOffset dy="17.5372"/>
<feGaussianBlur stdDeviation="49.9811"/>
<feColorMatrix type="matrix" values="0 0 0 0 0.862745 0 0 0 0 0.862745 0 0 0 0 0.862745 0 0 0 0.671 0"/>
<feBlend mode="normal" in2="BackgroundImageFix" result="effect1_dropShadow_773_18071"/>
<feBlend mode="normal" in="SourceGraphic" in2="effect1_dropShadow_773_18071" result="shape"/>
</filter>
</defs>
</svg>
