<svg width="19" height="19" viewBox="0 0 19 19" fill="none" xmlns="http://www.w3.org/2000/svg">
<g id="Mask Group 1668">
<g id="svgexport-7 (5)">
<path id="Path 66994" d="M18.0021 12.9615C18.7484 10.9414 18.7484 8.72109 18.0021 6.70097L9.56217 5.91797L1.12225 6.70028C0.375917 8.72039 0.375917 10.9407 1.12225 12.9608L9.56217 13.7438L18.0021 12.9615Z" fill="#F0F0F0"/>
<path id="Path 66995" d="M9.56492 18.8303C11.4027 18.8307 13.1966 18.2685 14.7054 17.2192C16.2142 16.17 17.3656 14.684 18.0048 12.9609H1.125C1.76426 14.684 2.91569 16.17 4.42449 17.2192C5.93329 18.2685 7.72714 18.8307 9.56492 18.8303Z" fill="#D80027"/>
<path id="Path 66996" d="M9.56492 0.832031C7.72714 0.831632 5.93329 1.39385 4.42449 2.44312C2.91569 3.49238 1.76426 4.9784 1.125 6.70142H18.0048C17.3656 4.9784 16.2142 3.49238 14.7054 2.44312C13.1966 1.39385 11.4027 0.831632 9.56492 0.832031Z" fill="#6DA544"/>
<path id="Path 66997" d="M3.19862 3.46875C2.36287 4.30448 1.69991 5.29664 1.24761 6.38859C0.795299 7.48053 0.5625 8.65087 0.5625 9.83279C0.5625 11.0147 0.795299 12.185 1.24761 13.277C1.69991 14.3689 2.36287 15.3611 3.19862 16.1968L6.43239 12.9631V6.70183L3.19862 3.46875Z" fill="black"/>
</g>
</g>
</svg>
