<svg width="25" height="22" viewBox="0 0 25 22" fill="none" xmlns="http://www.w3.org/2000/svg">
<g id="Frame" clip-path="url(#clip0_715_11868)">
<g id="Clip path group">
<mask id="mask0_715_11868" style="mask-type:luminance" maskUnits="userSpaceOnUse" x="0" y="0" width="25" height="22">
<g id="clip-path">
<path id="Rectangle 9437" d="M24.4228 0H0.730469V22H24.4228V0Z" fill="white"/>
</g>
</mask>
<g mask="url(#mask0_715_11868)">
<g id="Mask Group 1644">
<g id="svgexport-6 - 2022-06-13T111158.537">
<path id="Path 65850" d="M6.12891 20.2926C6.12891 19.35 9.01598 18.5859 12.5774 18.5859C16.1389 18.5859 19.026 19.3475 19.026 20.2926C19.026 21.2378 16.1381 21.9993 12.5774 21.9993C9.01683 21.9993 6.12891 21.2378 6.12891 20.2926Z" fill="#D7D7D7"/>
<path id="Path 65851" d="M13.3375 7.58594H11.8203V19.7232C11.8371 19.9128 11.9243 20.0892 12.0647 20.2178C12.2051 20.3463 12.3885 20.4176 12.5789 20.4176C12.7692 20.4176 12.9527 20.3463 13.0931 20.2178C13.2335 20.0892 13.3207 19.9128 13.3375 19.7232V7.58594Z" fill="#141414"/>
<path id="Path 65852" d="M8.02344 4.55146C8.02344 5.45162 8.29035 6.33156 8.79044 7.08003C9.29052 7.82849 10.0013 8.41187 10.8329 8.75638C11.6646 9.10089 12.5797 9.19108 13.4625 9.01553C14.3454 8.83998 15.1564 8.40658 15.793 7.77013C16.4295 7.13368 16.8631 6.32277 17.0388 5.43992C17.2145 4.55708 17.1245 3.64196 16.7801 2.81028C16.4358 1.97859 15.8525 1.26769 15.1042 0.767471C14.3558 0.267248 13.4759 0.000167425 12.5757 7.86607e-08C11.978 -0.000111053 11.386 0.117534 10.8337 0.346216C10.2814 0.574899 9.77956 0.910139 9.35683 1.33279C8.9341 1.75545 8.59876 2.25723 8.36998 2.8095C8.14119 3.36176 8.02344 3.95368 8.02344 4.55146Z" fill="#02AFA7"/>
<path id="Path 65853" d="M9.54297 4.54993C9.54297 5.15003 9.72091 5.73665 10.0543 6.23562C10.3877 6.73459 10.8615 7.1235 11.4159 7.35319C11.9703 7.58287 12.5804 7.64301 13.1689 7.526C13.7575 7.40899 14.2982 7.12008 14.7226 6.69581C15.1469 6.27154 15.436 5.73096 15.5532 5.14242C15.6704 4.55387 15.6104 3.9438 15.3809 3.38934C15.1513 2.83488 14.7625 2.36093 14.2637 2.02741C13.7648 1.69389 13.1782 1.51579 12.5781 1.51563C12.1796 1.51551 11.7849 1.59392 11.4167 1.74636C11.0484 1.89879 10.7138 2.12228 10.432 2.40405C10.1501 2.68583 9.92656 3.02036 9.77402 3.38856C9.62148 3.75675 9.54297 4.15139 9.54297 4.54993Z" fill="#02F0E5"/>
</g>
</g>
</g>
</g>
</g>
<defs>
<clipPath id="clip0_715_11868">
<rect width="23.6923" height="22" fill="white" transform="translate(0.730469)"/>
</clipPath>
</defs>
</svg>
