<svg width="121" height="115" viewBox="0 0 121 115" fill="none" xmlns="http://www.w3.org/2000/svg">
<g clip-path="url(#clip0_350_1886)">
<path d="M117.915 52.5296C117.929 61.1735 115.778 69.6831 111.657 77.2817C107.537 84.8803 101.579 91.3257 94.3271 96.0296C85.9319 101.56 76.0948 104.496 66.0421 104.474C55.7673 104.486 45.7196 101.452 37.1701 95.7527C28.6206 90.0539 21.9535 81.9474 18.0122 72.4586C14.0709 62.9698 13.0325 52.5253 15.0285 42.4463C17.0245 32.3672 21.965 23.1067 29.2252 15.8362C36.4854 8.56563 45.7389 3.61185 55.815 1.60152C65.8912 -0.40881 76.3372 0.614649 85.8316 4.54242C95.326 8.47018 103.442 15.1258 109.153 23.6671C114.864 32.2085 117.913 42.2519 117.915 52.5266V52.5296Z" fill="#EAEEF9"/>
<path d="M3.30174 65.3613C3.68521 65.3644 4.06546 65.2911 4.42028 65.1456C4.77511 65.0002 5.09742 64.7855 5.3684 64.5142C5.63937 64.2428 5.8536 63.9202 5.99856 63.5652C6.14353 63.2102 6.21634 62.8298 6.21274 62.4463C6.21634 62.0629 6.14353 61.6825 5.99856 61.3275C5.8536 60.9725 5.63937 60.6499 5.3684 60.3785C5.09742 60.1072 4.77511 59.8925 4.42028 59.7471C4.06546 59.6016 3.68521 59.5283 3.30174 59.5313C2.53611 59.5538 1.80805 59.8682 1.2668 60.4102C0.725551 60.9522 0.412117 61.6807 0.390743 62.4463C0.387281 62.8298 0.460182 63.2101 0.605198 63.565C0.750213 63.92 0.964441 64.2425 1.23539 64.5139C1.50634 64.7852 1.82859 64.9998 2.18336 65.1454C2.53813 65.2909 2.91831 65.3643 3.30174 65.3613Z" fill="#D9FFFD"/>
<path d="M23.0494 108.11C23.2884 108.111 23.5254 108.066 23.7465 107.975C23.9677 107.884 24.1685 107.751 24.3374 107.581C24.5062 107.412 24.6397 107.211 24.73 106.99C24.8204 106.769 24.8657 106.532 24.8634 106.293C24.8656 106.054 24.8201 105.817 24.7297 105.596C24.6394 105.374 24.5059 105.174 24.337 105.004C24.1682 104.835 23.9674 104.702 23.7463 104.611C23.5252 104.52 23.2884 104.475 23.0494 104.477C22.8105 104.475 22.5735 104.52 22.3523 104.611C22.1311 104.701 21.9302 104.835 21.7612 105.004C21.5923 105.173 21.4587 105.374 21.3682 105.595C21.2778 105.817 21.2323 106.054 21.2344 106.293C21.266 106.764 21.4673 107.208 21.801 107.542C22.1348 107.876 22.5783 108.078 23.0494 108.11Z" fill="#02C9C0"/>
<path d="M118.544 32.51C118.769 32.5128 118.993 32.4705 119.201 32.3855C119.41 32.3006 119.6 32.1747 119.759 32.0153C119.918 31.8559 120.044 31.6663 120.128 31.4575C120.213 31.2488 120.255 31.0252 120.252 30.8C120.255 30.5747 120.213 30.3511 120.128 30.1424C120.044 29.9337 119.918 29.744 119.759 29.5847C119.6 29.4253 119.41 29.2994 119.201 29.2144C118.993 29.1295 118.769 29.0872 118.544 29.09C118.319 29.0873 118.095 29.1297 117.887 29.2147C117.678 29.2997 117.489 29.4256 117.33 29.585C117.17 29.7443 117.045 29.9339 116.96 30.1426C116.875 30.3512 116.833 30.5748 116.836 30.8C116.833 31.0252 116.875 31.2487 116.96 31.4574C117.045 31.666 117.17 31.8556 117.33 32.015C117.489 32.1743 117.678 32.3002 117.887 32.3852C118.095 32.4703 118.319 32.5127 118.544 32.51Z" fill="#FF8A59"/>
<path d="M91.5501 107.148C91.5493 109.074 90.7842 110.921 89.4229 112.284C88.0616 113.646 86.2152 114.413 84.2891 114.416H45.5471C43.6214 114.412 41.7758 113.645 40.4152 112.283C39.0545 110.92 38.2899 109.073 38.2891 107.148V15.8667C38.2896 13.9409 39.0541 12.0939 40.4148 10.7312C41.7755 9.36839 43.6213 8.6011 45.5471 8.59766H84.6121C86.5379 8.6011 88.3836 9.36839 89.7443 10.7312C91.105 12.0939 91.8695 13.9409 91.8701 15.8667V107.255H91.5501V107.148Z" fill="white"/>
<mask id="mask0_350_1886" style="mask-type:luminance" maskUnits="userSpaceOnUse" x="14" y="0" width="104" height="105">
<path d="M117.915 52.5296C117.929 61.1735 115.778 69.6831 111.657 77.2817C107.537 84.8803 101.579 91.3257 94.3271 96.0296C85.9319 101.56 76.0948 104.496 66.0421 104.474C55.7673 104.486 45.7196 101.452 37.1701 95.7527C28.6206 90.0539 21.9535 81.9474 18.0122 72.4586C14.0709 62.9698 13.0325 52.5253 15.0285 42.4463C17.0245 32.3672 21.965 23.1067 29.2252 15.8362C36.4854 8.56563 45.7389 3.61185 55.815 1.60152C65.8912 -0.40881 76.3372 0.614649 85.8316 4.54242C95.326 8.47018 103.442 15.1258 109.153 23.6671C114.864 32.2085 117.913 42.2519 117.915 52.5266V52.5296Z" fill="white"/>
</mask>
<g mask="url(#mask0_350_1886)">
<path d="M84.6121 8.59766C86.5379 8.6011 88.3836 9.36839 89.7443 10.7312C91.105 12.0939 91.8695 13.9409 91.8701 15.8667V107.467C91.8695 109.392 91.105 111.239 89.7443 112.602C88.3836 113.965 86.5379 114.732 84.6121 114.736H45.5471C43.6214 114.732 41.7758 113.965 40.4152 112.603C39.0545 111.24 38.2899 109.393 38.2891 107.468V15.8667C38.2896 13.9409 39.0541 12.0939 40.4148 10.7312C41.7755 9.36839 43.6213 8.6011 45.5471 8.59766H84.6121Z" fill="#707782"/>
</g>
<path d="M88.1287 15.5454V107.145C88.1497 107.893 87.9191 108.626 87.474 109.226C87.0288 109.827 86.3949 110.261 85.6737 110.458C85.3263 110.552 84.9659 110.588 84.6067 110.565H45.0107C44.202 110.432 43.4673 110.015 42.939 109.388C42.4107 108.762 42.1233 107.967 42.1287 107.147V15.8664C42.0892 15.0378 42.3642 14.2249 42.8986 13.5905C43.4331 12.9561 44.1875 12.5471 45.0107 12.4454H51.3107C51.4804 12.4394 51.6494 12.4684 51.8073 12.5306C51.9652 12.5928 52.1086 12.6869 52.2286 12.807C52.3485 12.9271 52.4424 13.0707 52.5043 13.2287C52.5663 13.3867 52.595 13.5558 52.5887 13.7254C52.6011 14.458 52.8972 15.1572 53.4148 15.6758C53.9325 16.1943 54.6312 16.4918 55.3637 16.5054H75.2167C75.9493 16.4918 76.648 16.1943 77.1656 15.6758C77.6833 15.1572 77.9794 14.458 77.9917 13.7254C77.9854 13.5555 78.0142 13.3862 78.0764 13.2279C78.1386 13.0697 78.2327 12.926 78.353 12.8059C78.4732 12.6857 78.617 12.5917 78.7752 12.5297C78.9335 12.4676 79.1029 12.4389 79.2727 12.4454H84.7167V12.1254C85.0757 12.1079 85.4354 12.144 85.7837 12.2324C86.4699 12.4733 87.0641 12.9216 87.4842 13.5152C87.9044 14.1087 88.1296 14.8182 88.1287 15.5454Z" fill="white"/>
<path opacity="0.11" d="M88.1287 15.5454V107.145C88.1497 107.893 87.9191 108.626 87.474 109.226C87.0288 109.827 86.3949 110.261 85.6737 110.458C85.3263 110.552 84.9659 110.588 84.6067 110.565H45.0107C44.202 110.432 43.4673 110.015 42.939 109.388C42.4107 108.762 42.1233 107.967 42.1287 107.147V15.8664C42.0892 15.0378 42.3642 14.2249 42.8986 13.5905C43.4331 12.9561 44.1875 12.5471 45.0107 12.4454H51.3107C51.4804 12.4394 51.6494 12.4684 51.8073 12.5306C51.9652 12.5928 52.1086 12.6869 52.2286 12.807C52.3485 12.9271 52.4424 13.0707 52.5043 13.2287C52.5663 13.3867 52.595 13.5558 52.5887 13.7254C52.6011 14.458 52.8972 15.1572 53.4148 15.6758C53.9325 16.1943 54.6312 16.4918 55.3637 16.5054H75.2167C75.9493 16.4918 76.648 16.1943 77.1656 15.6758C77.6833 15.1572 77.9794 14.458 77.9917 13.7254C77.9854 13.5555 78.0142 13.3862 78.0764 13.2279C78.1386 13.0697 78.2327 12.926 78.353 12.8059C78.4732 12.6857 78.617 12.5917 78.7752 12.5297C78.9335 12.4676 79.1029 12.4389 79.2727 12.4454H84.7167V12.1254C85.0757 12.1079 85.4354 12.144 85.7837 12.2324C86.4699 12.4733 87.0641 12.9216 87.4842 13.5152C87.9044 14.1087 88.1296 14.8182 88.1287 15.5454Z" fill="url(#paint0_linear_350_1886)"/>
<path d="M68.4926 13.3047H63.2626C63.067 13.2942 62.8823 13.2115 62.7443 13.0726C62.6063 12.9336 62.5248 12.7483 62.5156 12.5527C62.5257 12.3577 62.6076 12.1735 62.7456 12.0353C62.8835 11.8972 63.0677 11.8151 63.2626 11.8047H68.4926C68.9196 11.8047 69.2396 12.3387 69.2396 12.5527C69.2519 12.654 69.2411 12.7567 69.208 12.8532C69.1749 12.9497 69.1203 13.0374 69.0484 13.1098C68.9765 13.1822 68.8892 13.2373 68.7929 13.2711C68.6966 13.3048 68.594 13.3163 68.4926 13.3047Z" fill="white"/>
<path d="M60.9046 13.1542H60.7536C60.3776 13.1542 60.2266 12.7242 60.2266 12.5492C60.2255 12.402 60.2786 12.2595 60.3758 12.1488C60.4729 12.0382 60.6074 11.9671 60.7536 11.9492H60.9046C61.2816 11.9492 61.4316 12.3802 61.4316 12.5492C61.4316 12.9822 61.2056 13.1542 60.9046 13.1542Z" fill="white"/>
<path d="M79.8529 59.5309C79.8792 61.3572 79.5275 63.1691 78.8199 64.8529C78.0176 66.8955 76.7762 68.737 75.1837 70.2469C73.5912 71.7568 71.6863 72.8984 69.6039 73.5909C68.1434 74.0741 66.6142 74.3169 65.0759 74.3099C62.1531 74.3101 59.2958 73.4436 56.8655 71.8199C54.4352 70.1963 52.5409 67.8884 51.4222 65.1881C50.3035 62.4879 50.0106 59.5165 50.5806 56.6498C51.1507 53.7832 52.5579 51.1499 54.6246 49.083C56.6912 47.0161 59.3242 45.6085 62.1909 45.0381C65.0575 44.4677 68.0289 44.7601 70.7293 45.8784C73.4297 46.9968 75.7378 48.8907 77.3618 51.3209C78.9858 53.751 79.8527 56.6081 79.8529 59.5309Z" fill="#02C9C0"/>
<path d="M59.5859 62.1422C59.5878 61.2068 59.8287 60.2873 60.2859 59.4712C60.7725 58.6714 61.4379 57.9953 62.2299 57.4962V54.6602C62.2274 54.2745 62.3043 53.8923 62.4558 53.5375C62.6074 53.1828 62.8304 52.863 63.1109 52.5982C63.6916 52.0697 64.4421 51.7661 65.2269 51.7422C65.986 51.7381 66.7163 52.0325 67.2603 52.5619C67.8043 53.0913 68.1184 53.8133 68.1349 54.5722V57.4092C68.9524 57.8893 69.6225 58.5845 70.0723 59.419C70.5221 60.2535 70.7343 61.1954 70.6859 62.1422C70.6796 62.8631 70.5306 63.5755 70.2476 64.2385C69.9646 64.9015 69.5533 65.5019 69.0372 66.0052C68.5211 66.5085 67.9105 66.9046 67.2406 67.1708C66.5707 67.437 65.8547 67.568 65.1339 67.5562C64.4135 67.5675 63.698 67.4361 63.0285 67.1696C62.3591 66.9032 61.749 66.507 61.2333 66.0037C60.7176 65.5005 60.3066 64.9003 60.0239 64.2376C59.7411 63.5748 59.5923 62.8627 59.5859 62.1422Z" fill="white"/>
</g>
<defs>
<linearGradient id="paint0_linear_350_1886" x1="65.1275" y1="51.3046" x2="65.1275" y2="18.2251" gradientUnits="userSpaceOnUse">
<stop offset="0.003" stop-color="#606673" stop-opacity="0"/>
<stop offset="1" stop-color="#373C47"/>
</linearGradient>
<clipPath id="clip0_350_1886">
<rect width="119.864" height="113.834" fill="white" transform="translate(0.390625 0.582031)"/>
</clipPath>
</defs>
</svg>
