<svg width="17" height="17" viewBox="0 0 17 17" fill="none" xmlns="http://www.w3.org/2000/svg">
<path d="M5.57812 2.5625C5.57812 2.01022 6.02585 1.5625 6.57812 1.5625H9.57812C10.1304 1.5625 10.5781 2.01022 10.5781 2.5625V3.5625H13.5781C14.1304 3.5625 14.5781 4.01022 14.5781 4.5625C14.5781 5.11478 14.1304 5.5625 13.5781 5.5625H2.57812C2.02584 5.5625 1.57812 5.11478 1.57812 4.5625C1.57812 4.01022 2.02584 3.5625 2.57812 3.5625H5.57812V2.5625Z" fill="#98A1AE"/>
<path d="M13.3128 7.0625H2.84375L3.59052 13.7834C3.70306 14.7962 4.55918 15.5625 5.57828 15.5625H10.5782C11.5974 15.5625 12.4535 14.7962 12.566 13.7834L13.3128 7.0625Z" fill="#98A1AE"/>
</svg>
