<svg width="25" height="25" viewBox="0 0 25 25" fill="none" xmlns="http://www.w3.org/2000/svg">
<path d="M13.1812 7.91129C13.1866 7.62751 12.9581 7.39453 12.6742 7.39453H12.1086C11.8248 7.39453 11.5962 7.62751 11.6017 7.91129L11.7085 13.4831C11.7138 13.7593 11.9392 13.9804 12.2155 13.9804H12.5674C12.8436 13.9804 13.069 13.7593 13.0743 13.4831L13.1812 7.91129Z" fill="#F79009"/>
<path d="M11.7039 17.1616C11.8951 17.3496 12.1252 17.4436 12.3942 17.4436C12.5693 17.4436 12.7297 17.3998 12.8755 17.3124C13.0213 17.2249 13.1381 17.1082 13.2256 16.9623C13.3163 16.8133 13.3633 16.6496 13.3665 16.4713C13.3633 16.2055 13.266 15.9787 13.0749 15.7907C12.8836 15.5995 12.6568 15.5039 12.3942 15.5039C12.1252 15.5039 11.8951 15.5995 11.7039 15.7907C11.5127 15.9787 11.4187 16.2055 11.422 16.4713C11.4187 16.7404 11.5127 16.9705 11.7039 17.1616Z" fill="#F79009"/>
<path fill-rule="evenodd" clip-rule="evenodd" d="M12.3946 22.4727C17.9951 22.4727 22.5352 17.9326 22.5352 12.3321C22.5352 6.73154 17.9951 2.19141 12.3946 2.19141C6.79404 2.19141 2.25391 6.73154 2.25391 12.3321C2.25391 17.9326 6.79404 22.4727 12.3946 22.4727ZM12.3946 20.9516C17.155 20.9516 21.0141 17.0925 21.0141 12.3321C21.0141 7.57162 17.155 3.71251 12.3946 3.71251C7.63412 3.71251 3.77501 7.57162 3.77501 12.3321C3.77501 17.0925 7.63412 20.9516 12.3946 20.9516Z" fill="#F79009"/>
</svg>

